YoungSerif-Regular.ufo
<glyph name="exclam" format="2">
  <advance width="374.0"/>
  <unicode hex="0021"/>
  <note>
exclam
</note>
  <outline>
    <contour>
      <point x="138.58" y="755.59" type="curve" smooth="yes"/>
      <point x="99.48" y="716.49" type="line" smooth="yes"/>
      <point x="87.09" y="704.1"/>
      <point x="80.51" y="691.25"/>
      <point x="80.51" y="678.38" type="curve" smooth="yes"/>
      <point x="80.51" y="626.15"/>
      <point x="117.48" y="487.58"/>
      <point x="128.12" y="350.27" type="curve" smooth="yes"/>
      <point x="132.76" y="290.35"/>
      <point x="132.96" y="281.63"/>
      <point x="133.13" y="273.26" type="curve" smooth="yes"/>
      <point x="133.29" y="265.12"/>
      <point x="138.16" y="260.88"/>
      <point x="146.3" y="260.88" type="curve" smooth="yes"/>
      <point x="208.82" y="260.88" type="line" smooth="yes"/>
      <point x="216.96" y="260.88"/>
      <point x="221.83" y="265.12"/>
      <point x="221.99" y="273.26" type="curve" smooth="yes"/>
      <point x="222.16" y="281.64"/>
      <point x="222.34" y="290.37"/>
      <point x="227.0" y="350.29" type="curve" smooth="yes"/>
      <point x="237.52" y="485.65"/>
      <point x="274.42" y="626.31"/>
      <point x="274.42" y="678.53" type="curve" smooth="yes"/>
      <point x="274.42" y="691.35"/>
      <point x="267.79" y="704.15"/>
      <point x="255.46" y="716.49" type="curve" smooth="yes"/>
      <point x="216.36" y="755.59" type="line" smooth="yes"/>
      <point x="203.72" y="768.23"/>
      <point x="190.59" y="774.55"/>
      <point x="177.47" y="774.55" type="curve" smooth="yes"/>
      <point x="164.34" y="774.55"/>
      <point x="151.22" y="768.23"/>
    </contour>
    <contour>
      <point x="138.58" y="156.25" type="curve" smooth="yes"/>
      <point x="99.48" y="116.88" type="line" smooth="yes"/>
      <point x="86.84" y="104.24"/>
      <point x="80.52" y="91.11"/>
      <point x="80.52" y="77.99" type="curve" smooth="yes"/>
      <point x="80.52" y="64.86"/>
      <point x="86.84" y="51.74"/>
      <point x="99.48" y="39.1" type="curve" smooth="yes"/>
      <point x="138.58" y="0.0" type="line" smooth="yes"/>
      <point x="151.22" y="-12.5"/>
      <point x="164.34" y="-18.75"/>
      <point x="177.47" y="-18.75" type="curve" smooth="yes"/>
      <point x="190.59" y="-18.75"/>
      <point x="203.72" y="-12.5"/>
      <point x="216.36" y="0.0" type="curve" smooth="yes"/>
      <point x="255.46" y="39.1" type="line" smooth="yes"/>
      <point x="268.09" y="51.74"/>
      <point x="274.41" y="64.86"/>
      <point x="274.41" y="77.99" type="curve" smooth="yes"/>
      <point x="274.41" y="91.11"/>
      <point x="268.09" y="104.24"/>
      <point x="255.46" y="116.88" type="curve" smooth="yes"/>
      <point x="216.36" y="155.97" type="line" smooth="yes"/>
      <point x="203.68" y="168.65"/>
      <point x="190.52" y="174.97"/>
      <point x="177.36" y="174.97" type="curve" smooth="yes"/>
      <point x="164.27" y="174.97"/>
      <point x="151.18" y="168.72"/>
    </contour>
  </outline>
</glyph>
<glyph name="quotedbl" format="2">
  <advance width="406.0"/>
  <unicode hex="0022"/>
  <note>
quotedbl
</note>
  <outline>
    <contour>
      <point x="158.46" y="779.85" type="curve" smooth="yes"/>
      <point x="63.92" y="779.85" type="line" smooth="yes"/>
      <point x="54.66" y="779.85"/>
      <point x="49.58" y="775.09"/>
      <point x="49.58" y="766.57" type="curve"/>
      <point x="49.71" y="764.1" type="line"/>
      <point x="73.21" y="536.59" type="line" smooth="yes"/>
      <point x="74.17" y="527.23"/>
      <point x="79.51" y="522.41"/>
      <point x="88.93" y="522.41" type="curve" smooth="yes"/>
      <point x="133.45" y="522.41" type="line" smooth="yes"/>
      <point x="142.87" y="522.41"/>
      <point x="148.21" y="527.23"/>
      <point x="149.18" y="536.59" type="curve" smooth="yes"/>
      <point x="172.67" y="764.1" type="line" smooth="yes"/>
      <point x="173.71" y="774.16"/>
      <point x="168.58" y="779.85"/>
    </contour>
    <contour>
      <point x="341.63" y="779.85" type="curve" smooth="yes"/>
      <point x="247.08" y="779.85" type="line" smooth="yes"/>
      <point x="237.83" y="779.85"/>
      <point x="232.74" y="775.08"/>
      <point x="232.74" y="766.57" type="curve"/>
      <point x="232.87" y="764.1" type="line"/>
      <point x="256.37" y="536.59" type="line" smooth="yes"/>
      <point x="257.34" y="527.23"/>
      <point x="262.68" y="522.41"/>
      <point x="272.09" y="522.41" type="curve" smooth="yes"/>
      <point x="316.62" y="522.41" type="line" smooth="yes"/>
      <point x="326.03" y="522.41"/>
      <point x="331.38" y="527.23"/>
      <point x="332.34" y="536.59" type="curve" smooth="yes"/>
      <point x="355.84" y="764.1" type="line" smooth="yes"/>
      <point x="356.88" y="774.16"/>
      <point x="351.75" y="779.85"/>
    </contour>
  </outline>
</glyph>
<glyph name="numbersign" format="2">
  <advance width="761.0"/>
  <unicode hex="0023"/>
  <note>
numbersign
</note>
  <outline>
    <contour>
      <point x="638.93" y="675.76" type="curve"/>
      <point x="638.26" y="670.71" type="line"/>
      <point x="599.15" y="513.31" type="line"/>
      <point x="723.69" y="513.31" type="line" smooth="yes"/>
      <point x="732.48" y="513.31"/>
      <point x="737.38" y="509.02"/>
      <point x="737.38" y="501.72" type="curve"/>
      <point x="736.7" y="496.65" type="line"/>
      <point x="722.64" y="440.27" type="line" smooth="yes"/>
      <point x="720.47" y="431.55"/>
      <point x="715.04" y="427.31"/>
      <point x="706.05" y="427.31" type="curve" smooth="yes"/>
      <point x="577.7" y="427.31" type="line"/>
      <point x="530.67" y="238.77" type="line"/>
      <point x="655.23" y="238.77" type="line" smooth="yes"/>
      <point x="664.02" y="238.77"/>
      <point x="668.92" y="234.48"/>
      <point x="668.92" y="227.18" type="curve"/>
      <point x="668.24" y="222.11" type="line"/>
      <point x="654.18" y="165.73" type="line" smooth="yes"/>
      <point x="652.01" y="157.01"/>
      <point x="646.58" y="152.77"/>
      <point x="637.59" y="152.77" type="curve" smooth="yes"/>
      <point x="509.21" y="152.77" type="line"/>
      <point x="474.33" y="12.96" type="line" smooth="yes"/>
      <point x="472.16" y="4.24"/>
      <point x="466.73" y="0.0"/>
      <point x="457.74" y="0.0" type="curve" smooth="yes"/>
      <point x="389.94" y="0.0" type="line" smooth="yes"/>
      <point x="381.15" y="0.0"/>
      <point x="376.26" y="4.29"/>
      <point x="376.26" y="11.6" type="curve"/>
      <point x="376.93" y="16.66" type="line"/>
      <point x="410.88" y="152.77" type="line"/>
      <point x="270.07" y="152.77" type="line"/>
      <point x="235.19" y="12.96" type="line" smooth="yes"/>
      <point x="233.02" y="4.24"/>
      <point x="227.59" y="0.0"/>
      <point x="218.6" y="0.0" type="curve" smooth="yes"/>
      <point x="150.79" y="0.0" type="line" smooth="yes"/>
      <point x="142.0" y="0.0"/>
      <point x="137.11" y="4.29"/>
      <point x="137.11" y="11.6" type="curve"/>
      <point x="137.78" y="16.66" type="line"/>
      <point x="171.73" y="152.77" type="line"/>
      <point x="37.17" y="152.77" type="line" smooth="yes"/>
      <point x="28.38" y="152.77"/>
      <point x="23.49" y="157.07"/>
      <point x="23.49" y="164.37" type="curve"/>
      <point x="24.16" y="169.43" type="line"/>
      <point x="38.23" y="225.81" type="line" smooth="yes"/>
      <point x="40.4" y="234.53"/>
      <point x="45.83" y="238.77"/>
      <point x="54.82" y="238.77" type="curve" smooth="yes"/>
      <point x="193.18" y="238.77" type="line"/>
      <point x="240.22" y="427.31" type="line"/>
      <point x="105.7" y="427.31" type="line" smooth="yes"/>
      <point x="96.9" y="427.31"/>
      <point x="92.01" y="431.61"/>
      <point x="92.01" y="438.91" type="curve"/>
      <point x="92.68" y="443.97" type="line"/>
      <point x="106.75" y="500.35" type="line" smooth="yes"/>
      <point x="108.92" y="509.07"/>
      <point x="114.35" y="513.31"/>
      <point x="123.34" y="513.31" type="curve" smooth="yes"/>
      <point x="261.67" y="513.31" type="line"/>
      <point x="301.69" y="674.4" type="line" smooth="yes"/>
      <point x="303.86" y="683.13"/>
      <point x="309.28" y="687.37"/>
      <point x="318.28" y="687.37" type="curve" smooth="yes"/>
      <point x="386.1" y="687.37" type="line" smooth="yes"/>
      <point x="394.9" y="687.37"/>
      <point x="399.79" y="683.07"/>
      <point x="399.79" y="675.76" type="curve"/>
      <point x="399.12" y="670.71" type="line"/>
      <point x="360.01" y="513.31" type="line"/>
      <point x="500.82" y="513.31" type="line"/>
      <point x="540.84" y="674.4" type="line" smooth="yes"/>
      <point x="543.01" y="683.13"/>
      <point x="548.43" y="687.37"/>
      <point x="557.43" y="687.37" type="curve" smooth="yes"/>
      <point x="625.24" y="687.37" type="line" smooth="yes"/>
      <point x="634.04" y="687.37"/>
      <point x="638.93" y="683.07"/>
    </contour>
    <contour>
      <point x="338.56" y="427.31" type="line"/>
      <point x="291.53" y="238.77" type="line"/>
      <point x="432.33" y="238.77" type="line"/>
      <point x="479.37" y="427.31" type="line"/>
    </contour>
  </outline>
</glyph>
<glyph name="dollar" format="2">
  <advance width="723.0"/>
  <unicode hex="0024"/>
  <note>
dollar
</note>
  <outline>
    <contour>
      <point x="431.62" y="456.28" type="curve"/>
      <point x="431.62" y="650.01" type="line"/>
      <point x="481.95" y="628.12"/>
      <point x="536.94" y="586.84"/>
      <point x="589.65" y="521.11" type="curve" smooth="yes"/>
      <point x="595.32" y="514.05"/>
      <point x="600.78" y="510.16"/>
      <point x="607.33" y="510.16" type="curve" smooth="yes"/>
      <point x="610.71" y="510.16"/>
      <point x="614.38" y="511.2"/>
      <point x="618.52" y="513.38" type="curve" smooth="yes"/>
      <point x="652.56" y="531.31" type="line" smooth="yes"/>
      <point x="660.79" y="535.65"/>
      <point x="663.85" y="540.28"/>
      <point x="663.85" y="546.18" type="curve" smooth="yes"/>
      <point x="663.85" y="550.17"/>
      <point x="662.45" y="554.74"/>
      <point x="660.3" y="560.19" type="curve" smooth="yes"/>
      <point x="589.74" y="739.23" type="line" smooth="yes"/>
      <point x="585.28" y="750.55"/>
      <point x="577.59" y="755.8"/>
      <point x="565.42" y="755.82" type="curve" smooth="yes"/>
      <point x="528.72" y="755.82" type="line" smooth="yes"/>
      <point x="516.69" y="755.9"/>
      <point x="510.91" y="750.54"/>
      <point x="510.91" y="741.1" type="curve" smooth="yes"/>
      <point x="510.91" y="738.3"/>
      <point x="511.42" y="735.15"/>
      <point x="512.42" y="731.68" type="curve" smooth="yes"/>
      <point x="516.82" y="716.43"/>
      <point x="518.11" y="702.09"/>
      <point x="510.48" y="702.09" type="curve" smooth="yes"/>
      <point x="508.83" y="702.09"/>
      <point x="506.77" y="702.76"/>
      <point x="504.22" y="704.24" type="curve" smooth="yes"/>
      <point x="491.26" y="711.77"/>
      <point x="464.68" y="724.13"/>
      <point x="431.62" y="734.11" type="curve"/>
      <point x="431.62" y="818.83" type="line" smooth="yes"/>
      <point x="431.62" y="828.58"/>
      <point x="426.37" y="833.83"/>
      <point x="416.62" y="833.83" type="curve" smooth="yes"/>
      <point x="348.8" y="833.83" type="line" smooth="yes"/>
      <point x="339.05" y="833.83"/>
      <point x="333.8" y="828.58"/>
      <point x="333.8" y="818.83" type="curve" smooth="yes"/>
      <point x="333.8" y="750.0" type="line"/>
      <point x="178.43" y="750.0"/>
      <point x="80.01" y="680.68"/>
      <point x="80.01" y="568.66" type="curve" smooth="yes"/>
      <point x="80.01" y="492.09"/>
      <point x="113.77" y="397.4"/>
      <point x="333.8" y="329.12" type="curve"/>
      <point x="333.8" y="84.98" type="line"/>
      <point x="250.35" y="110.54"/>
      <point x="170.81" y="173.02"/>
      <point x="103.75" y="275.48" type="curve"/>
      <point x="99.33" y="283.07"/>
      <point x="93.62" y="286.93"/>
      <point x="86.97" y="286.93" type="curve" smooth="yes"/>
      <point x="83.21" y="286.93"/>
      <point x="79.16" y="285.7"/>
      <point x="74.87" y="283.21" type="curve" smooth="yes"/>
      <point x="31.28" y="257.95" type="line" smooth="yes"/>
      <point x="23.7" y="253.56"/>
      <point x="20.0" y="247.95"/>
      <point x="20.0" y="241.32" type="curve" smooth="yes"/>
      <point x="20.0" y="237.56"/>
      <point x="21.19" y="233.47"/>
      <point x="23.54" y="229.08" type="curve" smooth="yes"/>
      <point x="144.93" y="2.02" type="line" smooth="yes"/>
      <point x="150.47" y="-8.0"/>
      <point x="158.15" y="-12.0"/>
      <point x="169.9" y="-12.0" type="curve" smooth="yes"/>
      <point x="220.4" y="-12.0" type="line"/>
      <point x="231.62" y="-12.72"/>
      <point x="236.35" y="-8.84"/>
      <point x="236.35" y="-0.75" type="curve" smooth="yes"/>
      <point x="236.35" y="2.5"/>
      <point x="235.59" y="6.42"/>
      <point x="234.18" y="11.0" type="curve" smooth="yes"/>
      <point x="230.17" y="23.77"/>
      <point x="232.54" y="32.06"/>
      <point x="241.41" y="32.06" type="curve" smooth="yes"/>
      <point x="244.61" y="32.06"/>
      <point x="248.66" y="30.98"/>
      <point x="253.56" y="28.64" type="curve" smooth="yes"/>
      <point x="278.49" y="16.48"/>
      <point x="305.57" y="7.18"/>
      <point x="333.8" y="1.0" type="curve"/>
      <point x="333.8" y="-72.12" type="line" smooth="yes"/>
      <point x="333.8" y="-82.12"/>
      <point x="339.05" y="-87.12"/>
      <point x="348.8" y="-87.12" type="curve" smooth="yes"/>
      <point x="416.62" y="-87.12" type="line" smooth="yes"/>
      <point x="426.37" y="-87.12"/>
      <point x="431.62" y="-82.12"/>
      <point x="431.62" y="-72.12" type="curve" smooth="yes"/>
      <point x="431.62" y="-7.79" type="line"/>
      <point x="606.5" y="-2.79"/>
      <point x="707.71" y="92.6"/>
      <point x="707.71" y="220.64" type="curve" smooth="yes"/>
      <point x="707.71" y="359.37"/>
      <point x="572.7" y="413.78"/>
    </contour>
    <contour>
      <point x="333.8" y="669.31" type="curve"/>
      <point x="333.8" y="487.82" type="line"/>
      <point x="281.2" y="509.14"/>
      <point x="238.66" y="538.67"/>
      <point x="238.66" y="583.52" type="curve" smooth="yes"/>
      <point x="238.66" y="648.41"/>
      <point x="287.07" y="666.81"/>
    </contour>
    <contour>
      <point x="431.62" y="71.73" type="curve"/>
      <point x="431.62" y="300.95" type="line"/>
      <point x="502.89" y="278.96"/>
      <point x="558.44" y="250.69"/>
      <point x="558.44" y="176.03" type="curve" smooth="yes"/>
      <point x="558.44" y="118.23"/>
      <point x="512.97" y="74.64"/>
    </contour>
  </outline>
</glyph>
<glyph name="percent" format="2">
  <advance width="881.0"/>
  <unicode hex="0025"/>
  <note>
percent
</note>
  <outline>
    <contour>
      <point x="140.34" y="-11.0" type="curve" smooth="yes"/>
      <point x="181.59" y="-11.0" type="line" smooth="yes"/>
      <point x="189.57" y="-11.0"/>
      <point x="194.99" y="-8.0"/>
      <point x="199.86" y="-2.0" type="curve" smooth="yes"/>
      <point x="753.06" y="717.18" type="line" smooth="yes"/>
      <point x="755.72" y="720.72"/>
      <point x="756.98" y="723.99"/>
      <point x="756.98" y="726.76" type="curve" smooth="yes"/>
      <point x="756.98" y="732.04"/>
      <point x="752.36" y="735.49"/>
      <point x="744.04" y="735.49" type="curve" smooth="yes"/>
      <point x="702.8" y="735.49" type="line" smooth="yes"/>
      <point x="694.82" y="735.49"/>
      <point x="689.39" y="732.49"/>
      <point x="684.53" y="726.49" type="curve" smooth="yes"/>
      <point x="131.32" y="7.32" type="line" smooth="yes"/>
      <point x="128.66" y="3.78"/>
      <point x="127.4" y="0.5"/>
      <point x="127.4" y="-2.26" type="curve" smooth="yes"/>
      <point x="127.4" y="-7.55"/>
      <point x="132.02" y="-11.0"/>
    </contour>
    <contour>
      <point x="176.5" y="709.57" type="curve" smooth="yes"/>
      <point x="111.02" y="680.42"/>
      <point x="72.55" y="615.32"/>
      <point x="72.55" y="546.36" type="curve" smooth="yes"/>
      <point x="72.55" y="521.0"/>
      <point x="77.75" y="495.12"/>
      <point x="88.73" y="470.31" type="curve" smooth="yes"/>
      <point x="119.33" y="401.57"/>
      <point x="185.91" y="360.41"/>
      <point x="254.9" y="360.41" type="curve" smooth="yes"/>
      <point x="278.52" y="360.41"/>
      <point x="302.43" y="365.23"/>
      <point x="325.27" y="375.43" type="curve" smooth="yes"/>
      <point x="390.73" y="404.58"/>
      <point x="429.33" y="469.64"/>
      <point x="429.33" y="538.58" type="curve" smooth="yes"/>
      <point x="429.33" y="563.96"/>
      <point x="424.1" y="589.87"/>
      <point x="413.04" y="614.7" type="curve" smooth="yes"/>
      <point x="382.43" y="683.44"/>
      <point x="315.85" y="724.55"/>
      <point x="246.84" y="724.55" type="curve" smooth="yes"/>
      <point x="223.23" y="724.55"/>
      <point x="199.33" y="719.74"/>
    </contour>
    <contour>
      <point x="202.19" y="651.86" type="curve" smooth="yes"/>
      <point x="210.77" y="655.68"/>
      <point x="219.21" y="657.43"/>
      <point x="227.42" y="657.43" type="curve" smooth="yes"/>
      <point x="266.31" y="657.43"/>
      <point x="300.05" y="618.07"/>
      <point x="320.0" y="573.26" type="curve" smooth="yes"/>
      <point x="330.75" y="549.11"/>
      <point x="337.65" y="523.05"/>
      <point x="337.65" y="499.62" type="curve" smooth="yes"/>
      <point x="337.65" y="470.41"/>
      <point x="326.92" y="445.3"/>
      <point x="299.58" y="433.12" type="curve" smooth="yes"/>
      <point x="290.98" y="429.28"/>
      <point x="282.53" y="427.51"/>
      <point x="274.31" y="427.51" type="curve" smooth="yes"/>
      <point x="235.44" y="427.51"/>
      <point x="201.71" y="466.92"/>
      <point x="181.77" y="511.72" type="curve" smooth="yes"/>
      <point x="171.02" y="535.87"/>
      <point x="164.12" y="561.94"/>
      <point x="164.12" y="585.37" type="curve" smooth="yes"/>
      <point x="164.12" y="614.58"/>
      <point x="174.85" y="639.69"/>
    </contour>
    <contour>
      <point x="567.29" y="11.22" type="curve" smooth="yes"/>
      <point x="587.62" y="3.4"/>
      <point x="608.54" y="-0.31"/>
      <point x="629.17" y="-0.31" type="curve" smooth="yes"/>
      <point x="701.43" y="-0.31"/>
      <point x="770.25" y="45.13"/>
      <point x="798.55" y="118.34" type="curve" smooth="yes"/>
      <point x="807.06" y="140.52"/>
      <point x="811.09" y="163.28"/>
      <point x="811.09" y="185.59" type="curve" smooth="yes"/>
      <point x="811.09" y="258.15"/>
      <point x="768.43" y="325.87"/>
      <point x="698.37" y="352.69" type="curve" smooth="yes"/>
      <point x="678.02" y="360.5"/>
      <point x="657.08" y="364.2"/>
      <point x="636.42" y="364.2" type="curve" smooth="yes"/>
      <point x="564.14" y="364.2"/>
      <point x="495.27" y="318.9"/>
      <point x="467.12" y="245.57" type="curve" smooth="yes"/>
      <point x="458.61" y="223.41"/>
      <point x="454.58" y="200.66"/>
      <point x="454.58" y="178.36" type="curve" smooth="yes"/>
      <point x="454.58" y="105.81"/>
      <point x="497.28" y="38.1"/>
    </contour>
    <contour>
      <point x="589.94" y="70.19" type="curve" smooth="yes"/>
      <point x="559.92" y="81.72"/>
      <point x="548.27" y="109.15"/>
      <point x="548.27" y="141.18" type="curve" smooth="yes"/>
      <point x="548.27" y="162.88"/>
      <point x="553.61" y="186.68"/>
      <point x="562.21" y="209.07" type="curve" smooth="yes"/>
      <point x="580.24" y="256.05"/>
      <point x="613.07" y="298.06"/>
      <point x="653.28" y="298.06" type="curve" smooth="yes"/>
      <point x="660.54" y="298.06"/>
      <point x="668.04" y="296.69"/>
      <point x="675.74" y="293.73" type="curve" smooth="yes"/>
      <point x="705.78" y="282.26"/>
      <point x="717.43" y="254.84"/>
      <point x="717.43" y="222.81" type="curve" smooth="yes"/>
      <point x="717.43" y="201.1"/>
      <point x="712.07" y="177.26"/>
      <point x="703.47" y="154.85" type="curve" smooth="yes"/>
      <point x="685.43" y="107.87"/>
      <point x="652.61" y="65.87"/>
      <point x="612.39" y="65.87" type="curve" smooth="yes"/>
      <point x="605.14" y="65.87"/>
      <point x="597.64" y="67.24"/>
    </contour>
  </outline>
</glyph>
<glyph name="ampersand" format="2">
  <advance width="813.0"/>
  <unicode hex="0026"/>
  <note>
ampersand
</note>
  <outline>
    <contour>
      <point x="778.34" y="500.12" type="curve" smooth="yes"/>
      <point x="500.11" y="500.12" type="line" smooth="yes"/>
      <point x="490.36" y="500.12"/>
      <point x="485.11" y="494.87"/>
      <point x="485.11" y="485.12" type="curve" smooth="yes"/>
      <point x="485.11" y="455.0" type="line" smooth="yes"/>
      <point x="485.11" y="445.25"/>
      <point x="490.36" y="440.0"/>
      <point x="500.11" y="440.0" type="curve" smooth="yes"/>
      <point x="516.17" y="440.0" type="line"/>
      <point x="549.85" y="438.17"/>
      <point x="574.54" y="415.5"/>
      <point x="574.54" y="381.55" type="curve" smooth="yes"/>
      <point x="574.54" y="354.89"/>
      <point x="555.54" y="292.21"/>
      <point x="519.08" y="230.17" type="curve"/>
      <point x="273.76" y="513.33" type="line" smooth="yes"/>
      <point x="243.45" y="548.31"/>
      <point x="227.37" y="586.8"/>
      <point x="227.37" y="620.07" type="curve" smooth="yes"/>
      <point x="227.37" y="668.11"/>
      <point x="260.92" y="705.27"/>
      <point x="333.62" y="705.27" type="curve" smooth="yes"/>
      <point x="384.49" y="705.27"/>
      <point x="398.81" y="675.41"/>
      <point x="398.81" y="643.24" type="curve" smooth="yes"/>
      <point x="398.81" y="621.95"/>
      <point x="395.08" y="606.61"/>
      <point x="377.61" y="584.36" type="curve" smooth="yes"/>
      <point x="375.17" y="581.26"/>
      <point x="374.04" y="577.54"/>
      <point x="374.04" y="574.12" type="curve" smooth="yes"/>
      <point x="374.04" y="568.6"/>
      <point x="376.99" y="563.89"/>
      <point x="382.12" y="563.89" type="curve"/>
      <point x="384.58" y="564.18" type="line"/>
      <point x="489.46" y="588.79" type="line" smooth="yes"/>
      <point x="504.3" y="592.27"/>
      <point x="510.17" y="597.11"/>
      <point x="514.54" y="607.85" type="curve" smooth="yes"/>
      <point x="521.36" y="624.62"/>
      <point x="525.0" y="641.0"/>
      <point x="525.0" y="656.46" type="curve" smooth="yes"/>
      <point x="525.0" y="714.25"/>
      <point x="454.78" y="763.76"/>
      <point x="335.49" y="763.76" type="curve" smooth="yes"/>
      <point x="183.41" y="763.76"/>
      <point x="107.33" y="673.77"/>
      <point x="107.33" y="578.02" type="curve" smooth="yes"/>
      <point x="107.33" y="532.95"/>
      <point x="124.19" y="486.61"/>
      <point x="157.91" y="447.78" type="curve" smooth="yes"/>
      <point x="214.36" y="382.78" type="line"/>
      <point x="105.74" y="356.32"/>
      <point x="20.0" y="298.8"/>
      <point x="20.0" y="186.45" type="curve" smooth="yes"/>
      <point x="20.0" y="36.41"/>
      <point x="157.29" y="-15.0"/>
      <point x="279.67" y="-15.0" type="curve" smooth="yes"/>
      <point x="365.49" y="-15.0"/>
      <point x="432.46" y="16.4"/>
      <point x="487.82" y="68.96" type="curve"/>
      <point x="545.72" y="11.78"/>
      <point x="617.88" y="0.0"/>
      <point x="704.73" y="0.0" type="curve" smooth="yes"/>
      <point x="726.19" y="0.0"/>
      <point x="746.52" y="2.02"/>
      <point x="765.63" y="5.07" type="curve" smooth="yes"/>
      <point x="774.38" y="6.47"/>
      <point x="779.1" y="10.86"/>
      <point x="779.1" y="18.93" type="curve"/>
      <point x="778.96" y="21.46" type="line"/>
      <point x="775.75" y="51.41" type="line" smooth="yes"/>
      <point x="774.82" y="59.95"/>
      <point x="770.42" y="65.04"/>
      <point x="762.8" y="65.04" type="curve" smooth="yes"/>
      <point x="757.93" y="65.04"/>
      <point x="741.58" y="62.55"/>
      <point x="733.9" y="62.55" type="curve" smooth="yes"/>
      <point x="675.3" y="62.55"/>
      <point x="646.77" y="82.78"/>
      <point x="612.77" y="122.03" type="curve" smooth="yes"/>
      <point x="569.26" y="172.25" type="line"/>
      <point x="600.82" y="223.32"/>
      <point x="628.6" y="282.1"/>
      <point x="655.13" y="345.04" type="curve" smooth="yes"/>
      <point x="675.85" y="394.2"/>
      <point x="719.08" y="437.44"/>
      <point x="771.49" y="440.0" type="curve"/>
      <point x="778.34" y="440.0" type="line" smooth="yes"/>
      <point x="788.09" y="440.0"/>
      <point x="793.34" y="445.25"/>
      <point x="793.34" y="455.0" type="curve" smooth="yes"/>
      <point x="793.34" y="485.12" type="line" smooth="yes"/>
      <point x="793.34" y="494.87"/>
      <point x="788.09" y="500.12"/>
    </contour>
    <contour>
      <point x="263.52" y="326.17" type="curve"/>
      <point x="435.78" y="127.81" type="line"/>
      <point x="396.74" y="94.55"/>
      <point x="349.85" y="71.93"/>
      <point x="295.62" y="71.93" type="curve" smooth="yes"/>
      <point x="229.68" y="71.93"/>
      <point x="164.82" y="105.62"/>
      <point x="164.82" y="192.59" type="curve" smooth="yes"/>
      <point x="164.82" y="261.32"/>
      <point x="212.97" y="303.72"/>
    </contour>
  </outline>
</glyph>
<glyph name="quotesingle" format="2">
  <advance width="215.0"/>
  <unicode hex="0027"/>
  <note>
quotesingle
</note>
  <outline>
    <contour>
      <point x="153.12" y="779.85" type="curve" smooth="yes"/>
      <point x="58.58" y="779.85" type="line" smooth="yes"/>
      <point x="49.32" y="779.85"/>
      <point x="44.24" y="775.09"/>
      <point x="44.24" y="766.57" type="curve"/>
      <point x="44.37" y="764.1" type="line"/>
      <point x="67.87" y="536.59" type="line" smooth="yes"/>
      <point x="68.83" y="527.23"/>
      <point x="74.17" y="522.41"/>
      <point x="83.59" y="522.41" type="curve" smooth="yes"/>
      <point x="128.11" y="522.41" type="line" smooth="yes"/>
      <point x="137.53" y="522.41"/>
      <point x="142.87" y="527.23"/>
      <point x="143.84" y="536.59" type="curve" smooth="yes"/>
      <point x="167.33" y="764.1" type="line" smooth="yes"/>
      <point x="168.37" y="774.16"/>
      <point x="163.24" y="779.85"/>
    </contour>
  </outline>
</glyph>
<glyph name="parenleft" format="2">
  <advance width="480.0"/>
  <unicode hex="0028"/>
  <note>
parenleft
</note>
  <outline>
    <contour>
      <point x="380.58" y="-83.0" type="curve"/>
      <point x="363.56" y="-109.0" type="line" smooth="yes"/>
      <point x="360.26" y="-114.07"/>
      <point x="356.26" y="-116.73"/>
      <point x="351.66" y="-116.73" type="curve" smooth="yes"/>
      <point x="349.0" y="-116.73"/>
      <point x="346.14" y="-115.83"/>
      <point x="343.11" y="-114.0" type="curve"/>
      <point x="183.28" y="-31.0"/>
      <point x="80.07" y="154.86"/>
      <point x="80.0" y="331.63" type="curve"/>
      <point x="80.0" y="508.37"/>
      <point x="181.44" y="696.23"/>
      <point x="341.67" y="779.81" type="curve" smooth="yes"/>
      <point x="344.55" y="781.32"/>
      <point x="347.27" y="782.07"/>
      <point x="349.81" y="782.07" type="curve" smooth="yes"/>
      <point x="354.57" y="782.07"/>
      <point x="358.71" y="779.45"/>
      <point x="362.1" y="774.39" type="curve" smooth="yes"/>
      <point x="380.62" y="746.72" type="line" smooth="yes"/>
      <point x="382.78" y="743.5"/>
      <point x="383.83" y="740.46"/>
      <point x="383.83" y="737.59" type="curve" smooth="yes"/>
      <point x="383.83" y="733.36"/>
      <point x="381.53" y="729.5"/>
      <point x="377.1" y="725.98" type="curve" smooth="yes"/>
      <point x="289.86" y="657.08"/>
      <point x="207.77" y="481.9"/>
      <point x="207.77" y="331.64" type="curve" smooth="yes"/>
      <point x="207.83" y="181.4"/>
      <point x="290.15" y="6.0"/>
      <point x="377.09" y="-63.0" type="curve" smooth="yes"/>
      <point x="381.51" y="-66.57"/>
      <point x="383.81" y="-70.5"/>
      <point x="383.81" y="-74.57" type="curve" smooth="yes"/>
      <point x="383.81" y="-77.34"/>
      <point x="382.75" y="-80.17"/>
    </contour>
  </outline>
</glyph>
<glyph name="parenright" format="2">
  <advance width="480.0"/>
  <unicode hex="0029"/>
  <note>
parenright
</note>
  <outline>
    <contour>
      <point x="99.56" y="-83.0" type="curve"/>
      <point x="116.59" y="-109.0" type="line" smooth="yes"/>
      <point x="119.88" y="-114.07"/>
      <point x="123.89" y="-116.73"/>
      <point x="128.48" y="-116.73" type="curve" smooth="yes"/>
      <point x="131.14" y="-116.73"/>
      <point x="134.0" y="-115.83"/>
      <point x="137.03" y="-114.0" type="curve"/>
      <point x="296.86" y="-31.0"/>
      <point x="400.08" y="154.86"/>
      <point x="400.14" y="331.63" type="curve" smooth="yes"/>
      <point x="400.14" y="508.37"/>
      <point x="298.7" y="696.23"/>
      <point x="138.48" y="779.81" type="curve" smooth="yes"/>
      <point x="135.6" y="781.32"/>
      <point x="132.88" y="782.07"/>
      <point x="130.34" y="782.07" type="curve" smooth="yes"/>
      <point x="125.57" y="782.07"/>
      <point x="121.43" y="779.45"/>
      <point x="118.04" y="774.39" type="curve" smooth="yes"/>
      <point x="99.52" y="746.72" type="line" smooth="yes"/>
      <point x="97.36" y="743.5"/>
      <point x="96.31" y="740.46"/>
      <point x="96.31" y="737.59" type="curve" smooth="yes"/>
      <point x="96.31" y="733.36"/>
      <point x="98.61" y="729.5"/>
      <point x="103.04" y="725.98" type="curve" smooth="yes"/>
      <point x="190.28" y="657.08"/>
      <point x="272.37" y="481.9"/>
      <point x="272.37" y="331.64" type="curve" smooth="yes"/>
      <point x="272.31" y="181.4"/>
      <point x="189.99" y="6.0"/>
      <point x="103.05" y="-63.0" type="curve" smooth="yes"/>
      <point x="98.63" y="-66.57"/>
      <point x="96.34" y="-70.5"/>
      <point x="96.34" y="-74.58" type="curve" smooth="yes"/>
      <point x="96.34" y="-77.34"/>
      <point x="97.39" y="-80.17"/>
    </contour>
  </outline>
</glyph>
<glyph name="asterisk" format="2">
  <advance width="600.0"/>
  <unicode hex="002A"/>
  <note>
asterisk
</note>
  <outline>
    <contour>
      <point x="526.44" y="464.45" type="curve" smooth="yes"/>
      <point x="435.83" y="499.57" type="line"/>
      <point x="403.81" y="510.04"/>
      <point x="380.02" y="517.87"/>
      <point x="360.59" y="525.32" type="curve"/>
      <point x="380.02" y="532.76"/>
      <point x="403.8" y="540.59"/>
      <point x="435.82" y="551.06" type="curve"/>
      <point x="526.44" y="586.0" type="line" smooth="yes"/>
      <point x="532.11" y="588.18"/>
      <point x="534.74" y="592.31"/>
      <point x="534.74" y="597.16" type="curve" smooth="yes"/>
      <point x="534.74" y="600.1"/>
      <point x="533.77" y="603.3"/>
      <point x="531.93" y="606.49" type="curve" smooth="yes"/>
      <point x="488.61" y="681.53" type="line" smooth="yes"/>
      <point x="485.47" y="686.96"/>
      <point x="481.03" y="690.21"/>
      <point x="476.25" y="690.21" type="curve" smooth="yes"/>
      <point x="473.59" y="690.21"/>
      <point x="470.83" y="689.2"/>
      <point x="468.12" y="687.02" type="curve" smooth="yes"/>
      <point x="392.55" y="626.01" type="line"/>
      <point x="367.48" y="603.51"/>
      <point x="348.8" y="586.83"/>
      <point x="332.64" y="573.73" type="curve"/>
      <point x="335.91" y="594.28"/>
      <point x="341.01" y="618.79"/>
      <point x="347.96" y="651.76" type="curve"/>
      <point x="363.01" y="747.7" type="line" smooth="yes"/>
      <point x="364.52" y="757.33"/>
      <point x="357.76" y="762.7"/>
      <point x="348.01" y="762.7" type="curve" smooth="yes"/>
      <point x="261.36" y="762.7" type="line" smooth="yes"/>
      <point x="252.53" y="762.7"/>
      <point x="246.15" y="758.29"/>
      <point x="246.15" y="750.31" type="curve"/>
      <point x="246.36" y="747.7" type="line"/>
      <point x="261.41" y="651.76" type="line"/>
      <point x="268.36" y="618.79"/>
      <point x="273.46" y="594.28"/>
      <point x="276.73" y="573.73" type="curve"/>
      <point x="260.57" y="586.83"/>
      <point x="241.89" y="603.51"/>
      <point x="216.82" y="626.01" type="curve"/>
      <point x="141.24" y="687.02" type="line" smooth="yes"/>
      <point x="138.53" y="689.21"/>
      <point x="135.77" y="690.21"/>
      <point x="133.12" y="690.21" type="curve" smooth="yes"/>
      <point x="128.34" y="690.21"/>
      <point x="123.9" y="686.96"/>
      <point x="120.76" y="681.53" type="curve" smooth="yes"/>
      <point x="77.44" y="606.49" type="line" smooth="yes"/>
      <point x="75.6" y="603.3"/>
      <point x="74.63" y="600.1"/>
      <point x="74.63" y="597.16" type="curve" smooth="yes"/>
      <point x="74.63" y="592.31"/>
      <point x="77.26" y="588.18"/>
      <point x="82.92" y="586.0" type="curve" smooth="yes"/>
      <point x="173.55" y="551.06" type="line"/>
      <point x="205.57" y="540.59"/>
      <point x="229.35" y="532.76"/>
      <point x="248.78" y="525.31" type="curve"/>
      <point x="229.35" y="517.87"/>
      <point x="205.57" y="510.04"/>
      <point x="173.55" y="499.57" type="curve"/>
      <point x="82.92" y="464.62" type="line" smooth="yes"/>
      <point x="77.26" y="462.44"/>
      <point x="74.63" y="458.31"/>
      <point x="74.63" y="453.47" type="curve" smooth="yes"/>
      <point x="74.63" y="450.53"/>
      <point x="75.6" y="447.33"/>
      <point x="77.44" y="444.14" type="curve" smooth="yes"/>
      <point x="120.76" y="369.1" type="line" smooth="yes"/>
      <point x="123.9" y="363.67"/>
      <point x="128.34" y="360.42"/>
      <point x="133.12" y="360.42" type="curve" smooth="yes"/>
      <point x="135.77" y="360.42"/>
      <point x="138.53" y="361.42"/>
      <point x="141.24" y="363.42" type="curve"/>
      <point x="216.82" y="424.44" type="line"/>
      <point x="241.89" y="446.94"/>
      <point x="260.57" y="463.62"/>
      <point x="276.73" y="476.71" type="curve"/>
      <point x="273.46" y="456.17"/>
      <point x="268.36" y="431.66"/>
      <point x="261.41" y="398.69" type="curve"/>
      <point x="246.36" y="302.73" type="line" smooth="yes"/>
      <point x="244.85" y="293.1"/>
      <point x="251.61" y="287.74"/>
      <point x="261.36" y="287.74" type="curve" smooth="yes"/>
      <point x="348.01" y="287.74" type="line" smooth="yes"/>
      <point x="356.84" y="287.74"/>
      <point x="363.22" y="292.14"/>
      <point x="363.22" y="300.13" type="curve"/>
      <point x="363.01" y="302.73" type="line"/>
      <point x="347.96" y="398.69" type="line"/>
      <point x="341.01" y="431.66"/>
      <point x="335.91" y="456.17"/>
      <point x="332.64" y="476.71" type="curve"/>
      <point x="348.8" y="463.62"/>
      <point x="367.48" y="446.94"/>
      <point x="392.55" y="424.44" type="curve"/>
      <point x="468.12" y="363.43" type="line" smooth="yes"/>
      <point x="470.83" y="361.24"/>
      <point x="473.59" y="360.24"/>
      <point x="476.25" y="360.24" type="curve" smooth="yes"/>
      <point x="481.03" y="360.24"/>
      <point x="485.47" y="363.49"/>
      <point x="488.61" y="368.92" type="curve" smooth="yes"/>
      <point x="531.93" y="443.96" type="line" smooth="yes"/>
      <point x="533.77" y="447.14"/>
      <point x="534.74" y="450.34"/>
      <point x="534.74" y="453.28" type="curve" smooth="yes"/>
      <point x="534.74" y="458.13"/>
      <point x="532.11" y="462.26"/>
    </contour>
  </outline>
</glyph>
<glyph name="plus" format="2">
  <advance width="600"/>
  <unicode hex="002B"/>
  <outline>
    <contour>
      <point x="547" y="312" type="curve" smooth="yes"/>
      <point x="348" y="312" type="line"/>
      <point x="348" y="511" type="line" smooth="yes"/>
      <point x="348" y="521"/>
      <point x="343" y="526"/>
      <point x="333" y="526" type="curve" smooth="yes"/>
      <point x="267" y="526" type="line" smooth="yes"/>
      <point x="257" y="526"/>
      <point x="252" y="521"/>
      <point x="252" y="511" type="curve" smooth="yes"/>
      <point x="252" y="312" type="line"/>
      <point x="53" y="312" type="line" smooth="yes"/>
      <point x="43" y="312"/>
      <point x="38" y="307"/>
      <point x="38" y="297" type="curve" smooth="yes"/>
      <point x="38" y="231" type="line" smooth="yes"/>
      <point x="38" y="221"/>
      <point x="43" y="216"/>
      <point x="53" y="216" type="curve" smooth="yes"/>
      <point x="252" y="216" type="line"/>
      <point x="252" y="17" type="line" smooth="yes"/>
      <point x="252" y="7"/>
      <point x="257" y="2"/>
      <point x="267" y="2" type="curve" smooth="yes"/>
      <point x="333" y="2" type="line" smooth="yes"/>
      <point x="343" y="2"/>
      <point x="348" y="7"/>
      <point x="348" y="17" type="curve" smooth="yes"/>
      <point x="348" y="216" type="line"/>
      <point x="547" y="216" type="line" smooth="yes"/>
      <point x="557" y="216"/>
      <point x="562" y="221"/>
      <point x="562" y="231" type="curve" smooth="yes"/>
      <point x="562" y="297" type="line" smooth="yes"/>
      <point x="562" y="307"/>
      <point x="557" y="312"/>
    </contour>
  </outline>
</glyph>
<glyph name="comma" format="2">
  <advance width="237.0"/>
  <unicode hex="002C"/>
  <note>
comma
</note>
  <outline>
    <contour>
      <point x="202.95" y="117.07" type="curve" smooth="yes"/>
      <point x="163.86" y="155.97" type="line" smooth="yes"/>
      <point x="151.18" y="168.65"/>
      <point x="138.02" y="174.97"/>
      <point x="124.86" y="174.97" type="curve" smooth="yes"/>
      <point x="111.77" y="174.97"/>
      <point x="98.68" y="168.72"/>
      <point x="86.08" y="156.25" type="curve" smooth="yes"/>
      <point x="46.98" y="117.16" type="line" smooth="yes"/>
      <point x="34.34" y="104.52"/>
      <point x="28.02" y="91.39"/>
      <point x="28.02" y="78.27" type="curve" smooth="yes"/>
      <point x="28.02" y="65.14"/>
      <point x="34.34" y="52.02"/>
      <point x="46.98" y="39.38" type="curve" smooth="yes"/>
      <point x="86.08" y="0.28" type="line" smooth="yes"/>
      <point x="91.81" y="-5.45"/>
      <point x="94.48" y="-13.26"/>
      <point x="94.48" y="-22.49" type="curve" smooth="yes"/>
      <point x="94.48" y="-53.98"/>
      <point x="63.26" y="-101.87"/>
      <point x="15.39" y="-139.0" type="curve"/>
      <point x="44.3" y="-152.0"/>
      <point x="50.17" y="-154.0"/>
      <point x="55.08" y="-154.0" type="curve" smooth="yes"/>
      <point x="78.12" y="-154.0"/>
      <point x="204.38" y="-47.0"/>
      <point x="220.79" y="32.0" type="curve" smooth="yes"/>
      <point x="223.07" y="42.99"/>
      <point x="224.09" y="52.83"/>
      <point x="224.09" y="61.65" type="curve" smooth="yes"/>
      <point x="224.09" y="87.71"/>
      <point x="215.14" y="104.97"/>
    </contour>
  </outline>
</glyph>
<glyph name="hyphen" format="2">
  <advance width="521.0"/>
  <unicode hex="002D"/>
  <note>
hyphen
</note>
  <outline>
    <contour>
      <point x="22.61" y="307.34" type="curve" smooth="yes"/>
      <point x="22.61" y="220.7" type="line" smooth="yes"/>
      <point x="22.61" y="210.95"/>
      <point x="27.86" y="205.7"/>
      <point x="37.61" y="205.7" type="curve" smooth="yes"/>
      <point x="482.39" y="205.7" type="line" smooth="yes"/>
      <point x="492.14" y="205.7"/>
      <point x="497.39" y="210.95"/>
      <point x="497.39" y="220.7" type="curve" smooth="yes"/>
      <point x="497.39" y="307.34" type="line" smooth="yes"/>
      <point x="497.39" y="317.09"/>
      <point x="492.14" y="322.34"/>
      <point x="482.39" y="322.34" type="curve" smooth="yes"/>
      <point x="37.61" y="322.34" type="line" smooth="yes"/>
      <point x="27.86" y="322.34"/>
      <point x="22.61" y="317.09"/>
    </contour>
  </outline>
</glyph>
<glyph name="period" format="2">
  <advance width="354.0"/>
  <unicode hex="002E"/>
  <note>
period
</note>
  <outline>
    <contour>
      <point x="138.58" y="156.25" type="curve" smooth="yes"/>
      <point x="99.48" y="116.88" type="line" smooth="yes"/>
      <point x="86.84" y="104.24"/>
      <point x="80.52" y="91.11"/>
      <point x="80.52" y="77.99" type="curve" smooth="yes"/>
      <point x="80.52" y="64.86"/>
      <point x="86.84" y="51.73"/>
      <point x="99.48" y="39.1" type="curve" smooth="yes"/>
      <point x="138.58" y="0.0" type="line" smooth="yes"/>
      <point x="151.22" y="-12.5"/>
      <point x="164.35" y="-18.75"/>
      <point x="177.47" y="-18.75" type="curve" smooth="yes"/>
      <point x="190.6" y="-18.75"/>
      <point x="203.72" y="-12.5"/>
      <point x="216.36" y="0.0" type="curve" smooth="yes"/>
      <point x="255.46" y="39.1" type="line" smooth="yes"/>
      <point x="268.1" y="51.73"/>
      <point x="274.41" y="64.86"/>
      <point x="274.41" y="77.99" type="curve" smooth="yes"/>
      <point x="274.41" y="91.11"/>
      <point x="268.1" y="104.24"/>
      <point x="255.46" y="116.88" type="curve" smooth="yes"/>
      <point x="216.36" y="155.97" type="line" smooth="yes"/>
      <point x="203.68" y="168.65"/>
      <point x="190.52" y="174.97"/>
      <point x="177.36" y="174.97" type="curve" smooth="yes"/>
      <point x="164.27" y="174.97"/>
      <point x="151.18" y="168.72"/>
    </contour>
  </outline>
</glyph>
<glyph name="slash" format="2">
  <advance width="500.0"/>
  <unicode hex="002F"/>
  <note>
slash
</note>
  <outline>
    <contour>
      <point x="368.83" y="770.37" type="curve" smooth="yes"/>
      <point x="49.04" y="-119.0" type="line" smooth="yes"/>
      <point x="45.11" y="-130.0"/>
      <point x="50.04" y="-136.0"/>
      <point x="61.14" y="-136.0" type="curve" smooth="yes"/>
      <point x="142.71" y="-136.0" type="line" smooth="yes"/>
      <point x="151.43" y="-136.0"/>
      <point x="156.63" y="-133.0"/>
      <point x="159.84" y="-124.0" type="curve" smooth="yes"/>
      <point x="479.63" y="765.2" type="line" smooth="yes"/>
      <point x="483.38" y="775.64"/>
      <point x="478.62" y="782.41"/>
      <point x="467.52" y="782.41" type="curve" smooth="yes"/>
      <point x="385.95" y="782.41" type="line" smooth="yes"/>
      <point x="377.24" y="782.41"/>
      <point x="371.78" y="778.57"/>
    </contour>
  </outline>
</glyph>
<glyph name="zero" format="2">
  <advance width="600.0"/>
  <unicode hex="0030"/>
  <note>
zero
</note>
  <outline>
    <contour>
      <point x="301.95" y="550.19" type="curve" smooth="yes"/>
      <point x="149.73" y="550.19"/>
      <point x="26.91" y="422.79"/>
      <point x="26.33" y="266.21" type="curve" smooth="yes"/>
      <point x="26.33" y="109.37"/>
      <point x="149.66" y="-18.0"/>
      <point x="301.95" y="-18.0" type="curve" smooth="yes"/>
      <point x="454.18" y="-18.0"/>
      <point x="577.58" y="109.37"/>
      <point x="577.58" y="266.21" type="curve" smooth="yes"/>
      <point x="577.58" y="423.05"/>
      <point x="454.18" y="550.19"/>
    </contour>
    <contour>
      <point x="301.35" y="474.17" type="curve" smooth="yes"/>
      <point x="393.47" y="474.17"/>
      <point x="436.35" y="369.65"/>
      <point x="436.35" y="268.19" type="curve" smooth="yes"/>
      <point x="436.35" y="166.72"/>
      <point x="396.38" y="52.35"/>
      <point x="304.26" y="52.35" type="curve" smooth="yes"/>
      <point x="212.09" y="52.19"/>
      <point x="166.25" y="162.25"/>
      <point x="166.25" y="263.71" type="curve" smooth="yes"/>
      <point x="166.25" y="365.18"/>
      <point x="209.24" y="474.17"/>
    </contour>
  </outline>
</glyph>
<glyph name="one" format="2">
  <advance width="422.0"/>
  <unicode hex="0031"/>
  <note>
one
</note>
  <outline>
    <contour>
      <point x="289.01" y="155.08" type="curve" smooth="yes"/>
      <point x="289.01" y="357.66" type="line" smooth="yes"/>
      <point x="289.01" y="442.0"/>
      <point x="306.67" y="476.73"/>
      <point x="361.56" y="480.73" type="curve" smooth="yes"/>
      <point x="382.48" y="482.61" type="line"/>
      <point x="392.23" y="482.61"/>
      <point x="397.48" y="487.86"/>
      <point x="397.48" y="497.61" type="curve" smooth="yes"/>
      <point x="397.48" y="527.73" type="line" smooth="yes"/>
      <point x="397.48" y="537.48"/>
      <point x="392.23" y="542.73"/>
      <point x="382.48" y="542.73" type="curve"/>
      <point x="266.65" y="522.73"/>
      <point x="150.83" y="512.73"/>
      <point x="35.0" y="512.73" type="curve" smooth="yes"/>
      <point x="25.25" y="512.73"/>
      <point x="20.0" y="507.48"/>
      <point x="20.0" y="497.73" type="curve" smooth="yes"/>
      <point x="20.0" y="467.61" type="line" smooth="yes"/>
      <point x="20.0" y="457.86"/>
      <point x="25.25" y="452.61"/>
      <point x="35.0" y="452.61" type="curve" smooth="yes"/>
      <point x="116.29" y="452.61"/>
      <point x="129.21" y="412.0"/>
      <point x="129.21" y="357.66" type="curve" smooth="yes"/>
      <point x="129.21" y="155.08" type="line" smooth="yes"/>
      <point x="129.21" y="102.44"/>
      <point x="112.64" y="62.57"/>
      <point x="61.73" y="60.12" type="curve"/>
      <point x="35.0" y="60.12" type="line" smooth="yes"/>
      <point x="25.25" y="60.12"/>
      <point x="20.0" y="54.87"/>
      <point x="20.0" y="45.12" type="curve" smooth="yes"/>
      <point x="20.0" y="15.0" type="line" smooth="yes"/>
      <point x="20.0" y="5.25"/>
      <point x="25.25" y="0.0"/>
      <point x="35.0" y="0.0" type="curve" smooth="yes"/>
      <point x="382.48" y="0.0" type="line" smooth="yes"/>
      <point x="392.23" y="0.0"/>
      <point x="397.48" y="5.25"/>
      <point x="397.48" y="15.0" type="curve" smooth="yes"/>
      <point x="397.48" y="45.12" type="line" smooth="yes"/>
      <point x="397.48" y="54.87"/>
      <point x="392.23" y="60.12"/>
      <point x="382.48" y="60.12" type="curve" smooth="yes"/>
      <point x="356.49" y="60.12" type="line"/>
      <point x="305.58" y="62.57"/>
      <point x="289.01" y="102.44"/>
    </contour>
  </outline>
</glyph>
<glyph name="two" format="2">
  <advance width="531.0"/>
  <unicode hex="0032"/>
  <note>
two
</note>
  <outline>
    <contour>
      <point x="513.15" y="138.9" type="curve" smooth="yes"/>
      <point x="482.21" y="156.83" type="line" smooth="yes"/>
      <point x="479.17" y="158.59"/>
      <point x="476.29" y="159.47"/>
      <point x="473.63" y="159.47" type="curve" smooth="yes"/>
      <point x="468.91" y="159.47"/>
      <point x="464.86" y="156.73"/>
      <point x="461.72" y="151.34" type="curve" smooth="yes"/>
      <point x="458.6" y="145.97" type="line" smooth="yes"/>
      <point x="423.35" y="85.43"/>
      <point x="303.18" y="87.17"/>
      <point x="234.33" y="85.27" type="curve" smooth="yes"/>
      <point x="140.95" y="82.69" type="line"/>
      <point x="231.96" y="201.34"/>
      <point x="452.8" y="245.51"/>
      <point x="452.8" y="398.56" type="curve" smooth="yes"/>
      <point x="452.8" y="497.93"/>
      <point x="378.57" y="545.78"/>
      <point x="242.9" y="545.78" type="curve" smooth="yes"/>
      <point x="119.5" y="545.78"/>
      <point x="36.48" y="477.33"/>
      <point x="36.48" y="405.68" type="curve" smooth="yes"/>
      <point x="36.48" y="393.73"/>
      <point x="38.79" y="381.69"/>
      <point x="43.6" y="369.87" type="curve" smooth="yes"/>
      <point x="47.97" y="359.13"/>
      <point x="53.81" y="354.16"/>
      <point x="68.68" y="350.81" type="curve" smooth="yes"/>
      <point x="173.57" y="327.21" type="line" smooth="yes"/>
      <point x="180.3" y="325.69"/>
      <point x="183.39" y="330.26"/>
      <point x="183.39" y="336.38" type="curve" smooth="yes"/>
      <point x="183.39" y="339.83"/>
      <point x="182.4" y="343.77"/>
      <point x="180.54" y="347.38" type="curve" smooth="yes"/>
      <point x="165.15" y="377.16"/>
      <point x="158.84" y="401.23"/>
      <point x="158.84" y="420.47" type="curve" smooth="yes"/>
      <point x="158.84" y="470.64"/>
      <point x="201.75" y="487.95"/>
      <point x="238.45" y="487.95" type="curve" smooth="yes"/>
      <point x="282.25" y="487.95"/>
      <point x="308.77" y="458.13"/>
      <point x="308.77" y="399.62" type="curve" smooth="yes"/>
      <point x="308.77" y="277.85"/>
      <point x="93.38" y="199.97"/>
      <point x="23.46" y="58.76" type="curve" smooth="yes"/>
      <point x="21.95" y="55.71"/>
      <point x="20.0" y="50.2"/>
      <point x="20.0" y="45.57" type="curve" smooth="yes"/>
      <point x="20.0" y="15.03" type="line" smooth="yes"/>
      <point x="20.0" y="5.28"/>
      <point x="25.25" y="0.03"/>
      <point x="35.0" y="0.03" type="curve" smooth="yes"/>
      <point x="399.79" y="0.03" type="line" smooth="yes"/>
      <point x="407.01" y="0.03"/>
      <point x="412.75" y="0.0"/>
      <point x="418.39" y="-5.0" type="curve" smooth="yes"/>
      <point x="423.8" y="-10.0" type="line"/>
      <point x="426.52" y="-12.18"/>
      <point x="429.33" y="-13.17"/>
      <point x="432.03" y="-13.17" type="curve" smooth="yes"/>
      <point x="436.79" y="-13.17"/>
      <point x="441.24" y="-10.1"/>
      <point x="444.29" y="-5.0" type="curve" smooth="yes"/>
      <point x="518.64" y="118.41" type="line" smooth="yes"/>
      <point x="520.46" y="121.42"/>
      <point x="521.34" y="124.29"/>
      <point x="521.34" y="126.96" type="curve" smooth="yes"/>
      <point x="521.34" y="131.69"/>
      <point x="518.54" y="135.78"/>
    </contour>
  </outline>
</glyph>
<glyph name="three" format="2">
  <advance width="539.0"/>
  <unicode hex="0033"/>
  <note>
three
</note>
  <outline>
    <contour>
      <point x="62.34" y="351.21" type="curve" smooth="yes"/>
      <point x="167.23" y="327.21" type="line" smooth="yes"/>
      <point x="173.96" y="325.69"/>
      <point x="177.05" y="330.26"/>
      <point x="177.05" y="336.38" type="curve" smooth="yes"/>
      <point x="177.05" y="339.83"/>
      <point x="176.06" y="343.77"/>
      <point x="174.2" y="347.38" type="curve" smooth="yes"/>
      <point x="158.81" y="377.16"/>
      <point x="152.5" y="401.23"/>
      <point x="152.5" y="420.47" type="curve" smooth="yes"/>
      <point x="152.5" y="470.64"/>
      <point x="195.41" y="487.95"/>
      <point x="232.11" y="487.95" type="curve" smooth="yes"/>
      <point x="275.91" y="487.95"/>
      <point x="302.43" y="458.13"/>
      <point x="302.43" y="399.62" type="curve" smooth="yes"/>
      <point x="302.43" y="327.91"/>
      <point x="239.4" y="264.37"/>
      <point x="126.32" y="227.74" type="curve" smooth="yes"/>
      <point x="123.33" y="226.77"/>
      <point x="120.92" y="225.52"/>
      <point x="119.1" y="224.03" type="curve"/>
      <point x="114.99" y="221.58"/>
      <point x="112.9" y="217.72"/>
      <point x="112.9" y="212.68" type="curve"/>
      <point x="113.34" y="208.44" type="line"/>
      <point x="119.13" y="178.99" type="line" smooth="yes"/>
      <point x="120.71" y="170.95"/>
      <point x="125.36" y="166.86"/>
      <point x="132.55" y="166.86" type="curve"/>
      <point x="137.09" y="167.34" type="line"/>
      <point x="165.83" y="173.04"/>
      <point x="192.91" y="176.21"/>
      <point x="217.56" y="176.21" type="curve" smooth="yes"/>
      <point x="299.6" y="176.21"/>
      <point x="354.77" y="141.07"/>
      <point x="354.77" y="46.98" type="curve" smooth="yes"/>
      <point x="354.77" y="-72.89"/>
      <point x="270.9" y="-125.33"/>
      <point x="161.67" y="-125.33" type="curve" smooth="yes"/>
      <point x="133.32" y="-125.33"/>
      <point x="103.27" y="-121.8"/>
      <point x="72.53" y="-115.0" type="curve" smooth="yes"/>
      <point x="63.0" y="-113.19"/>
      <point x="57.43" y="-118.77"/>
      <point x="57.43" y="-127.29" type="curve"/>
      <point x="57.61" y="-130.0" type="line"/>
      <point x="62.8" y="-173.0" type="line" smooth="yes"/>
      <point x="63.92" y="-182.0"/>
      <point x="69.39" y="-186.0"/>
      <point x="78.71" y="-187.0" type="curve" smooth="yes"/>
      <point x="110.48" y="-191.0"/>
      <point x="141.65" y="-193.0"/>
      <point x="171.81" y="-193.0" type="curve" smooth="yes"/>
      <point x="360.42" y="-193.0"/>
      <point x="508.79" y="-114.64"/>
      <point x="508.79" y="44.0" type="curve" smooth="yes"/>
      <point x="508.79" y="155.19"/>
      <point x="427.49" y="219.76"/>
      <point x="312.66" y="236.57" type="curve"/>
      <point x="391.56" y="266.12"/>
      <point x="446.47" y="315.62"/>
      <point x="446.47" y="399.25" type="curve" smooth="yes"/>
      <point x="446.47" y="498.43"/>
      <point x="372.1" y="546.18"/>
      <point x="236.56" y="546.18" type="curve" smooth="yes"/>
      <point x="113.3" y="546.18"/>
      <point x="30.0" y="477.89"/>
      <point x="30.0" y="406.31" type="curve" smooth="yes"/>
      <point x="30.0" y="394.29"/>
      <point x="32.35" y="382.17"/>
      <point x="37.26" y="370.27" type="curve" smooth="yes"/>
      <point x="41.63" y="359.53"/>
      <point x="47.47" y="354.56"/>
    </contour>
  </outline>
</glyph>
<glyph name="four" format="2">
  <advance width="565.0"/>
  <unicode hex="0034"/>
  <note>
four
</note>
  <outline>
    <contour>
      <point x="539.85" y="16.0" type="curve" smooth="yes"/>
      <point x="539.85" y="73.12" type="line" smooth="yes"/>
      <point x="539.85" y="82.87"/>
      <point x="534.6" y="88.12"/>
      <point x="524.85" y="88.12" type="curve" smooth="yes"/>
      <point x="413.27" y="88.12" type="line"/>
      <point x="413.27" y="210.06" type="line" smooth="yes"/>
      <point x="413.27" y="219.05"/>
      <point x="408.86" y="223.63"/>
      <point x="401.17" y="223.63" type="curve"/>
      <point x="396.68" y="223.18" type="line"/>
      <point x="308.22" y="206.49" type="line" smooth="yes"/>
      <point x="299.35" y="204.81"/>
      <point x="295.15" y="198.99"/>
      <point x="295.15" y="189.96" type="curve" smooth="yes"/>
      <point x="295.15" y="88.12" type="line"/>
      <point x="116.68" y="88.12" type="line"/>
      <point x="185.86" y="169.43"/>
      <point x="370.25" y="350.53"/>
      <point x="370.25" y="469.77" type="curve" smooth="yes"/>
      <point x="370.25" y="481.1"/>
      <point x="368.58" y="491.87"/>
      <point x="365.0" y="501.94" type="curve" smooth="yes"/>
      <point x="361.12" y="512.86"/>
      <point x="355.28" y="518.43"/>
      <point x="340.36" y="521.56" type="curve" smooth="yes"/>
      <point x="196.49" y="551.76" type="line" smooth="yes"/>
      <point x="189.61" y="553.21"/>
      <point x="186.51" y="548.61"/>
      <point x="186.51" y="542.4" type="curve" smooth="yes"/>
      <point x="186.51" y="539.09"/>
      <point x="187.4" y="535.31"/>
      <point x="189.06" y="531.76" type="curve" smooth="yes"/>
      <point x="204.71" y="498.36"/>
      <point x="211.5" y="467.79"/>
      <point x="211.5" y="439.04" type="curve" smooth="yes"/>
      <point x="211.5" y="317.96"/>
      <point x="91.17" y="229.04"/>
      <point x="5.45" y="96.57" type="curve" smooth="yes"/>
      <point x="1.5" y="90.38"/>
      <point x="0.0" y="85.31"/>
      <point x="0.0" y="78.0" type="curve" smooth="yes"/>
      <point x="0.0" y="16.0" type="line" smooth="yes"/>
      <point x="0.0" y="6.0"/>
      <point x="5.25" y="1.0"/>
      <point x="15.0" y="1.0" type="curve" smooth="yes"/>
      <point x="295.15" y="1.0" type="line"/>
      <point x="295.15" y="-185.0" type="line" smooth="yes"/>
      <point x="295.15" y="-195.0"/>
      <point x="300.4" y="-200.0"/>
      <point x="310.15" y="-200.0" type="curve" smooth="yes"/>
      <point x="398.27" y="-200.0" type="line" smooth="yes"/>
      <point x="408.02" y="-200.0"/>
      <point x="413.27" y="-195.0"/>
      <point x="413.27" y="-185.0" type="curve" smooth="yes"/>
      <point x="413.27" y="1.0" type="line"/>
      <point x="524.85" y="1.0" type="line" smooth="yes"/>
      <point x="534.6" y="1.0"/>
      <point x="539.85" y="6.0"/>
    </contour>
  </outline>
</glyph>
<glyph name="five" format="2">
  <advance width="552.0"/>
  <unicode hex="0035"/>
  <note>
five
</note>
  <outline>
    <contour>
      <point x="164.08" y="303.1" type="curve"/>
      <point x="198.24" y="460.26" type="line"/>
      <point x="411.3" y="460.26" type="line" smooth="yes"/>
      <point x="418.52" y="460.26"/>
      <point x="424.26" y="460.23"/>
      <point x="429.9" y="455.23" type="curve" smooth="yes"/>
      <point x="435.31" y="450.23" type="line"/>
      <point x="438.02" y="448.06"/>
      <point x="440.83" y="447.06"/>
      <point x="443.53" y="447.06" type="curve" smooth="yes"/>
      <point x="448.29" y="447.06"/>
      <point x="452.73" y="450.13"/>
      <point x="455.8" y="455.23" type="curve" smooth="yes"/>
      <point x="519.26" y="560.56" type="line" smooth="yes"/>
      <point x="521.08" y="563.58"/>
      <point x="521.96" y="566.44"/>
      <point x="521.96" y="569.11" type="curve" smooth="yes"/>
      <point x="521.96" y="573.84"/>
      <point x="519.16" y="577.93"/>
      <point x="513.77" y="581.05" type="curve" smooth="yes"/>
      <point x="482.83" y="598.98" type="line" smooth="yes"/>
      <point x="479.79" y="600.74"/>
      <point x="476.91" y="601.62"/>
      <point x="474.25" y="601.62" type="curve" smooth="yes"/>
      <point x="469.53" y="601.62"/>
      <point x="465.48" y="598.88"/>
      <point x="462.34" y="593.49" type="curve" smooth="yes"/>
      <point x="459.22" y="588.12" type="line" smooth="yes"/>
      <point x="436.26" y="548.7"/>
      <point x="314.7" y="546.27"/>
      <point x="265.84" y="545.5" type="curve" smooth="yes"/>
      <point x="118.54" y="543.19" type="line" smooth="yes"/>
      <point x="109.45" y="543.04"/>
      <point x="104.12" y="538.52"/>
      <point x="102.41" y="529.59" type="curve" smooth="yes"/>
      <point x="47.9" y="245.34" type="line" smooth="yes"/>
      <point x="46.08" y="235.85"/>
      <point x="50.04" y="230.34"/>
      <point x="57.92" y="230.34" type="curve"/>
      <point x="62.76" y="230.93" type="line"/>
      <point x="85.33" y="236.07"/>
      <point x="116.21" y="240.87"/>
      <point x="148.81" y="240.87" type="curve" smooth="yes"/>
      <point x="230.23" y="240.87"/>
      <point x="322.34" y="210.92"/>
      <point x="322.34" y="81.4" type="curve" smooth="yes"/>
      <point x="322.34" y="-63.94"/>
      <point x="230.52" y="-121.08"/>
      <point x="117.27" y="-121.08" type="curve" smooth="yes"/>
      <point x="89.17" y="-121.08"/>
      <point x="59.76" y="-117.56"/>
      <point x="30.1" y="-111.0" type="curve" smooth="yes"/>
      <point x="20.57" y="-109.19"/>
      <point x="15.0" y="-114.77"/>
      <point x="15.0" y="-123.29" type="curve"/>
      <point x="15.18" y="-126.0" type="line"/>
      <point x="20.37" y="-169.0" type="line" smooth="yes"/>
      <point x="21.49" y="-178.0"/>
      <point x="26.96" y="-182.0"/>
      <point x="36.28" y="-183.0" type="curve" smooth="yes"/>
      <point x="67.45" y="-186.92"/>
      <point x="98.41" y="-188.92"/>
      <point x="128.66" y="-188.92" type="curve" smooth="yes"/>
      <point x="322.13" y="-188.92"/>
      <point x="486.36" y="-107.06"/>
      <point x="486.36" y="78.0" type="curve" smooth="yes"/>
      <point x="486.36" y="227.76"/>
      <point x="366.95" y="307.14"/>
      <point x="221.79" y="307.14" type="curve" smooth="yes"/>
      <point x="202.92" y="307.14"/>
      <point x="183.61" y="305.8"/>
    </contour>
  </outline>
</glyph>
<glyph name="six" format="2">
  <advance width="642.0"/>
  <unicode hex="0036"/>
  <note>
six
</note>
  <outline>
    <contour>
      <point x="472.41" y="543.1" type="curve"/>
      <point x="474.87" y="543.39" type="line"/>
      <point x="579.76" y="566.99" type="line" smooth="yes"/>
      <point x="594.63" y="570.34"/>
      <point x="600.47" y="575.31"/>
      <point x="604.84" y="586.05" type="curve" smooth="yes"/>
      <point x="609.75" y="597.95"/>
      <point x="612.1" y="610.07"/>
      <point x="612.1" y="622.09" type="curve" smooth="yes"/>
      <point x="612.1" y="693.67"/>
      <point x="528.8" y="761.96"/>
      <point x="405.54" y="761.96" type="curve" smooth="yes"/>
      <point x="109.42" y="761.96"/>
      <point x="30.0" y="483.46"/>
      <point x="30.0" y="303.48" type="curve" smooth="yes"/>
      <point x="30.0" y="270.28"/>
      <point x="32.7" y="240.43"/>
      <point x="37.25" y="216.3" type="curve" smooth="yes"/>
      <point x="38.06" y="211.93"/>
      <point x="38.98" y="207.56"/>
      <point x="40.03" y="203.18" type="curve" smooth="yes"/>
      <point x="72.71" y="74.49"/>
      <point x="195.78" y="-14.3"/>
      <point x="328.52" y="-14.3" type="curve" smooth="yes"/>
      <point x="345.2" y="-14.3"/>
      <point x="362.03" y="-12.9"/>
      <point x="378.86" y="-10.0" type="curve" smooth="yes"/>
      <point x="507.63" y="13.09"/>
      <point x="594.24" y="117.17"/>
      <point x="594.24" y="236.5" type="curve" smooth="yes"/>
      <point x="594.24" y="256.82"/>
      <point x="591.73" y="277.58"/>
      <point x="586.49" y="298.46" type="curve" smooth="yes"/>
      <point x="554.56" y="425.64"/>
      <point x="432.04" y="514.49"/>
      <point x="299.68" y="514.49" type="curve" smooth="yes"/>
      <point x="282.69" y="514.49"/>
      <point x="265.54" y="513.02"/>
      <point x="248.4" y="509.99" type="curve" smooth="yes"/>
      <point x="230.73" y="506.86"/>
      <point x="213.87" y="502.21"/>
      <point x="197.92" y="496.19" type="curve"/>
      <point x="226.52" y="601.01"/>
      <point x="288.41" y="694.13"/>
      <point x="409.99" y="694.13" type="curve" smooth="yes"/>
      <point x="446.69" y="694.13"/>
      <point x="489.6" y="682.04"/>
      <point x="489.6" y="634.77" type="curve" smooth="yes"/>
      <point x="489.6" y="616.64"/>
      <point x="483.29" y="593.34"/>
      <point x="467.9" y="563.56" type="curve" smooth="yes"/>
      <point x="463.16" y="554.39"/>
      <point x="464.12" y="543.1"/>
    </contour>
    <contour>
      <point x="266.66" y="437.26" type="curve" smooth="yes"/>
      <point x="274.02" y="438.56"/>
      <point x="281.18" y="439.19"/>
      <point x="288.14" y="439.19" type="curve" smooth="yes"/>
      <point x="367.36" y="439.19"/>
      <point x="420.13" y="358.14"/>
      <point x="441.56" y="272.8" type="curve" smooth="yes"/>
      <point x="448.0" y="247.13"/>
      <point x="451.67" y="220.86"/>
      <point x="451.67" y="195.94" type="curve" smooth="yes"/>
      <point x="451.67" y="130.71"/>
      <point x="426.58" y="74.74"/>
      <point x="360.6" y="63.06" type="curve" smooth="yes"/>
      <point x="353.18" y="61.73"/>
      <point x="345.96" y="61.1"/>
      <point x="338.95" y="61.1" type="curve" smooth="yes"/>
      <point x="259.81" y="61.1"/>
      <point x="207.11" y="142.23"/>
      <point x="185.71" y="227.52" type="curve" smooth="yes"/>
      <point x="180.41" y="248.87"/>
      <point x="176.59" y="283.91"/>
      <point x="176.54" y="325.64" type="curve"/>
      <point x="181.65" y="381.45"/>
      <point x="207.98" y="426.87"/>
    </contour>
  </outline>
</glyph>
<glyph name="seven" format="2">
  <advance width="582.0"/>
  <unicode hex="0037"/>
  <note>
seven
</note>
  <outline>
    <contour>
      <point x="547.25" y="545.54" type="curve" smooth="yes"/>
      <point x="147.4" y="545.54" type="line"/>
      <point x="145.6" y="545.48" type="line"/>
      <point x="130.66" y="545.48" type="line" smooth="yes"/>
      <point x="123.44" y="545.48"/>
      <point x="117.7" y="545.51"/>
      <point x="112.06" y="550.51" type="curve" smooth="yes"/>
      <point x="106.65" y="555.51" type="line"/>
      <point x="103.94" y="557.68"/>
      <point x="101.13" y="558.68"/>
      <point x="98.43" y="558.68" type="curve" smooth="yes"/>
      <point x="93.67" y="558.68"/>
      <point x="89.23" y="555.61"/>
      <point x="86.16" y="550.51" type="curve" smooth="yes"/>
      <point x="22.7" y="445.18" type="line" smooth="yes"/>
      <point x="20.89" y="442.17"/>
      <point x="20.0" y="439.3"/>
      <point x="20.0" y="436.63" type="curve" smooth="yes"/>
      <point x="20.0" y="431.9"/>
      <point x="22.8" y="427.81"/>
      <point x="28.19" y="424.69" type="curve" smooth="yes"/>
      <point x="59.13" y="406.76" type="line" smooth="yes"/>
      <point x="62.17" y="405.0"/>
      <point x="65.05" y="404.12"/>
      <point x="67.71" y="404.12" type="curve" smooth="yes"/>
      <point x="72.43" y="404.12"/>
      <point x="76.48" y="406.86"/>
      <point x="79.62" y="412.25" type="curve" smooth="yes"/>
      <point x="82.74" y="417.62" type="line" smooth="yes"/>
      <point x="105.7" y="457.04"/>
      <point x="227.25" y="459.46"/>
      <point x="276.12" y="460.24" type="curve" smooth="yes"/>
      <point x="475.56" y="463.42" type="line"/>
      <point x="403.87" y="379.15"/>
      <point x="73.99" y="-6.5"/>
      <point x="73.99" y="-145.85" type="curve" smooth="yes"/>
      <point x="73.99" y="-153.72"/>
      <point x="75.04" y="-160.8"/>
      <point x="77.25" y="-167.0" type="curve" smooth="yes"/>
      <point x="81.13" y="-178.0"/>
      <point x="86.89" y="-184.0"/>
      <point x="101.89" y="-186.0" type="curve"/>
      <point x="265.76" y="-217.0" type="line" smooth="yes"/>
      <point x="272.63" y="-218.31"/>
      <point x="275.73" y="-213.65"/>
      <point x="275.73" y="-207.48" type="curve" smooth="yes"/>
      <point x="275.73" y="-204.19"/>
      <point x="274.85" y="-200.47"/>
      <point x="273.19" y="-197.0" type="curve" smooth="yes"/>
      <point x="262.39" y="-173.96"/>
      <point x="257.57" y="-148.47"/>
      <point x="257.57" y="-121.19" type="curve" smooth="yes"/>
      <point x="257.57" y="57.53"/>
      <point x="464.76" y="312.75"/>
      <point x="556.79" y="454.97" type="curve" smooth="yes"/>
      <point x="560.74" y="461.16"/>
      <point x="562.25" y="466.23"/>
      <point x="562.25" y="473.54" type="curve" smooth="yes"/>
      <point x="562.25" y="530.54" type="line" smooth="yes"/>
      <point x="562.25" y="540.54"/>
      <point x="557.0" y="545.54"/>
    </contour>
  </outline>
</glyph>
<glyph name="eight" format="2">
  <advance width="558"/>
  <unicode hex="0038"/>
  <outline>
    <contour>
      <point x="283" y="765" type="curve" smooth="yes"/>
      <point x="148" y="765"/>
      <point x="46" y="684"/>
      <point x="46" y="567" type="curve" smooth="yes"/>
      <point x="46" y="473"/>
      <point x="104" y="411"/>
      <point x="166" y="371" type="curve"/>
      <point x="89" y="339"/>
      <point x="30" y="285"/>
      <point x="30" y="194" type="curve" smooth="yes"/>
      <point x="30" y="66"/>
      <point x="127" y="-10"/>
      <point x="273" y="-10" type="curve" smooth="yes"/>
      <point x="419" y="-10"/>
      <point x="528" y="68"/>
      <point x="528" y="194" type="curve" smooth="yes"/>
      <point x="528" y="292"/>
      <point x="473" y="354"/>
      <point x="389" y="400" type="curve"/>
      <point x="453" y="434"/>
      <point x="507" y="502"/>
      <point x="507" y="577" type="curve" smooth="yes"/>
      <point x="507" y="684"/>
      <point x="418" y="765"/>
    </contour>
    <contour>
      <point x="283" y="703" type="curve" smooth="yes"/>
      <point x="361" y="703"/>
      <point x="396" y="640"/>
      <point x="396" y="577" type="curve" smooth="yes"/>
      <point x="396" y="516"/>
      <point x="367" y="460"/>
      <point x="298" y="440" type="curve"/>
      <point x="251" y="456"/>
      <point x="174" y="508"/>
      <point x="174" y="578" type="curve" smooth="yes"/>
      <point x="174" y="661"/>
      <point x="219" y="703"/>
    </contour>
    <contour>
      <point x="257" y="326" type="curve"/>
      <point x="305" y="312"/>
      <point x="396" y="265"/>
      <point x="396" y="181" type="curve" smooth="yes"/>
      <point x="396" y="98"/>
      <point x="360" y="53"/>
      <point x="273" y="53" type="curve" smooth="yes"/>
      <point x="180" y="53"/>
      <point x="139" y="121"/>
      <point x="139" y="194" type="curve" smooth="yes"/>
      <point x="139" y="252"/>
      <point x="171" y="300"/>
    </contour>
  </outline>
</glyph>
<glyph name="nine" format="2">
  <advance width="618.0"/>
  <unicode hex="0039"/>
  <note>
nine
</note>
  <outline>
    <contour>
      <point x="165.35" y="184.55" type="curve"/>
      <point x="162.89" y="184.26" type="line"/>
      <point x="58.0" y="160.66" type="line" smooth="yes"/>
      <point x="43.13" y="157.31"/>
      <point x="37.29" y="152.34"/>
      <point x="32.92" y="141.6" type="curve" smooth="yes"/>
      <point x="28.06" y="129.73"/>
      <point x="25.72" y="117.66"/>
      <point x="25.72" y="105.68" type="curve" smooth="yes"/>
      <point x="25.72" y="34.14"/>
      <point x="108.9" y="-34.0"/>
      <point x="232.22" y="-34.0" type="curve" smooth="yes"/>
      <point x="535.81" y="-34.0"/>
      <point x="598.08" y="277.48"/>
      <point x="598.08" y="446.84" type="curve" smooth="yes"/>
      <point x="598.08" y="479.53"/>
      <point x="595.76" y="506.93"/>
      <point x="592.41" y="525.77" type="curve" smooth="yes"/>
      <point x="565.34" y="677.96"/>
      <point x="451.74" y="743.49"/>
      <point x="325.5" y="743.49" type="curve" smooth="yes"/>
      <point x="303.55" y="743.49"/>
      <point x="281.22" y="741.51"/>
      <point x="258.89" y="737.66" type="curve" smooth="yes"/>
      <point x="131.01" y="714.73"/>
      <point x="48.13" y="611.91"/>
      <point x="48.13" y="493.62" type="curve" smooth="yes"/>
      <point x="48.13" y="472.51"/>
      <point x="50.77" y="450.92"/>
      <point x="56.26" y="429.2" type="curve" smooth="yes"/>
      <point x="87.14" y="306.21"/>
      <point x="189.76" y="238.69"/>
      <point x="313.34" y="238.69" type="curve" smooth="yes"/>
      <point x="333.95" y="238.69"/>
      <point x="355.14" y="240.57"/>
      <point x="376.68" y="244.38" type="curve" smooth="yes"/>
      <point x="399.33" y="248.39"/>
      <point x="420.63" y="254.92"/>
      <point x="440.4" y="263.52" type="curve"/>
      <point x="416.71" y="143.07"/>
      <point x="359.18" y="33.52"/>
      <point x="227.77" y="33.52" type="curve" smooth="yes"/>
      <point x="191.07" y="33.52"/>
      <point x="148.16" y="45.61"/>
      <point x="148.16" y="92.88" type="curve" smooth="yes"/>
      <point x="148.16" y="111.01"/>
      <point x="154.47" y="134.31"/>
      <point x="169.86" y="164.09" type="curve" smooth="yes"/>
      <point x="174.6" y="173.26"/>
      <point x="173.64" y="184.55"/>
    </contour>
    <contour>
      <point x="330.39" y="314.53" type="curve" smooth="yes"/>
      <point x="257.21" y="314.53"/>
      <point x="216.99" y="372.04"/>
      <point x="196.2" y="454.86" type="curve" smooth="yes"/>
      <point x="189.75" y="480.53"/>
      <point x="186.09" y="506.92"/>
      <point x="186.09" y="531.99" type="curve" smooth="yes"/>
      <point x="186.09" y="605.03"/>
      <point x="217.21" y="666.8"/>
      <point x="301.28" y="666.8" type="curve" smooth="yes"/>
      <point x="406.26" y="666.8"/>
      <point x="454.79" y="536.27"/>
      <point x="454.79" y="460.53" type="curve" smooth="yes"/>
      <point x="454.79" y="392.68"/>
      <point x="429.54" y="314.53"/>
    </contour>
  </outline>
</glyph>
<glyph name="semicolon" format="2">
  <advance width="371.0"/>
  <unicode hex="003B"/>
  <note>
semicolon
</note>
  <outline>
    <contour>
      <point x="154.87" y="567.19" type="curve" smooth="yes"/>
      <point x="115.77" y="527.82" type="line" smooth="yes"/>
      <point x="103.13" y="515.18"/>
      <point x="96.81" y="502.05"/>
      <point x="96.81" y="488.93" type="curve" smooth="yes"/>
      <point x="96.81" y="475.8"/>
      <point x="103.13" y="462.68"/>
      <point x="115.77" y="450.04" type="curve" smooth="yes"/>
      <point x="154.87" y="410.94" type="line" smooth="yes"/>
      <point x="167.51" y="398.44"/>
      <point x="180.64" y="392.19"/>
      <point x="193.76" y="392.19" type="curve" smooth="yes"/>
      <point x="206.89" y="392.19"/>
      <point x="220.01" y="398.44"/>
      <point x="232.65" y="410.94" type="curve" smooth="yes"/>
      <point x="271.74" y="450.04" type="line" smooth="yes"/>
      <point x="284.38" y="462.68"/>
      <point x="290.7" y="475.8"/>
      <point x="290.7" y="488.93" type="curve" smooth="yes"/>
      <point x="290.7" y="502.05"/>
      <point x="284.38" y="515.18"/>
      <point x="271.74" y="527.82" type="curve" smooth="yes"/>
      <point x="232.65" y="566.91" type="line" smooth="yes"/>
      <point x="219.97" y="579.59"/>
      <point x="206.81" y="585.91"/>
      <point x="193.65" y="585.91" type="curve" smooth="yes"/>
      <point x="180.56" y="585.91"/>
      <point x="167.47" y="579.66"/>
    </contour>
    <contour>
      <point x="267.56" y="117.35" type="curve" smooth="yes"/>
      <point x="228.47" y="156.25" type="line" smooth="yes"/>
      <point x="215.79" y="168.93"/>
      <point x="202.63" y="175.25"/>
      <point x="189.47" y="175.25" type="curve" smooth="yes"/>
      <point x="176.38" y="175.25"/>
      <point x="163.29" y="169.0"/>
      <point x="150.69" y="156.53" type="curve" smooth="yes"/>
      <point x="111.59" y="117.44" type="line" smooth="yes"/>
      <point x="98.95" y="104.8"/>
      <point x="92.63" y="91.67"/>
      <point x="92.63" y="78.55" type="curve" smooth="yes"/>
      <point x="92.63" y="65.42"/>
      <point x="98.95" y="52.3"/>
      <point x="111.59" y="39.66" type="curve" smooth="yes"/>
      <point x="150.69" y="0.56" type="line" smooth="yes"/>
      <point x="156.42" y="-5.17"/>
      <point x="159.09" y="-12.98"/>
      <point x="159.09" y="-22.21" type="curve" smooth="yes"/>
      <point x="159.09" y="-53.7"/>
      <point x="127.87" y="-101.59"/>
      <point x="80.0" y="-138.72" type="curve"/>
      <point x="108.91" y="-151.72"/>
      <point x="114.78" y="-153.72"/>
      <point x="119.69" y="-153.72" type="curve" smooth="yes"/>
      <point x="142.73" y="-153.72"/>
      <point x="268.99" y="-46.72"/>
      <point x="285.4" y="32.28" type="curve" smooth="yes"/>
      <point x="287.68" y="43.27"/>
      <point x="288.7" y="53.11"/>
      <point x="288.7" y="61.93" type="curve" smooth="yes"/>
      <point x="288.7" y="87.99"/>
      <point x="279.75" y="105.25"/>
    </contour>
  </outline>
</glyph>
<glyph name="less" format="2">
  <advance width="600.0"/>
  <unicode hex="003C"/>
  <note>
less
</note>
  <outline>
    <contour>
      <point x="562.07" y="8.97" type="curve" smooth="yes"/>
      <point x="31.37" y="276.9" type="line" smooth="yes"/>
      <point x="25.76" y="279.73"/>
      <point x="22.95" y="283.43"/>
      <point x="22.95" y="287.13" type="curve" smooth="yes"/>
      <point x="22.95" y="290.84"/>
      <point x="25.76" y="294.54"/>
      <point x="31.37" y="297.37" type="curve" smooth="yes"/>
      <point x="562.07" y="565.3" type="line" smooth="yes"/>
      <point x="564.98" y="566.77"/>
      <point x="567.66" y="567.48"/>
      <point x="570.0" y="567.48" type="curve" smooth="yes"/>
      <point x="576.03" y="567.48"/>
      <point x="579.84" y="562.78"/>
      <point x="579.84" y="554.37" type="curve" smooth="yes"/>
      <point x="579.84" y="485.63" type="line" smooth="yes"/>
      <point x="579.84" y="477.22"/>
      <point x="576.47" y="471.75"/>
      <point x="568.97" y="467.96" type="curve" smooth="yes"/>
      <point x="210.79" y="287.13" type="line"/>
      <point x="568.97" y="106.31" type="line" smooth="yes"/>
      <point x="576.47" y="102.52"/>
      <point x="579.84" y="97.05"/>
      <point x="579.84" y="88.64" type="curve" smooth="yes"/>
      <point x="579.84" y="19.9" type="line" smooth="yes"/>
      <point x="579.84" y="11.49"/>
      <point x="576.03" y="6.79"/>
      <point x="570.0" y="6.79" type="curve" smooth="yes"/>
      <point x="567.66" y="6.79"/>
      <point x="564.99" y="7.5"/>
    </contour>
  </outline>
</glyph>
<glyph name="equal" format="2">
  <advance width="600.0"/>
  <unicode hex="003D"/>
  <note>
equal
</note>
  <outline>
    <contour>
      <point x="62.13" y="444.29" type="curve" smooth="yes"/>
      <point x="62.13" y="357.65" type="line" smooth="yes"/>
      <point x="62.13" y="347.9"/>
      <point x="67.38" y="342.65"/>
      <point x="77.13" y="342.65" type="curve" smooth="yes"/>
      <point x="521.92" y="342.65" type="line" smooth="yes"/>
      <point x="531.67" y="342.65"/>
      <point x="536.92" y="347.9"/>
      <point x="536.92" y="357.65" type="curve" smooth="yes"/>
      <point x="536.92" y="444.29" type="line" smooth="yes"/>
      <point x="536.92" y="454.04"/>
      <point x="531.67" y="459.29"/>
      <point x="521.92" y="459.29" type="curve" smooth="yes"/>
      <point x="77.13" y="459.29" type="line" smooth="yes"/>
      <point x="67.38" y="459.29"/>
      <point x="62.13" y="454.04"/>
    </contour>
    <contour>
      <point x="62.13" y="213.03" type="curve" smooth="yes"/>
      <point x="62.13" y="126.39" type="line" smooth="yes"/>
      <point x="62.13" y="116.64"/>
      <point x="67.38" y="111.39"/>
      <point x="77.13" y="111.39" type="curve" smooth="yes"/>
      <point x="521.92" y="111.39" type="line" smooth="yes"/>
      <point x="531.67" y="111.39"/>
      <point x="536.92" y="116.64"/>
      <point x="536.92" y="126.39" type="curve" smooth="yes"/>
      <point x="536.92" y="213.03" type="line" smooth="yes"/>
      <point x="536.92" y="222.78"/>
      <point x="531.67" y="228.03"/>
      <point x="521.92" y="228.03" type="curve" smooth="yes"/>
      <point x="77.13" y="228.03" type="line" smooth="yes"/>
      <point x="67.38" y="228.03"/>
      <point x="62.13" y="222.78"/>
    </contour>
  </outline>
</glyph>
<glyph name="greater" format="2">
  <advance width="600.0"/>
  <unicode hex="003E"/>
  <note>
greater
</note>
  <outline>
    <contour>
      <point x="40.72" y="8.97" type="curve" smooth="yes"/>
      <point x="571.42" y="276.9" type="line" smooth="yes"/>
      <point x="577.03" y="279.73"/>
      <point x="579.84" y="283.43"/>
      <point x="579.84" y="287.13" type="curve" smooth="yes"/>
      <point x="579.84" y="290.84"/>
      <point x="577.03" y="294.54"/>
      <point x="571.42" y="297.37" type="curve" smooth="yes"/>
      <point x="40.72" y="565.3" type="line" smooth="yes"/>
      <point x="37.81" y="566.77"/>
      <point x="35.13" y="567.48"/>
      <point x="32.79" y="567.48" type="curve" smooth="yes"/>
      <point x="26.76" y="567.48"/>
      <point x="22.95" y="562.78"/>
      <point x="22.95" y="554.37" type="curve" smooth="yes"/>
      <point x="22.95" y="485.63" type="line" smooth="yes"/>
      <point x="22.95" y="477.22"/>
      <point x="26.32" y="471.75"/>
      <point x="33.82" y="467.96" type="curve" smooth="yes"/>
      <point x="392.0" y="287.13" type="line"/>
      <point x="33.82" y="106.31" type="line" smooth="yes"/>
      <point x="26.32" y="102.52"/>
      <point x="22.95" y="97.05"/>
      <point x="22.95" y="88.64" type="curve" smooth="yes"/>
      <point x="22.95" y="19.9" type="line" smooth="yes"/>
      <point x="22.95" y="11.49"/>
      <point x="26.76" y="6.79"/>
      <point x="32.79" y="6.79" type="curve" smooth="yes"/>
      <point x="35.13" y="6.79"/>
      <point x="37.8" y="7.5"/>
    </contour>
  </outline>
</glyph>
<glyph name="question" format="2">
  <advance width="529.0"/>
  <unicode hex="003F"/>
  <note>
question
</note>
  <outline>
    <contour>
      <point x="59.85" y="625.3" type="curve" smooth="yes"/>
      <point x="164.74" y="601.58" type="line" smooth="yes"/>
      <point x="171.47" y="600.06"/>
      <point x="174.55" y="604.64"/>
      <point x="174.55" y="610.75" type="curve" smooth="yes"/>
      <point x="174.55" y="614.2"/>
      <point x="173.57" y="618.14"/>
      <point x="171.71" y="621.75" type="curve" smooth="yes"/>
      <point x="158.54" y="647.23"/>
      <point x="153.13" y="669.36"/>
      <point x="153.13" y="687.58" type="curve" smooth="yes"/>
      <point x="153.13" y="724.58"/>
      <point x="185.43" y="745.43"/>
      <point x="210.22" y="745.43" type="curve" smooth="yes"/>
      <point x="243.71" y="745.43"/>
      <point x="285.45" y="728.43"/>
      <point x="285.45" y="649.43" type="curve" smooth="yes"/>
      <point x="285.45" y="516.15"/>
      <point x="119.94" y="519.04"/>
      <point x="128.12" y="350.39" type="curve" smooth="yes"/>
      <point x="131.03" y="290.36"/>
      <point x="132.96" y="281.75"/>
      <point x="133.13" y="273.38" type="curve" smooth="yes"/>
      <point x="133.29" y="265.24"/>
      <point x="138.16" y="261.0"/>
      <point x="146.3" y="261.0" type="curve" smooth="yes"/>
      <point x="208.82" y="261.0" type="line" smooth="yes"/>
      <point x="216.96" y="261.0"/>
      <point x="221.83" y="265.24"/>
      <point x="221.99" y="273.38" type="curve" smooth="yes"/>
      <point x="222.16" y="281.76"/>
      <point x="223.0" y="290.31"/>
      <point x="223.0" y="350.41" type="curve" smooth="yes"/>
      <point x="223.0" y="512.5"/>
      <point x="428.81" y="473.39"/>
      <point x="428.81" y="647.62" type="curve" smooth="yes"/>
      <point x="428.81" y="730.45"/>
      <point x="361.69" y="800.27"/>
      <point x="206.21" y="800.27" type="curve" smooth="yes"/>
      <point x="100.09" y="800.27"/>
      <point x="24.24" y="754.36"/>
      <point x="24.24" y="694.14" type="curve" smooth="yes"/>
      <point x="24.24" y="678.34"/>
      <point x="27.77" y="661.56"/>
      <point x="34.76" y="644.36" type="curve" smooth="yes"/>
      <point x="39.13" y="633.63"/>
      <point x="44.97" y="628.65"/>
    </contour>
    <contour>
      <point x="138.58" y="156.37" type="curve" smooth="yes"/>
      <point x="99.48" y="117.0" type="line" smooth="yes"/>
      <point x="86.84" y="104.36"/>
      <point x="80.52" y="91.23"/>
      <point x="80.52" y="78.11" type="curve" smooth="yes"/>
      <point x="80.52" y="64.98"/>
      <point x="86.84" y="51.85"/>
      <point x="99.48" y="39.22" type="curve" smooth="yes"/>
      <point x="138.58" y="0.12" type="line" smooth="yes"/>
      <point x="151.22" y="-12.38"/>
      <point x="164.35" y="-18.63"/>
      <point x="177.47" y="-18.63" type="curve" smooth="yes"/>
      <point x="190.6" y="-18.63"/>
      <point x="203.72" y="-12.38"/>
      <point x="216.36" y="0.12" type="curve" smooth="yes"/>
      <point x="255.46" y="39.22" type="line" smooth="yes"/>
      <point x="268.1" y="51.85"/>
      <point x="274.41" y="64.98"/>
      <point x="274.41" y="78.11" type="curve" smooth="yes"/>
      <point x="274.41" y="91.23"/>
      <point x="268.1" y="104.36"/>
      <point x="255.46" y="117.0" type="curve" smooth="yes"/>
      <point x="216.36" y="156.09" type="line" smooth="yes"/>
      <point x="203.68" y="168.77"/>
      <point x="190.52" y="175.09"/>
      <point x="177.36" y="175.09" type="curve" smooth="yes"/>
      <point x="164.27" y="175.09"/>
      <point x="151.18" y="168.84"/>
    </contour>
  </outline>
</glyph>
<glyph name="at" format="2">
  <advance width="963.0"/>
  <unicode hex="0040"/>
  <note>
at
</note>
  <outline>
    <contour>
      <point x="602.1" y="-120.0" type="curve"/>
      <point x="580.77" y="-47.0" type="line"/>
      <point x="550.29" y="-55.0"/>
      <point x="518.6" y="-59.0"/>
      <point x="485.79" y="-59.0" type="curve" smooth="yes"/>
      <point x="270.22" y="-59.0"/>
      <point x="96.0" y="115.35"/>
      <point x="96.0" y="330.9" type="curve" smooth="yes"/>
      <point x="96.0" y="546.46"/>
      <point x="270.23" y="720.69"/>
      <point x="485.79" y="720.69" type="curve" smooth="yes"/>
      <point x="721.18" y="720.69"/>
      <point x="865.58" y="546.62"/>
      <point x="865.58" y="330.9" type="curve" smooth="yes"/>
      <point x="865.58" y="245.67"/>
      <point x="828.59" y="180.52"/>
      <point x="758.33" y="184.59" type="curve"/>
      <point x="710.5" y="189.81"/>
      <point x="702.31" y="233.29"/>
      <point x="701.13" y="279.57" type="curve"/>
      <point x="701.13" y="564.09" type="line"/>
      <point x="701.14" y="578.98" type="line"/>
      <point x="701.14" y="586.45" type="line"/>
      <point x="701.13" y="596.09" type="line"/>
      <point x="701.13" y="597.55"/>
      <point x="701.05" y="597.67"/>
      <point x="699.8" y="597.67" type="curve" smooth="yes"/>
      <point x="697.52" y="597.66" type="line" smooth="yes"/>
      <point x="696.02" y="597.65"/>
      <point x="694.7" y="596.43"/>
      <point x="693.19" y="595.34" type="curve" smooth="yes"/>
      <point x="673.44" y="581.12"/>
      <point x="651.25" y="563.44"/>
      <point x="597.22" y="540.95" type="curve"/>
      <point x="556.58" y="577.72"/>
      <point x="502.95" y="597.31"/>
      <point x="439.66" y="597.31" type="curve" smooth="yes"/>
      <point x="322.33" y="597.31"/>
      <point x="213.02" y="523.03"/>
      <point x="213.02" y="343.26" type="curve" smooth="yes"/>
      <point x="213.02" y="155.5"/>
      <point x="340.57" y="87.2"/>
      <point x="428.1" y="87.2" type="curve" smooth="yes"/>
      <point x="527.9" y="87.2"/>
      <point x="565.81" y="150.64"/>
      <point x="576.36" y="176.61" type="curve"/>
      <point x="565.11" y="90.11" type="line"/>
      <point x="564.93" y="88.17"/>
      <point x="565.2" y="87.2"/>
      <point x="566.44" y="87.2" type="curve" smooth="yes"/>
      <point x="568.73" y="87.2" type="line" smooth="yes"/>
      <point x="571.56" y="87.2"/>
      <point x="575.23" y="88.17"/>
      <point x="576.94" y="89.14" type="curve"/>
      <point x="621.03" y="108.68"/>
      <point x="661.22" y="126.33"/>
      <point x="758.83" y="126.33" type="curve" smooth="yes"/>
      <point x="887.21" y="126.33"/>
      <point x="941.58" y="235.13"/>
      <point x="941.58" y="330.9" type="curve" smooth="yes"/>
      <point x="941.58" y="587.85"/>
      <point x="763.02" y="796.69"/>
      <point x="485.79" y="796.69" type="curve" smooth="yes"/>
      <point x="228.71" y="796.69"/>
      <point x="20.0" y="587.99"/>
      <point x="20.0" y="330.9" type="curve" smooth="yes"/>
      <point x="20.0" y="73.8"/>
      <point x="228.72" y="-135.0"/>
      <point x="485.79" y="-135.0" type="curve" smooth="yes"/>
      <point x="525.9" y="-135.0"/>
      <point x="565.0" y="-130.0"/>
    </contour>
    <contour>
      <point x="565.58" y="431.74" type="curve"/>
      <point x="565.58" y="236.79" type="line"/>
      <point x="565.58" y="236.79"/>
      <point x="544.05" y="172.85"/>
      <point x="472.07" y="172.85" type="curve" smooth="yes"/>
      <point x="392.56" y="172.85"/>
      <point x="337.88" y="250.26"/>
      <point x="337.88" y="374.64" type="curve" smooth="yes"/>
      <point x="337.88" y="454.97"/>
      <point x="363.37" y="532.8"/>
      <point x="457.26" y="532.8" type="curve" smooth="yes"/>
      <point x="533.8" y="532.8"/>
      <point x="558.07" y="470.82"/>
    </contour>
  </outline>
</glyph>
<glyph name="A" format="2">
  <advance width="786.0"/>
  <unicode hex="0041"/>
  <note>
A
</note>
  <outline>
    <contour>
      <point x="691.38" y="155.08" type="curve" smooth="yes"/>
      <point x="465.71" y="737.57" type="line" smooth="yes"/>
      <point x="462.57" y="745.68"/>
      <point x="457.27" y="749.56"/>
      <point x="448.56" y="749.56" type="curve" smooth="yes"/>
      <point x="328.2" y="749.56" type="line" smooth="yes"/>
      <point x="319.46" y="749.56"/>
      <point x="314.15" y="745.63"/>
      <point x="311.12" y="737.43" type="curve" smooth="yes"/>
      <point x="95.55" y="155.08" type="line" smooth="yes"/>
      <point x="76.25" y="102.93"/>
      <point x="64.89" y="60.0"/>
      <point x="21.0" y="60.0" type="curve" smooth="yes"/>
      <point x="11.25" y="60.0"/>
      <point x="6.0" y="54.75"/>
      <point x="6.0" y="45.0" type="curve" smooth="yes"/>
      <point x="6.0" y="15.0" type="line" smooth="yes"/>
      <point x="6.0" y="5.25"/>
      <point x="11.25" y="0.0"/>
      <point x="21.0" y="0.0" type="curve" smooth="yes"/>
      <point x="269.62" y="0.0" type="line" smooth="yes"/>
      <point x="279.37" y="0.0"/>
      <point x="284.62" y="5.25"/>
      <point x="284.62" y="15.0" type="curve" smooth="yes"/>
      <point x="284.62" y="45.0" type="line" smooth="yes"/>
      <point x="284.62" y="54.75"/>
      <point x="279.37" y="60.0"/>
      <point x="269.62" y="60.0" type="curve" smooth="yes"/>
      <point x="228.69" y="60.0"/>
      <point x="191.66" y="89.47"/>
      <point x="191.66" y="130.18" type="curve" smooth="yes"/>
      <point x="191.66" y="138.1"/>
      <point x="193.06" y="146.45"/>
      <point x="196.1" y="155.08" type="curve" smooth="yes"/>
      <point x="225.88" y="239.56" type="line"/>
      <point x="499.71" y="239.56" type="line"/>
      <point x="530.83" y="155.08" type="line" smooth="yes"/>
      <point x="534.15" y="146.05"/>
      <point x="535.68" y="137.36"/>
      <point x="535.68" y="129.14" type="curve" smooth="yes"/>
      <point x="535.68" y="88.79"/>
      <point x="498.9" y="60.0"/>
      <point x="458.28" y="60.0" type="curve" smooth="yes"/>
      <point x="448.53" y="60.0"/>
      <point x="443.28" y="54.75"/>
      <point x="443.28" y="45.0" type="curve" smooth="yes"/>
      <point x="443.28" y="15.0" type="line" smooth="yes"/>
      <point x="443.28" y="5.25"/>
      <point x="448.53" y="0.0"/>
      <point x="458.28" y="0.0" type="curve" smooth="yes"/>
      <point x="764.9" y="0.0" type="line" smooth="yes"/>
      <point x="774.65" y="0.0"/>
      <point x="779.9" y="5.25"/>
      <point x="779.9" y="15.0" type="curve" smooth="yes"/>
      <point x="779.9" y="45.0" type="line" smooth="yes"/>
      <point x="779.9" y="54.75"/>
      <point x="774.65" y="60.0"/>
      <point x="764.9" y="60.0" type="curve" smooth="yes"/>
      <point x="723.01" y="60.0"/>
      <point x="711.14" y="104.09"/>
    </contour>
    <contour>
      <point x="256.55" y="326.56" type="line"/>
      <point x="359.8" y="619.42" type="line"/>
      <point x="467.67" y="326.56" type="line"/>
    </contour>
  </outline>
</glyph>
<glyph name="B" format="2">
  <advance width="721.0"/>
  <unicode hex="0042"/>
  <note>
B
</note>
  <outline>
    <contour>
      <point x="366.62" y="750.04" type="curve" smooth="yes"/>
      <point x="45.0" y="750.04" type="line" smooth="yes"/>
      <point x="35.25" y="750.0"/>
      <point x="30.0" y="744.51"/>
      <point x="30.0" y="734.76" type="curve" smooth="yes"/>
      <point x="30.0" y="704.76" type="line" smooth="yes"/>
      <point x="30.0" y="695.01"/>
      <point x="35.25" y="689.76"/>
      <point x="45.0" y="689.76" type="curve" smooth="yes"/>
      <point x="46.0" y="689.76" type="line" smooth="yes"/>
      <point x="100.89" y="689.76"/>
      <point x="118.55" y="649.03"/>
      <point x="118.55" y="594.68" type="curve" smooth="yes"/>
      <point x="118.55" y="155.08" type="line" smooth="yes"/>
      <point x="118.55" y="100.73"/>
      <point x="100.89" y="60.0"/>
      <point x="46.01" y="60.0" type="curve" smooth="yes"/>
      <point x="45.0" y="60.0" type="line" smooth="yes"/>
      <point x="35.25" y="60.0"/>
      <point x="30.0" y="54.75"/>
      <point x="30.0" y="45.0" type="curve" smooth="yes"/>
      <point x="30.0" y="15.0" type="line" smooth="yes"/>
      <point x="30.0" y="5.25"/>
      <point x="35.25" y="0.0"/>
      <point x="45.0" y="0.0" type="curve" smooth="yes"/>
      <point x="412.42" y="0.0" type="line" smooth="yes"/>
      <point x="574.62" y="0.0"/>
      <point x="679.23" y="106.95"/>
      <point x="679.23" y="221.3" type="curve" smooth="yes"/>
      <point x="679.23" y="315.56"/>
      <point x="634.26" y="394.39"/>
      <point x="512.64" y="429.21" type="curve"/>
      <point x="585.02" y="464.93"/>
      <point x="613.72" y="518.71"/>
      <point x="613.72" y="568.97" type="curve" smooth="yes"/>
      <point x="613.72" y="680.32"/>
      <point x="496.86" y="750.04"/>
    </contour>
    <contour>
      <point x="335.15" y="448.37" type="curve" smooth="yes"/>
      <point x="272.35" y="448.37" type="line"/>
      <point x="272.35" y="689.76" type="line"/>
      <point x="338.68" y="689.76" type="line" smooth="yes"/>
      <point x="417.46" y="689.76"/>
      <point x="463.72" y="641.52"/>
      <point x="463.72" y="568.97" type="curve" smooth="yes"/>
      <point x="463.72" y="502.42"/>
      <point x="430.8" y="448.37"/>
    </contour>
    <contour>
      <point x="368.71" y="60.23" type="curve" smooth="yes"/>
      <point x="343.94" y="60.23" type="line"/>
      <point x="294.5" y="63.58"/>
      <point x="278.35" y="103.1"/>
      <point x="278.35" y="155.08" type="curve" smooth="yes"/>
      <point x="278.35" y="377.37" type="line"/>
      <point x="336.43" y="377.37" type="line" smooth="yes"/>
      <point x="469.81" y="377.37"/>
      <point x="529.23" y="331.85"/>
      <point x="529.23" y="221.3" type="curve" smooth="yes"/>
      <point x="529.23" y="128.74"/>
      <point x="468.69" y="60.23"/>
    </contour>
  </outline>
</glyph>
<glyph name="C" format="2">
  <advance width="749"/>
  <unicode hex="0043"/>
  <anchor x="407" y="0" name="bottom"/>
  <anchor x="401" y="750" name="top"/>
  <outline>
    <contour>
      <point x="730" y="240" type="curve" smooth="yes"/>
      <point x="695" y="256" type="line" smooth="yes"/>
      <point x="689" y="259"/>
      <point x="686" y="260"/>
      <point x="682" y="260" type="curve" smooth="yes"/>
      <point x="675" y="260"/>
      <point x="669" y="256"/>
      <point x="665" y="247" type="curve" smooth="yes"/>
      <point x="633" y="175"/>
      <point x="571" y="84"/>
      <point x="423" y="84" type="curve" smooth="yes"/>
      <point x="274" y="84"/>
      <point x="206" y="217"/>
      <point x="206" y="411" type="curve" smooth="yes"/>
      <point x="206" y="523"/>
      <point x="253" y="683"/>
      <point x="396" y="683" type="curve" smooth="yes"/>
      <point x="510" y="683"/>
      <point x="543" y="593"/>
      <point x="543" y="522" type="curve" smooth="yes"/>
      <point x="543" y="515"/>
      <point x="541" y="492"/>
      <point x="541" y="489" type="curve" smooth="yes"/>
      <point x="541" y="482"/>
      <point x="545" y="479"/>
      <point x="553" y="479" type="curve" smooth="yes"/>
      <point x="559" y="479"/>
      <point x="566" y="481"/>
      <point x="571" y="483" type="curve" smooth="yes"/>
      <point x="693" y="526" type="line" smooth="yes"/>
      <point x="704" y="530"/>
      <point x="710" y="536"/>
      <point x="710" y="546" type="curve" smooth="yes"/>
      <point x="710" y="590"/>
      <point x="643" y="762"/>
      <point x="404" y="762" type="curve" smooth="yes"/>
      <point x="116" y="762"/>
      <point x="35" y="534"/>
      <point x="35" y="367" type="curve" smooth="yes"/>
      <point x="35" y="152"/>
      <point x="167" y="-13"/>
      <point x="407" y="-13" type="curve" smooth="yes"/>
      <point x="600" y="-13"/>
      <point x="699" y="115"/>
      <point x="742" y="219" type="curve" smooth="yes"/>
      <point x="743" y="222"/>
      <point x="744" y="225"/>
      <point x="744" y="227" type="curve" smooth="yes"/>
      <point x="744" y="233"/>
      <point x="738" y="236"/>
    </contour>
  </outline>
</glyph>
<glyph name="D" format="2">
  <advance width="790.0"/>
  <unicode hex="0044"/>
  <note>
D
</note>
  <outline>
    <contour>
      <point x="352.62" y="749.76" type="curve" smooth="yes"/>
      <point x="45.0" y="749.76" type="line" smooth="yes"/>
      <point x="35.25" y="750.0"/>
      <point x="30.0" y="744.51"/>
      <point x="30.0" y="734.76" type="curve" smooth="yes"/>
      <point x="30.0" y="704.76" type="line" smooth="yes"/>
      <point x="30.0" y="695.01"/>
      <point x="35.25" y="689.76"/>
      <point x="45.0" y="689.76" type="curve" smooth="yes"/>
      <point x="46.0" y="689.76" type="line" smooth="yes"/>
      <point x="100.89" y="689.76"/>
      <point x="118.55" y="649.03"/>
      <point x="118.55" y="594.68" type="curve" smooth="yes"/>
      <point x="118.55" y="155.08" type="line" smooth="yes"/>
      <point x="118.55" y="102.6"/>
      <point x="102.08" y="62.81"/>
      <point x="51.52" y="60.14" type="curve" smooth="yes"/>
      <point x="45.0" y="60.0" type="line" smooth="yes"/>
      <point x="35.25" y="60.0"/>
      <point x="30.0" y="54.75"/>
      <point x="30.0" y="45.0" type="curve" smooth="yes"/>
      <point x="30.0" y="15.0" type="line" smooth="yes"/>
      <point x="30.0" y="5.25"/>
      <point x="35.25" y="0.0"/>
      <point x="45.0" y="0.0" type="curve" smooth="yes"/>
      <point x="380.61" y="0.0" type="line" smooth="yes"/>
      <point x="642.8" y="0.0"/>
      <point x="755.23" y="166.94"/>
      <point x="755.23" y="376.29" type="curve" smooth="yes"/>
      <point x="755.23" y="612.64"/>
      <point x="582.86" y="749.76"/>
    </contour>
    <contour>
      <point x="278.35" y="160.08" type="curve" smooth="yes"/>
      <point x="278.35" y="689.76" type="line"/>
      <point x="324.68" y="689.76" type="line" smooth="yes"/>
      <point x="503.46" y="689.76"/>
      <point x="603.23" y="573.85"/>
      <point x="603.23" y="376.29" type="curve" smooth="yes"/>
      <point x="603.23" y="179.74"/>
      <point x="547.35" y="65.23"/>
      <point x="352.37" y="65.23" type="curve" smooth="yes"/>
      <point x="279.88" y="65.23"/>
      <point x="278.35" y="105.73"/>
    </contour>
  </outline>
</glyph>
<glyph name="E" format="2">
  <advance width="755"/>
  <unicode hex="0045"/>
  <anchor x="374" y="0" name="bottom"/>
  <anchor x="592" y="0" name="ogonek"/>
  <anchor x="365" y="750" name="top"/>
  <outline>
    <contour>
      <point x="726" y="214" type="curve" smooth="yes"/>
      <point x="694" y="233" type="line" smooth="yes"/>
      <point x="691" y="235"/>
      <point x="689" y="235"/>
      <point x="686" y="235" type="curve" smooth="yes"/>
      <point x="680" y="235"/>
      <point x="676" y="232"/>
      <point x="673" y="227" type="curve" smooth="yes"/>
      <point x="670" y="221" type="line" smooth="yes"/>
      <point x="614" y="109"/>
      <point x="559" y="71"/>
      <point x="412" y="71" type="curve" smooth="yes"/>
      <point x="347" y="71" type="line" smooth="yes"/>
      <point x="302" y="71"/>
      <point x="278" y="104"/>
      <point x="278" y="166" type="curve" smooth="yes"/>
      <point x="278" y="364" type="line"/>
      <point x="366" y="364" type="line" smooth="yes"/>
      <point x="427" y="364"/>
      <point x="461" y="342"/>
      <point x="461" y="297" type="curve" smooth="yes"/>
      <point x="461" y="291" type="line" smooth="yes"/>
      <point x="461" y="281"/>
      <point x="466" y="276"/>
      <point x="476" y="276" type="curve" smooth="yes"/>
      <point x="506" y="276" type="line" smooth="yes"/>
      <point x="516" y="276"/>
      <point x="521" y="281"/>
      <point x="521" y="291" type="curve" smooth="yes"/>
      <point x="521" y="518" type="line" smooth="yes"/>
      <point x="521" y="528"/>
      <point x="516" y="533"/>
      <point x="506" y="533" type="curve" smooth="yes"/>
      <point x="476" y="533" type="line" smooth="yes"/>
      <point x="466" y="533"/>
      <point x="461" y="528"/>
      <point x="461" y="518" type="curve" smooth="yes"/>
      <point x="461" y="511" type="line" smooth="yes"/>
      <point x="461" y="467"/>
      <point x="426" y="444"/>
      <point x="366" y="444" type="curve" smooth="yes"/>
      <point x="278" y="444" type="line"/>
      <point x="278" y="679" type="line"/>
      <point x="440" y="679" type="line" smooth="yes"/>
      <point x="517" y="679"/>
      <point x="559" y="655"/>
      <point x="600" y="586" type="curve" smooth="yes"/>
      <point x="603" y="581" type="line" smooth="yes"/>
      <point x="606" y="575"/>
      <point x="610" y="572"/>
      <point x="615" y="572" type="curve" smooth="yes"/>
      <point x="618" y="572"/>
      <point x="621" y="573"/>
      <point x="626" y="576" type="curve" smooth="yes"/>
      <point x="666" y="598" type="line" smooth="yes"/>
      <point x="671" y="601"/>
      <point x="674" y="605"/>
      <point x="674" y="610" type="curve" smooth="yes"/>
      <point x="674" y="613"/>
      <point x="673" y="616"/>
      <point x="671" y="619" type="curve" smooth="yes"/>
      <point x="592" y="755" type="line" smooth="yes"/>
      <point x="589" y="760"/>
      <point x="584" y="763"/>
      <point x="579" y="763" type="curve" smooth="yes"/>
      <point x="576" y="763"/>
      <point x="573" y="762"/>
      <point x="571" y="760" type="curve" smooth="yes"/>
      <point x="565" y="755" type="line" smooth="yes"/>
      <point x="560" y="751"/>
      <point x="556" y="750"/>
      <point x="546" y="750" type="curve" smooth="yes"/>
      <point x="45" y="750" type="line" smooth="yes"/>
      <point x="35" y="750"/>
      <point x="30" y="744"/>
      <point x="30" y="734" type="curve" smooth="yes"/>
      <point x="30" y="704" type="line" smooth="yes"/>
      <point x="30" y="695"/>
      <point x="36" y="689"/>
      <point x="45" y="689" type="curve" smooth="yes"/>
      <point x="46" y="689" type="line" smooth="yes"/>
      <point x="95" y="689"/>
      <point x="119" y="657"/>
      <point x="119" y="594" type="curve" smooth="yes"/>
      <point x="119" y="155" type="line" smooth="yes"/>
      <point x="119" y="91"/>
      <point x="95" y="60"/>
      <point x="47" y="60" type="curve" smooth="yes"/>
      <point x="45" y="60" type="line" smooth="yes"/>
      <point x="36" y="60"/>
      <point x="30" y="55"/>
      <point x="30" y="45" type="curve" smooth="yes"/>
      <point x="30" y="15" type="line" smooth="yes"/>
      <point x="30" y="5"/>
      <point x="35" y="0"/>
      <point x="45" y="0" type="curve" smooth="yes"/>
      <point x="592" y="0" type="line" smooth="yes"/>
      <point x="604" y="0"/>
      <point x="608" y="-1"/>
      <point x="612" y="-5" type="curve" smooth="yes"/>
      <point x="617" y="-10" type="line" smooth="yes"/>
      <point x="620" y="-13"/>
      <point x="623" y="-14"/>
      <point x="626" y="-14" type="curve" smooth="yes"/>
      <point x="631" y="-14"/>
      <point x="635" y="-11"/>
      <point x="638" y="-5" type="curve" smooth="yes"/>
      <point x="732" y="193" type="line" smooth="yes"/>
      <point x="734" y="197"/>
      <point x="735" y="200"/>
      <point x="735" y="203" type="curve" smooth="yes"/>
      <point x="735" y="208"/>
      <point x="731" y="211"/>
    </contour>
  </outline>
</glyph>
<glyph name="F" format="2">
  <advance width="694.0"/>
  <unicode hex="0046"/>
  <note>
F
</note>
  <outline>
    <contour>
      <point x="671.48" y="619.04" type="curve" smooth="yes"/>
      <point x="591.78" y="755.43" type="line" smooth="yes"/>
      <point x="588.68" y="760.53"/>
      <point x="584.1" y="763.6"/>
      <point x="579.18" y="763.6" type="curve" smooth="yes"/>
      <point x="576.38" y="763.6"/>
      <point x="573.47" y="762.61"/>
      <point x="570.67" y="760.43" type="curve"/>
      <point x="565.1" y="755.43" type="line" smooth="yes"/>
      <point x="559.29" y="750.03"/>
      <point x="553.37" y="750.0"/>
      <point x="545.94" y="750.0" type="curve" smooth="yes"/>
      <point x="45.0" y="750.0" type="line" smooth="yes"/>
      <point x="35.25" y="750.0"/>
      <point x="30.0" y="744.51"/>
      <point x="30.0" y="734.76" type="curve" smooth="yes"/>
      <point x="30.0" y="704.76" type="line" smooth="yes"/>
      <point x="30.0" y="695.01"/>
      <point x="35.25" y="689.76"/>
      <point x="45.0" y="689.76" type="curve" smooth="yes"/>
      <point x="46.0" y="689.76" type="line" smooth="yes"/>
      <point x="100.89" y="689.76"/>
      <point x="118.55" y="649.03"/>
      <point x="118.55" y="594.68" type="curve" smooth="yes"/>
      <point x="118.55" y="155.08" type="line" smooth="yes"/>
      <point x="118.55" y="102.44"/>
      <point x="101.98" y="62.57"/>
      <point x="51.07" y="60.12" type="curve"/>
      <point x="45.09" y="60.12" type="line" smooth="yes"/>
      <point x="35.34" y="60.12"/>
      <point x="30.09" y="54.87"/>
      <point x="30.09" y="45.12" type="curve" smooth="yes"/>
      <point x="30.09" y="15.0" type="line" smooth="yes"/>
      <point x="30.09" y="5.25"/>
      <point x="35.34" y="0.0"/>
      <point x="45.09" y="0.0" type="curve" smooth="yes"/>
      <point x="352.56" y="0.0" type="line" smooth="yes"/>
      <point x="362.31" y="0.0"/>
      <point x="367.56" y="5.25"/>
      <point x="367.56" y="15.0" type="curve" smooth="yes"/>
      <point x="367.56" y="45.12" type="line" smooth="yes"/>
      <point x="367.56" y="54.87"/>
      <point x="362.31" y="60.12"/>
      <point x="352.56" y="60.12" type="curve" smooth="yes"/>
      <point x="345.83" y="60.12" type="line"/>
      <point x="294.92" y="62.57"/>
      <point x="278.35" y="102.44"/>
      <point x="278.35" y="155.08" type="curve" smooth="yes"/>
      <point x="278.35" y="354.53" type="line"/>
      <point x="365.87" y="354.53" type="line" smooth="yes"/>
      <point x="418.44" y="354.53"/>
      <point x="458.27" y="338.01"/>
      <point x="460.82" y="287.23" type="curve"/>
      <point x="460.82" y="281.06" type="line" smooth="yes"/>
      <point x="460.82" y="271.31"/>
      <point x="466.07" y="266.06"/>
      <point x="475.82" y="266.06" type="curve" smooth="yes"/>
      <point x="505.95" y="266.06" type="line" smooth="yes"/>
      <point x="515.7" y="266.06"/>
      <point x="520.95" y="271.31"/>
      <point x="520.95" y="281.06" type="curve" smooth="yes"/>
      <point x="520.95" y="508.54" type="line" smooth="yes"/>
      <point x="520.95" y="518.29"/>
      <point x="515.7" y="523.54"/>
      <point x="505.95" y="523.54" type="curve" smooth="yes"/>
      <point x="475.82" y="523.54" type="line" smooth="yes"/>
      <point x="466.07" y="523.54"/>
      <point x="460.82" y="518.29"/>
      <point x="460.82" y="508.54" type="curve" smooth="yes"/>
      <point x="460.82" y="501.62" type="line"/>
      <point x="458.27" y="450.85"/>
      <point x="418.44" y="434.33"/>
      <point x="365.87" y="434.33" type="curve" smooth="yes"/>
      <point x="272.35" y="434.33" type="line"/>
      <point x="272.35" y="678.94" type="line"/>
      <point x="420.3" y="678.94" type="line" smooth="yes"/>
      <point x="501.45" y="678.94"/>
      <point x="561.88" y="651.47"/>
      <point x="599.62" y="586.64" type="curve" smooth="yes"/>
      <point x="602.84" y="581.11" type="line" smooth="yes"/>
      <point x="606.07" y="575.56"/>
      <point x="610.25" y="572.74"/>
      <point x="615.11" y="572.74" type="curve" smooth="yes"/>
      <point x="617.85" y="572.74"/>
      <point x="620.81" y="573.64"/>
      <point x="623.95" y="575.46" type="curve" smooth="yes"/>
      <point x="665.82" y="597.93" type="line" smooth="yes"/>
      <point x="671.38" y="601.15"/>
      <point x="674.22" y="605.33"/>
      <point x="674.22" y="610.2" type="curve" smooth="yes"/>
      <point x="674.22" y="612.95"/>
      <point x="673.32" y="615.91"/>
    </contour>
  </outline>
</glyph>
<glyph name="G" format="2">
  <advance width="772"/>
  <unicode hex="0047"/>
  <anchor x="396" y="0" name="bottom"/>
  <anchor x="386" y="750" name="top"/>
  <outline>
    <contour>
      <point x="206" y="411" type="curve" smooth="yes"/>
      <point x="206" y="572"/>
      <point x="281" y="683"/>
      <point x="396" y="683" type="curve" smooth="yes"/>
      <point x="494" y="683"/>
      <point x="543" y="614"/>
      <point x="543" y="522" type="curve" smooth="yes"/>
      <point x="543" y="505"/>
      <point x="541" y="496"/>
      <point x="541" y="489" type="curve" smooth="yes"/>
      <point x="541" y="480"/>
      <point x="547" y="479"/>
      <point x="553" y="479" type="curve" smooth="yes"/>
      <point x="559" y="479"/>
      <point x="565" y="481"/>
      <point x="571" y="483" type="curve" smooth="yes"/>
      <point x="693" y="526" type="line" smooth="yes"/>
      <point x="704" y="530"/>
      <point x="710" y="534"/>
      <point x="710" y="546" type="curve" smooth="yes"/>
      <point x="710" y="588"/>
      <point x="645" y="762"/>
      <point x="404" y="762" type="curve" smooth="yes"/>
      <point x="117" y="762"/>
      <point x="35" y="535"/>
      <point x="35" y="367" type="curve" smooth="yes"/>
      <point x="35" y="153"/>
      <point x="173" y="-13"/>
      <point x="397" y="-13" type="curve" smooth="yes"/>
      <point x="549" y="-13"/>
      <point x="657" y="64"/>
      <point x="703" y="171" type="curve"/>
      <point x="703" y="279" type="line" smooth="yes"/>
      <point x="703" y="302"/>
      <point x="710" y="312"/>
      <point x="729" y="312" type="curve" smooth="yes"/>
      <point x="737" y="312" type="line" smooth="yes"/>
      <point x="747" y="312"/>
      <point x="752" y="317"/>
      <point x="752" y="327" type="curve" smooth="yes"/>
      <point x="752" y="357" type="line" smooth="yes"/>
      <point x="752" y="366"/>
      <point x="747" y="372"/>
      <point x="737" y="372" type="curve" smooth="yes"/>
      <point x="422" y="372" type="line" smooth="yes"/>
      <point x="413" y="372"/>
      <point x="407" y="367"/>
      <point x="407" y="357" type="curve" smooth="yes"/>
      <point x="407" y="327" type="line" smooth="yes"/>
      <point x="407" y="317"/>
      <point x="413" y="312"/>
      <point x="422" y="312" type="curve" smooth="yes"/>
      <point x="429" y="312" type="line" smooth="yes"/>
      <point x="481" y="312"/>
      <point x="536" y="310"/>
      <point x="536" y="197" type="curve" smooth="yes"/>
      <point x="536" y="145" type="line" smooth="yes"/>
      <point x="536" y="98"/>
      <point x="466" y="84"/>
      <point x="422" y="84" type="curve" smooth="yes"/>
      <point x="267" y="84"/>
      <point x="206" y="263"/>
    </contour>
  </outline>
</glyph>
<glyph name="H" format="2">
  <advance width="898.0"/>
  <unicode hex="0048"/>
  <note>
H
</note>
  <outline>
    <contour>
      <point x="779.59" y="155.08" type="curve" smooth="yes"/>
      <point x="779.59" y="594.92" type="line" smooth="yes"/>
      <point x="779.59" y="647.56"/>
      <point x="796.16" y="687.43"/>
      <point x="847.07" y="689.88" type="curve"/>
      <point x="853.05" y="689.88" type="line" smooth="yes"/>
      <point x="862.8" y="689.88"/>
      <point x="868.05" y="695.13"/>
      <point x="868.05" y="704.88" type="curve" smooth="yes"/>
      <point x="868.05" y="735.0" type="line" smooth="yes"/>
      <point x="868.05" y="744.75"/>
      <point x="862.8" y="750.0"/>
      <point x="853.05" y="750.0" type="curve" smooth="yes"/>
      <point x="545.57" y="750.0" type="line" smooth="yes"/>
      <point x="535.82" y="750.0"/>
      <point x="530.57" y="744.75"/>
      <point x="530.57" y="735.0" type="curve" smooth="yes"/>
      <point x="530.57" y="704.88" type="line" smooth="yes"/>
      <point x="530.57" y="695.13"/>
      <point x="535.82" y="689.88"/>
      <point x="545.57" y="689.88" type="curve" smooth="yes"/>
      <point x="552.31" y="689.88" type="line"/>
      <point x="603.22" y="687.43"/>
      <point x="619.79" y="647.56"/>
      <point x="619.79" y="594.92" type="curve" smooth="yes"/>
      <point x="619.79" y="424.33" type="line"/>
      <point x="278.26" y="424.33" type="line"/>
      <point x="278.26" y="594.92" type="line" smooth="yes"/>
      <point x="278.26" y="647.56"/>
      <point x="294.83" y="687.43"/>
      <point x="345.74" y="689.88" type="curve"/>
      <point x="352.48" y="689.88" type="line" smooth="yes"/>
      <point x="362.23" y="689.88"/>
      <point x="367.48" y="695.13"/>
      <point x="367.48" y="704.88" type="curve" smooth="yes"/>
      <point x="367.48" y="735.0" type="line" smooth="yes"/>
      <point x="367.48" y="744.75"/>
      <point x="362.23" y="750.0"/>
      <point x="352.48" y="750.0" type="curve" smooth="yes"/>
      <point x="45.0" y="750.0" type="line" smooth="yes"/>
      <point x="35.25" y="750.0"/>
      <point x="30.0" y="744.75"/>
      <point x="30.0" y="735.0" type="curve" smooth="yes"/>
      <point x="30.0" y="704.88" type="line" smooth="yes"/>
      <point x="30.0" y="695.13"/>
      <point x="35.25" y="689.88"/>
      <point x="45.0" y="689.88" type="curve" smooth="yes"/>
      <point x="50.98" y="689.88" type="line"/>
      <point x="101.89" y="687.43"/>
      <point x="118.46" y="647.56"/>
      <point x="118.46" y="594.92" type="curve" smooth="yes"/>
      <point x="118.46" y="155.08" type="line" smooth="yes"/>
      <point x="118.46" y="102.44"/>
      <point x="101.89" y="62.57"/>
      <point x="50.98" y="60.12" type="curve"/>
      <point x="45.0" y="60.12" type="line" smooth="yes"/>
      <point x="35.25" y="60.12"/>
      <point x="30.0" y="54.87"/>
      <point x="30.0" y="45.12" type="curve" smooth="yes"/>
      <point x="30.0" y="15.0" type="line" smooth="yes"/>
      <point x="30.0" y="5.25"/>
      <point x="35.25" y="0.0"/>
      <point x="45.0" y="0.0" type="curve" smooth="yes"/>
      <point x="352.48" y="0.0" type="line" smooth="yes"/>
      <point x="362.23" y="0.0"/>
      <point x="367.48" y="5.25"/>
      <point x="367.48" y="15.0" type="curve" smooth="yes"/>
      <point x="367.48" y="45.12" type="line" smooth="yes"/>
      <point x="367.48" y="54.87"/>
      <point x="362.23" y="60.12"/>
      <point x="352.48" y="60.12" type="curve" smooth="yes"/>
      <point x="345.74" y="60.12" type="line"/>
      <point x="294.83" y="62.57"/>
      <point x="278.26" y="102.44"/>
      <point x="278.26" y="155.08" type="curve" smooth="yes"/>
      <point x="278.26" y="344.53" type="line"/>
      <point x="619.79" y="344.53" type="line"/>
      <point x="619.79" y="155.08" type="line" smooth="yes"/>
      <point x="619.79" y="102.44"/>
      <point x="603.22" y="62.57"/>
      <point x="552.31" y="60.12" type="curve"/>
      <point x="545.57" y="60.12" type="line" smooth="yes"/>
      <point x="535.82" y="60.12"/>
      <point x="530.57" y="54.87"/>
      <point x="530.57" y="45.12" type="curve" smooth="yes"/>
      <point x="530.57" y="15.0" type="line" smooth="yes"/>
      <point x="530.57" y="5.25"/>
      <point x="535.82" y="0.0"/>
      <point x="545.57" y="0.0" type="curve" smooth="yes"/>
      <point x="853.05" y="0.0" type="line" smooth="yes"/>
      <point x="862.8" y="0.0"/>
      <point x="868.05" y="5.25"/>
      <point x="868.05" y="15.0" type="curve" smooth="yes"/>
      <point x="868.05" y="45.12" type="line" smooth="yes"/>
      <point x="868.05" y="54.87"/>
      <point x="862.8" y="60.12"/>
      <point x="853.05" y="60.12" type="curve" smooth="yes"/>
      <point x="847.07" y="60.12" type="line"/>
      <point x="796.16" y="62.57"/>
      <point x="779.59" y="102.44"/>
    </contour>
  </outline>
</glyph>
<glyph name="I" format="2">
  <advance width="407.0"/>
  <unicode hex="0049"/>
  <note>
I
</note>
  <outline>
    <contour>
      <point x="284.01" y="155.08" type="curve" smooth="yes"/>
      <point x="284.01" y="594.92" type="line" smooth="yes"/>
      <point x="284.01" y="647.56"/>
      <point x="300.58" y="687.43"/>
      <point x="351.49" y="689.88" type="curve"/>
      <point x="357.48" y="689.88" type="line" smooth="yes"/>
      <point x="367.23" y="689.88"/>
      <point x="372.48" y="695.13"/>
      <point x="372.48" y="704.88" type="curve" smooth="yes"/>
      <point x="372.48" y="735.0" type="line" smooth="yes"/>
      <point x="372.48" y="744.75"/>
      <point x="367.23" y="750.0"/>
      <point x="357.48" y="750.0" type="curve" smooth="yes"/>
      <point x="50.0" y="750.0" type="line" smooth="yes"/>
      <point x="40.25" y="750.0"/>
      <point x="35.0" y="744.75"/>
      <point x="35.0" y="735.0" type="curve" smooth="yes"/>
      <point x="35.0" y="704.88" type="line" smooth="yes"/>
      <point x="35.0" y="695.13"/>
      <point x="40.25" y="689.88"/>
      <point x="50.0" y="689.88" type="curve" smooth="yes"/>
      <point x="56.73" y="689.88" type="line"/>
      <point x="107.64" y="687.43"/>
      <point x="124.21" y="647.56"/>
      <point x="124.21" y="594.92" type="curve" smooth="yes"/>
      <point x="124.21" y="155.08" type="line" smooth="yes"/>
      <point x="124.21" y="102.44"/>
      <point x="107.64" y="62.57"/>
      <point x="56.73" y="60.12" type="curve"/>
      <point x="50.0" y="60.12" type="line" smooth="yes"/>
      <point x="40.25" y="60.12"/>
      <point x="35.0" y="54.87"/>
      <point x="35.0" y="45.12" type="curve" smooth="yes"/>
      <point x="35.0" y="15.0" type="line" smooth="yes"/>
      <point x="35.0" y="5.25"/>
      <point x="40.25" y="0.0"/>
      <point x="50.0" y="0.0" type="curve" smooth="yes"/>
      <point x="357.48" y="0.0" type="line" smooth="yes"/>
      <point x="367.23" y="0.0"/>
      <point x="372.48" y="5.25"/>
      <point x="372.48" y="15.0" type="curve" smooth="yes"/>
      <point x="372.48" y="45.12" type="line" smooth="yes"/>
      <point x="372.48" y="54.87"/>
      <point x="367.23" y="60.12"/>
      <point x="357.48" y="60.12" type="curve" smooth="yes"/>
      <point x="351.49" y="60.12" type="line"/>
      <point x="300.58" y="62.57"/>
      <point x="284.01" y="102.44"/>
    </contour>
  </outline>
</glyph>
<glyph name="J" format="2">
  <advance width="525.0"/>
  <unicode hex="004A"/>
  <note>
J
</note>
  <outline>
    <contour>
      <point x="484.88" y="749.84" type="curve" smooth="yes"/>
      <point x="177.4" y="750.0" type="line" smooth="yes"/>
      <point x="167.65" y="750.0"/>
      <point x="162.4" y="744.75"/>
      <point x="162.4" y="735.0" type="curve" smooth="yes"/>
      <point x="162.4" y="704.88" type="line" smooth="yes"/>
      <point x="162.4" y="695.13"/>
      <point x="167.65" y="689.88"/>
      <point x="177.4" y="689.88" type="curve" smooth="yes"/>
      <point x="184.13" y="689.88" type="line"/>
      <point x="235.04" y="687.43"/>
      <point x="251.61" y="647.56"/>
      <point x="251.61" y="594.92" type="curve" smooth="yes"/>
      <point x="251.61" y="127.59" type="line" smooth="yes"/>
      <point x="251.67" y="85.87"/>
      <point x="237.78" y="53.97"/>
      <point x="190.65" y="53.97" type="curve" smooth="yes"/>
      <point x="148.61" y="53.97"/>
      <point x="135.14" y="99.97"/>
      <point x="135.14" y="145.97" type="curve" smooth="yes"/>
      <point x="135.14" y="158.97"/>
      <point x="136.21" y="171.99"/>
      <point x="138.01" y="183.99" type="curve"/>
      <point x="138.95" y="196.09"/>
      <point x="132.84" y="201.98"/>
      <point x="126.09" y="201.98" type="curve" smooth="yes"/>
      <point x="124.05" y="201.98"/>
      <point x="121.94" y="201.44"/>
      <point x="119.96" y="200.37" type="curve" smooth="yes"/>
      <point x="20.94" y="147.01" type="line" smooth="yes"/>
      <point x="9.86" y="141.04"/>
      <point x="5.0" y="131.32"/>
      <point x="5.0" y="122.83" type="curve" smooth="yes"/>
      <point x="5.0" y="96.18"/>
      <point x="47.34" y="-11.16"/>
      <point x="181.04" y="-11.16" type="curve" smooth="yes"/>
      <point x="376.52" y="-11.16"/>
      <point x="411.41" y="113.19"/>
      <point x="411.41" y="218.34" type="curve" smooth="yes"/>
      <point x="411.41" y="594.76" type="line" smooth="yes"/>
      <point x="411.41" y="647.4"/>
      <point x="427.98" y="687.27"/>
      <point x="478.89" y="689.72" type="curve"/>
      <point x="484.88" y="689.72" type="line" smooth="yes"/>
      <point x="494.63" y="689.72"/>
      <point x="499.88" y="694.97"/>
      <point x="499.88" y="704.72" type="curve" smooth="yes"/>
      <point x="499.88" y="734.84" type="line" smooth="yes"/>
      <point x="499.88" y="744.59"/>
      <point x="494.63" y="749.84"/>
    </contour>
  </outline>
</glyph>
<glyph name="K" format="2">
  <advance width="798.0"/>
  <unicode hex="004B"/>
  <note>
K
</note>
  <outline>
    <contour>
      <point x="775.16" y="60.12" type="curve" smooth="yes"/>
      <point x="769.31" y="60.12" type="line"/>
      <point x="718.45" y="62.63"/>
      <point x="703.86" y="104.32"/>
      <point x="670.0" y="155.08" type="curve" smooth="yes"/>
      <point x="462.33" y="466.48" type="line"/>
      <point x="609.32" y="625.17" type="line" smooth="yes"/>
      <point x="657.83" y="677.53"/>
      <point x="680.0" y="690.65"/>
      <point x="719.7" y="690.65" type="curve" smooth="yes"/>
      <point x="731.64" y="690.65" type="line" smooth="yes"/>
      <point x="739.39" y="690.65"/>
      <point x="744.64" y="695.9"/>
      <point x="744.64" y="705.65" type="curve" smooth="yes"/>
      <point x="744.64" y="735.65" type="line"/>
      <point x="743.99" y="745.38"/>
      <point x="739.39" y="750.65"/>
      <point x="729.64" y="750.65" type="curve" smooth="yes"/>
      <point x="477.28" y="750.65" type="line" smooth="yes"/>
      <point x="467.53" y="750.65"/>
      <point x="462.28" y="745.4"/>
      <point x="462.28" y="735.65" type="curve" smooth="yes"/>
      <point x="462.28" y="705.65" type="line"/>
      <point x="461.64" y="695.92"/>
      <point x="467.53" y="690.65"/>
      <point x="475.28" y="690.65" type="curve" smooth="yes"/>
      <point x="495.62" y="690.65" type="line" smooth="yes"/>
      <point x="509.64" y="690.65"/>
      <point x="515.66" y="682.92"/>
      <point x="515.66" y="673.19" type="curve" smooth="yes"/>
      <point x="515.66" y="665.58"/>
      <point x="511.98" y="656.76"/>
      <point x="505.57" y="649.45" type="curve" smooth="yes"/>
      <point x="475.01" y="614.62" type="line"/>
      <point x="279.02" y="397.12" type="line"/>
      <point x="279.02" y="593.93" type="line" smooth="yes"/>
      <point x="279.02" y="646.33"/>
      <point x="295.44" y="687.03"/>
      <point x="345.81" y="689.88" type="curve"/>
      <point x="352.7" y="689.88" type="line" smooth="yes"/>
      <point x="362.45" y="689.88"/>
      <point x="367.7" y="695.13"/>
      <point x="367.7" y="704.88" type="curve" smooth="yes"/>
      <point x="367.7" y="735.0" type="line" smooth="yes"/>
      <point x="367.7" y="744.75"/>
      <point x="362.45" y="750.0"/>
      <point x="352.7" y="750.0" type="curve" smooth="yes"/>
      <point x="45.22" y="750.0" type="line" smooth="yes"/>
      <point x="35.47" y="750.0"/>
      <point x="30.22" y="744.75"/>
      <point x="30.22" y="735.0" type="curve" smooth="yes"/>
      <point x="30.22" y="704.88" type="line" smooth="yes"/>
      <point x="30.22" y="695.13"/>
      <point x="35.47" y="689.88"/>
      <point x="45.22" y="689.88" type="curve" smooth="yes"/>
      <point x="52.5" y="689.88" type="line"/>
      <point x="102.82" y="687.07"/>
      <point x="119.22" y="647.34"/>
      <point x="119.22" y="594.96" type="curve" smooth="yes"/>
      <point x="119.22" y="155.08" type="line" smooth="yes"/>
      <point x="119.21" y="102.44"/>
      <point x="102.64" y="62.57"/>
      <point x="51.73" y="60.12" type="curve"/>
      <point x="45.0" y="60.12" type="line" smooth="yes"/>
      <point x="35.25" y="60.12"/>
      <point x="30.0" y="54.87"/>
      <point x="30.0" y="45.12" type="curve" smooth="yes"/>
      <point x="30.0" y="15.0" type="line" smooth="yes"/>
      <point x="30.0" y="5.25"/>
      <point x="35.25" y="0.0"/>
      <point x="45.0" y="0.0" type="curve" smooth="yes"/>
      <point x="352.48" y="0.0" type="line" smooth="yes"/>
      <point x="362.23" y="0.0"/>
      <point x="367.48" y="5.25"/>
      <point x="367.48" y="15.0" type="curve" smooth="yes"/>
      <point x="367.48" y="45.12" type="line" smooth="yes"/>
      <point x="367.48" y="54.87"/>
      <point x="362.23" y="60.12"/>
      <point x="352.48" y="60.12" type="curve" smooth="yes"/>
      <point x="346.49" y="60.12" type="line"/>
      <point x="295.58" y="62.57"/>
      <point x="279.01" y="102.44"/>
      <point x="279.01" y="155.08" type="curve" smooth="yes"/>
      <point x="279.01" y="269.32" type="line"/>
      <point x="364.39" y="361.34" type="line"/>
      <point x="510.2" y="155.08" type="line" smooth="yes"/>
      <point x="522.33" y="137.93"/>
      <point x="527.91" y="121.6"/>
      <point x="527.91" y="107.48" type="curve" smooth="yes"/>
      <point x="527.91" y="80.68"/>
      <point x="507.83" y="61.78"/>
      <point x="474.25" y="60.12" type="curve"/>
      <point x="467.68" y="60.12" type="line" smooth="yes"/>
      <point x="457.93" y="60.12"/>
      <point x="452.68" y="54.87"/>
      <point x="452.68" y="45.12" type="curve" smooth="yes"/>
      <point x="452.68" y="15.0" type="line" smooth="yes"/>
      <point x="452.68" y="5.25"/>
      <point x="457.93" y="0.0"/>
      <point x="467.68" y="0.0" type="curve" smooth="yes"/>
      <point x="775.16" y="0.0" type="line" smooth="yes"/>
      <point x="784.91" y="0.0"/>
      <point x="790.16" y="5.25"/>
      <point x="790.16" y="15.0" type="curve" smooth="yes"/>
      <point x="790.16" y="45.12" type="line" smooth="yes"/>
      <point x="790.16" y="54.87"/>
      <point x="784.91" y="60.12"/>
    </contour>
  </outline>
</glyph>
<glyph name="L" format="2">
  <advance width="709"/>
  <unicode hex="004C"/>
  <anchor x="359" y="0" name="bottom"/>
  <anchor x="198" y="750" name="top"/>
  <outline>
    <contour>
      <point x="680" y="214" type="curve" smooth="yes"/>
      <point x="648" y="233" type="line" smooth="yes"/>
      <point x="645" y="235"/>
      <point x="642" y="236"/>
      <point x="639" y="236" type="curve" smooth="yes"/>
      <point x="633" y="236"/>
      <point x="630" y="233"/>
      <point x="627" y="227" type="curve" smooth="yes"/>
      <point x="624" y="221" type="line" smooth="yes"/>
      <point x="566" y="105"/>
      <point x="483" y="71"/>
      <point x="386" y="71" type="curve" smooth="yes"/>
      <point x="347" y="71" type="line" smooth="yes"/>
      <point x="302" y="71"/>
      <point x="278" y="104"/>
      <point x="278" y="166" type="curve" smooth="yes"/>
      <point x="278" y="689" type="line"/>
      <point x="349" y="689" type="line" smooth="yes"/>
      <point x="360" y="689"/>
      <point x="367" y="695"/>
      <point x="367" y="704" type="curve" smooth="yes"/>
      <point x="367" y="734" type="line" smooth="yes"/>
      <point x="367" y="743"/>
      <point x="359" y="750"/>
      <point x="348" y="750" type="curve" smooth="yes"/>
      <point x="45" y="750" type="line" smooth="yes"/>
      <point x="35" y="750"/>
      <point x="30" y="744"/>
      <point x="30" y="734" type="curve" smooth="yes"/>
      <point x="30" y="704" type="line" smooth="yes"/>
      <point x="30" y="695"/>
      <point x="36" y="689"/>
      <point x="45" y="689" type="curve" smooth="yes"/>
      <point x="95" y="689"/>
      <point x="119" y="657"/>
      <point x="119" y="594" type="curve" smooth="yes"/>
      <point x="119" y="155" type="line" smooth="yes"/>
      <point x="119" y="92"/>
      <point x="95" y="60"/>
      <point x="45" y="60" type="curve" smooth="yes"/>
      <point x="36" y="60"/>
      <point x="30" y="55"/>
      <point x="30" y="45" type="curve" smooth="yes"/>
      <point x="30" y="15" type="line" smooth="yes"/>
      <point x="30" y="5"/>
      <point x="35" y="0"/>
      <point x="45" y="0" type="curve" smooth="yes"/>
      <point x="546" y="0" type="line" smooth="yes"/>
      <point x="558" y="0"/>
      <point x="562" y="-1"/>
      <point x="566" y="-5" type="curve" smooth="yes"/>
      <point x="574" y="-13"/>
      <point x="577" y="-14"/>
      <point x="580" y="-14" type="curve" smooth="yes"/>
      <point x="585" y="-14"/>
      <point x="589" y="-11"/>
      <point x="592" y="-5" type="curve" smooth="yes"/>
      <point x="686" y="193" type="line" smooth="yes"/>
      <point x="689" y="199"/>
      <point x="689" y="201"/>
      <point x="689" y="202" type="curve" smooth="yes"/>
      <point x="689" y="209"/>
      <point x="686" y="211"/>
    </contour>
  </outline>
</glyph>
<glyph name="M" format="2">
  <advance width="1036.0"/>
  <unicode hex="004D"/>
  <note>
M
</note>
  <outline>
    <contour>
      <point x="917.43" y="155.08" type="curve" smooth="yes"/>
      <point x="917.43" y="674.84" type="line"/>
      <point x="936.45" y="686.2"/>
      <point x="957.16" y="690.03"/>
      <point x="979.45" y="690.03" type="curve" smooth="yes"/>
      <point x="989.2" y="690.03"/>
      <point x="994.45" y="695.28"/>
      <point x="994.45" y="705.03" type="curve" smooth="yes"/>
      <point x="994.45" y="735.03" type="line" smooth="yes"/>
      <point x="994.45" y="744.78"/>
      <point x="989.2" y="750.03"/>
      <point x="979.45" y="750.03" type="curve" smooth="yes"/>
      <point x="791.31" y="750.03" type="line" smooth="yes"/>
      <point x="783.42" y="750.03"/>
      <point x="778.16" y="747.28"/>
      <point x="772.97" y="741.34" type="curve"/>
      <point x="517.97" y="225.35" type="line"/>
      <point x="262.97" y="741.34" type="line"/>
      <point x="257.78" y="747.28"/>
      <point x="252.53" y="750.03"/>
      <point x="244.64" y="750.03" type="curve" smooth="yes"/>
      <point x="56.5" y="750.03" type="line" smooth="yes"/>
      <point x="46.75" y="750.03"/>
      <point x="41.5" y="744.78"/>
      <point x="41.5" y="735.03" type="curve" smooth="yes"/>
      <point x="41.5" y="705.03" type="line" smooth="yes"/>
      <point x="41.5" y="695.28"/>
      <point x="46.75" y="690.03"/>
      <point x="56.5" y="690.03" type="curve" smooth="yes"/>
      <point x="78.79" y="690.03"/>
      <point x="99.5" y="686.2"/>
      <point x="119.39" y="674.84" type="curve"/>
      <point x="119.39" y="155.08" type="line" smooth="yes"/>
      <point x="118.52" y="100.74"/>
      <point x="93.89" y="60.0"/>
      <point x="45.0" y="60.0" type="curve" smooth="yes"/>
      <point x="35.25" y="60.0"/>
      <point x="30.0" y="54.75"/>
      <point x="30.0" y="45.0" type="curve" smooth="yes"/>
      <point x="30.0" y="15.0" type="line" smooth="yes"/>
      <point x="30.0" y="5.25"/>
      <point x="35.25" y="0.0"/>
      <point x="45.0" y="0.0" type="curve" smooth="yes"/>
      <point x="291.62" y="0.0" type="line" smooth="yes"/>
      <point x="301.37" y="0.0"/>
      <point x="306.62" y="5.25"/>
      <point x="306.62" y="15.0" type="curve" smooth="yes"/>
      <point x="306.62" y="45.0" type="line" smooth="yes"/>
      <point x="306.62" y="54.75"/>
      <point x="301.37" y="60.0"/>
      <point x="291.62" y="60.0" type="curve" smooth="yes"/>
      <point x="242.73" y="60.0"/>
      <point x="219.07" y="100.73"/>
      <point x="219.07" y="155.08" type="curve" smooth="yes"/>
      <point x="219.07" y="534.28" type="line"/>
      <point x="454.46" y="56.34" type="line" smooth="yes"/>
      <point x="458.19" y="48.75"/>
      <point x="463.6" y="45.29"/>
      <point x="472.05" y="45.29" type="curve" smooth="yes"/>
      <point x="563.9" y="45.29" type="line" smooth="yes"/>
      <point x="572.35" y="45.29"/>
      <point x="577.76" y="48.75"/>
      <point x="581.49" y="56.34" type="curve" smooth="yes"/>
      <point x="816.88" y="534.28" type="line"/>
      <point x="816.88" y="155.08" type="line" smooth="yes"/>
      <point x="816.88" y="100.73"/>
      <point x="793.22" y="60.0"/>
      <point x="744.33" y="60.0" type="curve" smooth="yes"/>
      <point x="734.58" y="60.0"/>
      <point x="729.33" y="54.75"/>
      <point x="729.33" y="45.0" type="curve" smooth="yes"/>
      <point x="729.33" y="15.0" type="line" smooth="yes"/>
      <point x="729.33" y="5.25"/>
      <point x="734.58" y="0.0"/>
      <point x="744.33" y="0.0" type="curve" smooth="yes"/>
      <point x="990.95" y="0.0" type="line" smooth="yes"/>
      <point x="1000.7" y="0.0"/>
      <point x="1005.95" y="5.25"/>
      <point x="1005.95" y="15.0" type="curve" smooth="yes"/>
      <point x="1005.95" y="45.0" type="line" smooth="yes"/>
      <point x="1005.95" y="54.75"/>
      <point x="1000.7" y="60.0"/>
      <point x="990.95" y="60.0" type="curve" smooth="yes"/>
      <point x="942.06" y="60.0"/>
      <point x="917.43" y="100.74"/>
    </contour>
  </outline>
</glyph>
<glyph name="N" format="2">
  <advance width="891"/>
  <unicode hex="004E"/>
  <anchor x="460" y="0" name="bottom"/>
  <anchor x="454" y="750" name="top"/>
  <outline>
    <contour>
      <point x="866" y="750" type="curve" smooth="yes"/>
      <point x="619" y="750" type="line" smooth="yes"/>
      <point x="609" y="750"/>
      <point x="604" y="745"/>
      <point x="604" y="735" type="curve" smooth="yes"/>
      <point x="604" y="705" type="line" smooth="yes"/>
      <point x="604" y="695"/>
      <point x="609" y="690"/>
      <point x="619" y="690" type="curve" smooth="yes"/>
      <point x="668" y="690"/>
      <point x="693" y="650"/>
      <point x="693" y="595" type="curve" smooth="yes"/>
      <point x="693" y="231" type="line"/>
      <point x="246" y="741" type="line" smooth="yes"/>
      <point x="241" y="747"/>
      <point x="236" y="750"/>
      <point x="228" y="750" type="curve" smooth="yes"/>
      <point x="55" y="750" type="line" smooth="yes"/>
      <point x="45" y="750"/>
      <point x="40" y="745"/>
      <point x="40" y="735" type="curve" smooth="yes"/>
      <point x="40" y="705" type="line" smooth="yes"/>
      <point x="40" y="695"/>
      <point x="45" y="690"/>
      <point x="55" y="690" type="curve" smooth="yes"/>
      <point x="80" y="690"/>
      <point x="98" y="682"/>
      <point x="118" y="665" type="curve"/>
      <point x="118" y="155" type="line" smooth="yes"/>
      <point x="118" y="101"/>
      <point x="94" y="60"/>
      <point x="45" y="60" type="curve" smooth="yes"/>
      <point x="35" y="60"/>
      <point x="30" y="55"/>
      <point x="30" y="45" type="curve" smooth="yes"/>
      <point x="30" y="15" type="line" smooth="yes"/>
      <point x="30" y="5"/>
      <point x="35" y="0"/>
      <point x="45" y="0" type="curve" smooth="yes"/>
      <point x="292" y="0" type="line" smooth="yes"/>
      <point x="301" y="0"/>
      <point x="307" y="5"/>
      <point x="307" y="15" type="curve" smooth="yes"/>
      <point x="307" y="45" type="line" smooth="yes"/>
      <point x="307" y="55"/>
      <point x="301" y="60"/>
      <point x="292" y="60" type="curve" smooth="yes"/>
      <point x="243" y="60"/>
      <point x="218" y="101"/>
      <point x="218" y="155" type="curve" smooth="yes"/>
      <point x="218" y="553" type="line"/>
      <point x="691" y="9" type="line" smooth="yes"/>
      <point x="696" y="3"/>
      <point x="701" y="0"/>
      <point x="709" y="0" type="curve" smooth="yes"/>
      <point x="778" y="0" type="line" smooth="yes"/>
      <point x="788" y="0"/>
      <point x="793" y="5"/>
      <point x="793" y="15" type="curve" smooth="yes"/>
      <point x="793" y="595" type="line" smooth="yes"/>
      <point x="793" y="650"/>
      <point x="817" y="690"/>
      <point x="866" y="690" type="curve" smooth="yes"/>
      <point x="876" y="690"/>
      <point x="881" y="695"/>
      <point x="881" y="705" type="curve" smooth="yes"/>
      <point x="881" y="735" type="line" smooth="yes"/>
      <point x="881" y="745"/>
      <point x="876" y="750"/>
    </contour>
  </outline>
</glyph>
<glyph name="O" format="2">
  <advance width="822"/>
  <unicode hex="004F"/>
  <anchor x="426" y="0" name="bottom"/>
  <anchor x="412" y="750" name="top"/>
  <outline>
    <contour>
      <point x="405" y="762" type="curve" smooth="yes"/>
      <point x="195" y="762"/>
      <point x="35" y="587"/>
      <point x="35" y="379" type="curve" smooth="yes"/>
      <point x="35" y="167"/>
      <point x="204" y="-13"/>
      <point x="416" y="-13" type="curve" smooth="yes"/>
      <point x="618" y="-13"/>
      <point x="787" y="156"/>
      <point x="787" y="369" type="curve" smooth="yes"/>
      <point x="787" y="582"/>
      <point x="616" y="762"/>
    </contour>
    <contour>
      <point x="394" y="674" type="curve" smooth="yes"/>
      <point x="569" y="674"/>
      <point x="638" y="448"/>
      <point x="638" y="317" type="curve" smooth="yes"/>
      <point x="638" y="175"/>
      <point x="562" y="76"/>
      <point x="426" y="76" type="curve" smooth="yes"/>
      <point x="257" y="76"/>
      <point x="184" y="288"/>
      <point x="184" y="432" type="curve" smooth="yes"/>
      <point x="184" y="577"/>
      <point x="261" y="674"/>
    </contour>
  </outline>
</glyph>
<glyph name="P" format="2">
  <advance width="700.0"/>
  <unicode hex="0050"/>
  <note>
P
</note>
  <outline>
    <contour>
      <point x="279.01" y="155.08" type="curve" smooth="yes"/>
      <point x="279.01" y="301.67" type="line"/>
      <point x="353.55" y="301.67" type="line" smooth="yes"/>
      <point x="597.38" y="301.67"/>
      <point x="679.9" y="401.05"/>
      <point x="679.9" y="528.75" type="curve" smooth="yes"/>
      <point x="679.9" y="643.09"/>
      <point x="575.29" y="750.04"/>
      <point x="413.1" y="750.04" type="curve" smooth="yes"/>
      <point x="45.67" y="750.04" type="line" smooth="yes"/>
      <point x="35.92" y="750.04"/>
      <point x="30.67" y="744.79"/>
      <point x="30.67" y="735.04" type="curve" smooth="yes"/>
      <point x="30.67" y="705.04" type="line" smooth="yes"/>
      <point x="30.67" y="695.29"/>
      <point x="35.92" y="690.04"/>
      <point x="45.67" y="690.04" type="curve" smooth="yes"/>
      <point x="46.67" y="690.04" type="line" smooth="yes"/>
      <point x="101.56" y="690.04"/>
      <point x="119.22" y="649.31"/>
      <point x="119.22" y="594.96" type="curve" smooth="yes"/>
      <point x="119.22" y="155.08" type="line" smooth="yes"/>
      <point x="119.21" y="102.44"/>
      <point x="102.64" y="62.57"/>
      <point x="51.73" y="60.12" type="curve"/>
      <point x="45.0" y="60.12" type="line" smooth="yes"/>
      <point x="35.25" y="60.12"/>
      <point x="30.0" y="54.87"/>
      <point x="30.0" y="45.12" type="curve" smooth="yes"/>
      <point x="30.0" y="15.0" type="line" smooth="yes"/>
      <point x="30.0" y="5.25"/>
      <point x="35.25" y="0.0"/>
      <point x="45.0" y="0.0" type="curve" smooth="yes"/>
      <point x="352.48" y="0.0" type="line" smooth="yes"/>
      <point x="362.23" y="0.0"/>
      <point x="367.48" y="5.25"/>
      <point x="367.48" y="15.0" type="curve" smooth="yes"/>
      <point x="367.48" y="45.12" type="line" smooth="yes"/>
      <point x="367.48" y="54.87"/>
      <point x="362.23" y="60.12"/>
      <point x="352.48" y="60.12" type="curve" smooth="yes"/>
      <point x="346.49" y="60.12" type="line"/>
      <point x="295.58" y="62.57"/>
      <point x="279.01" y="102.44"/>
    </contour>
    <contour>
      <point x="337.11" y="372.67" type="curve" smooth="yes"/>
      <point x="273.02" y="372.67" type="line"/>
      <point x="273.02" y="690.04" type="line"/>
      <point x="369.39" y="690.04" type="line" smooth="yes"/>
      <point x="469.37" y="689.82"/>
      <point x="529.9" y="621.3"/>
      <point x="529.9" y="528.75" type="curve" smooth="yes"/>
      <point x="529.9" y="418.2"/>
      <point x="470.49" y="372.67"/>
    </contour>
  </outline>
</glyph>
<glyph name="Q" format="2">
  <advance width="822.0"/>
  <unicode hex="0051"/>
  <note>
Q
</note>
  <outline>
    <contour>
      <point x="746.12" y="-143.38" type="curve" smooth="yes"/>
      <point x="724.21" y="-100.0" type="line" smooth="yes"/>
      <point x="721.23" y="-94.39"/>
      <point x="717.06" y="-91.24"/>
      <point x="711.79" y="-91.24" type="curve" smooth="yes"/>
      <point x="709.54" y="-91.24"/>
      <point x="707.1" y="-91.81"/>
      <point x="704.47" y="-93.0" type="curve"/>
      <point x="648.49" y="-113.0"/>
      <point x="593.27" y="-132.0"/>
      <point x="539.83" y="-132.0" type="curve" smooth="yes"/>
      <point x="480.52" y="-132.0"/>
      <point x="447.52" y="-112.0"/>
      <point x="447.52" y="-70.0" type="curve" smooth="yes"/>
      <point x="447.52" y="-20.0"/>
      <point x="493.27" y="-8.0"/>
      <point x="529.75" y="5.0" type="curve" smooth="yes"/>
      <point x="684.2" y="56.11"/>
      <point x="786.71" y="204.22"/>
      <point x="786.71" y="368.5" type="curve" smooth="yes"/>
      <point x="786.71" y="395.89"/>
      <point x="783.86" y="423.74"/>
      <point x="777.93" y="451.65" type="curve" smooth="yes"/>
      <point x="739.06" y="634.49"/>
      <point x="579.95" y="761.79"/>
      <point x="404.92" y="761.79" type="curve" smooth="yes"/>
      <point x="379.98" y="761.79"/>
      <point x="354.73" y="759.21"/>
      <point x="329.45" y="753.83" type="curve" smooth="yes"/>
      <point x="153.86" y="716.51"/>
      <point x="35.0" y="556.72"/>
      <point x="35.0" y="378.96" type="curve" smooth="yes"/>
      <point x="35.0" y="351.47"/>
      <point x="37.84" y="323.56"/>
      <point x="43.76" y="295.6" type="curve" smooth="yes"/>
      <point x="78.45" y="132.38"/>
      <point x="208.33" y="14.15"/>
      <point x="360.25" y="-9.22" type="curve"/>
      <point x="333.6" y="-31.38"/>
      <point x="318.77" y="-60.38"/>
      <point x="318.77" y="-94.38" type="curve" smooth="yes"/>
      <point x="318.77" y="-156.38"/>
      <point x="363.71" y="-227.38"/>
      <point x="519.97" y="-227.38" type="curve" smooth="yes"/>
      <point x="602.69" y="-227.38"/>
      <point x="673.15" y="-197.38"/>
      <point x="739.56" y="-164.38" type="curve"/>
      <point x="745.37" y="-161.04"/>
      <point x="748.32" y="-156.81"/>
      <point x="748.32" y="-151.69" type="curve" smooth="yes"/>
      <point x="748.32" y="-149.14"/>
      <point x="747.59" y="-146.37"/>
    </contour>
    <contour>
      <point x="195.42" y="327.91" type="curve" smooth="yes"/>
      <point x="188.3" y="361.44"/>
      <point x="184.05" y="396.82"/>
      <point x="184.05" y="431.64" type="curve" smooth="yes"/>
      <point x="184.05" y="539.68"/>
      <point x="224.95" y="642.41"/>
      <point x="347.61" y="668.48" type="curve" smooth="yes"/>
      <point x="363.99" y="671.96"/>
      <point x="379.6" y="673.61"/>
      <point x="394.47" y="673.61" type="curve" smooth="yes"/>
      <point x="526.81" y="673.61"/>
      <point x="599.93" y="543.33"/>
      <point x="626.26" y="419.48" type="curve" smooth="yes"/>
      <point x="633.32" y="386.25"/>
      <point x="637.5" y="351.36"/>
      <point x="637.5" y="317.06" type="curve" smooth="yes"/>
      <point x="637.5" y="209.15"/>
      <point x="596.14" y="107.07"/>
      <point x="473.07" y="80.91" type="curve" smooth="yes"/>
      <point x="456.42" y="77.34"/>
      <point x="440.57" y="75.66"/>
      <point x="425.5" y="75.66" type="curve" smooth="yes"/>
      <point x="293.75" y="75.66"/>
      <point x="221.7" y="204.29"/>
    </contour>
  </outline>
</glyph>
<glyph name="R" format="2">
  <advance width="798.0"/>
  <unicode hex="0052"/>
  <note>
R
</note>
  <outline>
    <contour>
      <point x="775.16" y="60.21" type="curve" smooth="yes"/>
      <point x="769.52" y="60.12" type="line"/>
      <point x="717.96" y="62.75"/>
      <point x="694.74" y="108.47"/>
      <point x="670.0" y="155.08" type="curve" smooth="yes"/>
      <point x="560.99" y="360.51" type="line"/>
      <point x="646.9" y="401.87"/>
      <point x="679.9" y="470.65"/>
      <point x="679.9" y="538.75" type="curve" smooth="yes"/>
      <point x="679.9" y="653.09"/>
      <point x="575.29" y="750.04"/>
      <point x="413.1" y="750.04" type="curve" smooth="yes"/>
      <point x="45.67" y="750.04" type="line" smooth="yes"/>
      <point x="35.92" y="750.04"/>
      <point x="30.67" y="744.79"/>
      <point x="30.67" y="735.04" type="curve" smooth="yes"/>
      <point x="30.67" y="705.04" type="line" smooth="yes"/>
      <point x="30.67" y="695.29"/>
      <point x="35.92" y="690.04"/>
      <point x="45.67" y="690.04" type="curve" smooth="yes"/>
      <point x="46.67" y="690.04" type="line" smooth="yes"/>
      <point x="101.56" y="690.04"/>
      <point x="119.22" y="649.31"/>
      <point x="119.22" y="594.96" type="curve" smooth="yes"/>
      <point x="119.22" y="155.08" type="line" smooth="yes"/>
      <point x="119.21" y="102.44"/>
      <point x="102.64" y="62.57"/>
      <point x="51.73" y="60.12" type="curve"/>
      <point x="45.0" y="60.12" type="line" smooth="yes"/>
      <point x="35.25" y="60.12"/>
      <point x="30.0" y="54.87"/>
      <point x="30.0" y="45.12" type="curve" smooth="yes"/>
      <point x="30.0" y="15.0" type="line" smooth="yes"/>
      <point x="30.0" y="5.25"/>
      <point x="35.25" y="0.0"/>
      <point x="45.0" y="0.0" type="curve" smooth="yes"/>
      <point x="352.48" y="0.0" type="line" smooth="yes"/>
      <point x="362.23" y="0.0"/>
      <point x="367.48" y="5.25"/>
      <point x="367.48" y="15.0" type="curve" smooth="yes"/>
      <point x="367.48" y="45.12" type="line" smooth="yes"/>
      <point x="367.48" y="54.87"/>
      <point x="362.23" y="60.12"/>
      <point x="352.48" y="60.12" type="curve" smooth="yes"/>
      <point x="346.49" y="60.12" type="line"/>
      <point x="295.58" y="62.57"/>
      <point x="279.01" y="102.44"/>
      <point x="279.01" y="155.08" type="curve" smooth="yes"/>
      <point x="279.01" y="321.67" type="line"/>
      <point x="353.55" y="321.67" type="line" smooth="yes"/>
      <point x="376.91" y="321.67"/>
      <point x="398.78" y="322.67"/>
      <point x="419.25" y="324.67" type="curve"/>
      <point x="510.2" y="155.17" type="line" smooth="yes"/>
      <point x="518.81" y="139.12"/>
      <point x="523.23" y="123.15"/>
      <point x="523.23" y="109.01" type="curve" smooth="yes"/>
      <point x="523.23" y="82.18"/>
      <point x="507.34" y="61.94"/>
      <point x="474.05" y="60.21" type="curve"/>
      <point x="467.68" y="60.21" type="line" smooth="yes"/>
      <point x="457.93" y="60.21"/>
      <point x="452.68" y="54.96"/>
      <point x="452.68" y="45.21" type="curve" smooth="yes"/>
      <point x="452.68" y="15.09" type="line" smooth="yes"/>
      <point x="452.68" y="5.34"/>
      <point x="457.93" y="0.09"/>
      <point x="467.68" y="0.09" type="curve" smooth="yes"/>
      <point x="775.16" y="0.09" type="line" smooth="yes"/>
      <point x="784.91" y="0.09"/>
      <point x="790.16" y="5.34"/>
      <point x="790.16" y="15.09" type="curve" smooth="yes"/>
      <point x="790.16" y="45.21" type="line" smooth="yes"/>
      <point x="790.16" y="54.96"/>
      <point x="784.91" y="60.21"/>
    </contour>
    <contour>
      <point x="337.11" y="392.76" type="curve" smooth="yes"/>
      <point x="279.02" y="392.76" type="line"/>
      <point x="279.02" y="690.13" type="line"/>
      <point x="369.39" y="690.13" type="line" smooth="yes"/>
      <point x="469.37" y="689.91"/>
      <point x="529.9" y="631.39"/>
      <point x="529.9" y="538.84" type="curve" smooth="yes"/>
      <point x="529.9" y="448.29"/>
      <point x="470.49" y="392.76"/>
    </contour>
  </outline>
</glyph>
<glyph name="S" format="2">
  <advance width="723"/>
  <unicode hex="0053"/>
  <anchor x="369" y="0" name="bottom"/>
  <anchor x="369" y="750" name="top"/>
  <outline>
    <contour>
      <point x="619" y="523" type="curve" smooth="yes"/>
      <point x="653" y="541" type="line" smooth="yes"/>
      <point x="661" y="545"/>
      <point x="664" y="550"/>
      <point x="664" y="556" type="curve" smooth="yes"/>
      <point x="664" y="560"/>
      <point x="662" y="565"/>
      <point x="660" y="570" type="curve" smooth="yes"/>
      <point x="590" y="749" type="line" smooth="yes"/>
      <point x="585" y="761"/>
      <point x="578" y="766"/>
      <point x="565" y="766" type="curve" smooth="yes"/>
      <point x="529" y="766" type="line" smooth="yes"/>
      <point x="517" y="766"/>
      <point x="511" y="761"/>
      <point x="511" y="751" type="curve" smooth="yes"/>
      <point x="511" y="738"/>
      <point x="516" y="725"/>
      <point x="516" y="718" type="curve" smooth="yes"/>
      <point x="516" y="714"/>
      <point x="515" y="712"/>
      <point x="511" y="712" type="curve" smooth="yes"/>
      <point x="507" y="712"/>
      <point x="500" y="715"/>
      <point x="488" y="722" type="curve" smooth="yes"/>
      <point x="460" y="738"/>
      <point x="407" y="762"/>
      <point x="333" y="762" type="curve" smooth="yes"/>
      <point x="189" y="762"/>
      <point x="80" y="701"/>
      <point x="80" y="569" type="curve" smooth="yes"/>
      <point x="80" y="425"/>
      <point x="219" y="363"/>
      <point x="350" y="325" type="curve" smooth="yes"/>
      <point x="494" y="283"/>
      <point x="558" y="264"/>
      <point x="558" y="176" type="curve" smooth="yes"/>
      <point x="558" y="116"/>
      <point x="510" y="72"/>
      <point x="423" y="72" type="curve" smooth="yes"/>
      <point x="308" y="72"/>
      <point x="194" y="137"/>
      <point x="104" y="275" type="curve" smooth="yes"/>
      <point x="99" y="283"/>
      <point x="94" y="287"/>
      <point x="87" y="287" type="curve" smooth="yes"/>
      <point x="83" y="287"/>
      <point x="79" y="285"/>
      <point x="75" y="283" type="curve" smooth="yes"/>
      <point x="31" y="258" type="line" smooth="yes"/>
      <point x="24" y="254"/>
      <point x="20" y="248"/>
      <point x="20" y="241" type="curve" smooth="yes"/>
      <point x="20" y="238"/>
      <point x="22" y="233"/>
      <point x="24" y="229" type="curve" smooth="yes"/>
      <point x="145" y="2" type="line" smooth="yes"/>
      <point x="150" y="-8"/>
      <point x="158" y="-12"/>
      <point x="170" y="-12" type="curve" smooth="yes"/>
      <point x="220" y="-12" type="line" smooth="yes"/>
      <point x="232" y="-12"/>
      <point x="237" y="-9"/>
      <point x="237" y="-1" type="curve" smooth="yes"/>
      <point x="237" y="3"/>
      <point x="236" y="6"/>
      <point x="234" y="11" type="curve" smooth="yes"/>
      <point x="233" y="15"/>
      <point x="232" y="19"/>
      <point x="232" y="22" type="curve" smooth="yes"/>
      <point x="232" y="29"/>
      <point x="235" y="32"/>
      <point x="241" y="32" type="curve" smooth="yes"/>
      <point x="245" y="32"/>
      <point x="250" y="31"/>
      <point x="256" y="28" type="curve" smooth="yes"/>
      <point x="305" y="4"/>
      <point x="357" y="-13"/>
      <point x="417" y="-13" type="curve" smooth="yes"/>
      <point x="601" y="-13"/>
      <point x="708" y="84"/>
      <point x="708" y="221" type="curve" smooth="yes"/>
      <point x="708" y="371"/>
      <point x="549" y="423"/>
      <point x="396" y="467" type="curve" smooth="yes"/>
      <point x="319" y="489"/>
      <point x="239" y="520"/>
      <point x="239" y="594" type="curve" smooth="yes"/>
      <point x="239" y="654"/>
      <point x="282" y="681"/>
      <point x="336" y="681" type="curve" smooth="yes"/>
      <point x="424" y="681"/>
      <point x="505" y="637"/>
      <point x="590" y="531" type="curve" smooth="yes"/>
      <point x="595" y="524"/>
      <point x="601" y="519"/>
      <point x="607" y="519" type="curve" smooth="yes"/>
      <point x="611" y="519"/>
      <point x="615" y="521"/>
    </contour>
  </outline>
</glyph>
<glyph name="T" format="2">
  <advance width="788"/>
  <unicode hex="0054"/>
  <anchor x="386" y="0" name="bottom"/>
  <anchor x="388" y="750" name="top"/>
  <outline>
    <contour>
      <point x="642" y="750" type="curve" smooth="yes"/>
      <point x="133" y="750" type="line" smooth="yes"/>
      <point x="126" y="750"/>
      <point x="117" y="751"/>
      <point x="108" y="760" type="curve" smooth="yes"/>
      <point x="106" y="762"/>
      <point x="102" y="764"/>
      <point x="99" y="764" type="curve" smooth="yes"/>
      <point x="94" y="764"/>
      <point x="90" y="761"/>
      <point x="87" y="755" type="curve" smooth="yes"/>
      <point x="8" y="609" type="line" smooth="yes"/>
      <point x="6" y="605"/>
      <point x="5" y="603"/>
      <point x="5" y="600" type="curve" smooth="yes"/>
      <point x="5" y="595"/>
      <point x="7" y="591"/>
      <point x="13" y="588" type="curve" smooth="yes"/>
      <point x="55" y="565" type="line" smooth="yes"/>
      <point x="59" y="563"/>
      <point x="62" y="562"/>
      <point x="65" y="562" type="curve" smooth="yes"/>
      <point x="70" y="562"/>
      <point x="73" y="566"/>
      <point x="76" y="571" type="curve" smooth="yes"/>
      <point x="79" y="577" type="line" smooth="yes"/>
      <point x="112" y="644"/>
      <point x="178" y="669"/>
      <point x="259" y="669" type="curve" smooth="yes"/>
      <point x="308" y="669" type="line"/>
      <point x="308" y="155" type="line" smooth="yes"/>
      <point x="308" y="102"/>
      <point x="291" y="60"/>
      <point x="240" y="60" type="curve" smooth="yes"/>
      <point x="234" y="60" type="line" smooth="yes"/>
      <point x="224" y="60"/>
      <point x="219" y="55"/>
      <point x="219" y="45" type="curve" smooth="yes"/>
      <point x="219" y="15" type="line" smooth="yes"/>
      <point x="219" y="5"/>
      <point x="224" y="0"/>
      <point x="234" y="0" type="curve" smooth="yes"/>
      <point x="542" y="0" type="line" smooth="yes"/>
      <point x="551" y="0"/>
      <point x="557" y="5"/>
      <point x="557" y="15" type="curve" smooth="yes"/>
      <point x="557" y="45" type="line" smooth="yes"/>
      <point x="557" y="55"/>
      <point x="551" y="60"/>
      <point x="542" y="60" type="curve" smooth="yes"/>
      <point x="535" y="60" type="line" smooth="yes"/>
      <point x="484" y="60"/>
      <point x="467" y="102"/>
      <point x="467" y="155" type="curve" smooth="yes"/>
      <point x="467" y="669" type="line"/>
      <point x="516" y="669" type="line" smooth="yes"/>
      <point x="597" y="669"/>
      <point x="663" y="644"/>
      <point x="696" y="577" type="curve" smooth="yes"/>
      <point x="699" y="571" type="line" smooth="yes"/>
      <point x="702" y="566"/>
      <point x="705" y="562"/>
      <point x="710" y="562" type="curve" smooth="yes"/>
      <point x="713" y="562"/>
      <point x="716" y="563"/>
      <point x="720" y="565" type="curve" smooth="yes"/>
      <point x="762" y="588" type="line" smooth="yes"/>
      <point x="768" y="591"/>
      <point x="770" y="595"/>
      <point x="770" y="600" type="curve" smooth="yes"/>
      <point x="770" y="603"/>
      <point x="769" y="605"/>
      <point x="767" y="609" type="curve" smooth="yes"/>
      <point x="688" y="755" type="line" smooth="yes"/>
      <point x="685" y="761"/>
      <point x="681" y="764"/>
      <point x="676" y="764" type="curve" smooth="yes"/>
      <point x="673" y="764"/>
      <point x="669" y="762"/>
      <point x="667" y="760" type="curve" smooth="yes"/>
      <point x="658" y="751"/>
      <point x="649" y="750"/>
    </contour>
  </outline>
</glyph>
<glyph name="U" format="2">
  <advance width="808"/>
  <unicode hex="0055"/>
  <anchor x="440" y="0" name="bottom"/>
  <anchor x="520" y="0" name="ogonek"/>
  <anchor x="436" y="750" name="top"/>
  <outline>
    <contour>
      <point x="783" y="750" type="curve" smooth="yes"/>
      <point x="535" y="750" type="line" smooth="yes"/>
      <point x="525" y="750"/>
      <point x="520" y="745"/>
      <point x="520" y="735" type="curve" smooth="yes"/>
      <point x="520" y="705" type="line" smooth="yes"/>
      <point x="520" y="695"/>
      <point x="525" y="690"/>
      <point x="535" y="690" type="curve" smooth="yes"/>
      <point x="541" y="690" type="line" smooth="yes"/>
      <point x="592" y="690"/>
      <point x="608" y="648"/>
      <point x="608" y="595" type="curve" smooth="yes"/>
      <point x="608" y="285" type="line" smooth="yes"/>
      <point x="608" y="164"/>
      <point x="567" y="75"/>
      <point x="452" y="75" type="curve" smooth="yes"/>
      <point x="296" y="75"/>
      <point x="274" y="173"/>
      <point x="274" y="285" type="curve" smooth="yes"/>
      <point x="274" y="595" type="line" smooth="yes"/>
      <point x="274" y="648"/>
      <point x="291" y="690"/>
      <point x="341" y="690" type="curve" smooth="yes"/>
      <point x="347" y="690" type="line" smooth="yes"/>
      <point x="357" y="690"/>
      <point x="362" y="695"/>
      <point x="362" y="705" type="curve" smooth="yes"/>
      <point x="362" y="735" type="line" smooth="yes"/>
      <point x="362" y="745"/>
      <point x="357" y="750"/>
      <point x="347" y="750" type="curve" smooth="yes"/>
      <point x="40" y="750" type="line" smooth="yes"/>
      <point x="30" y="750"/>
      <point x="25" y="745"/>
      <point x="25" y="735" type="curve" smooth="yes"/>
      <point x="25" y="705" type="line" smooth="yes"/>
      <point x="25" y="695"/>
      <point x="30" y="690"/>
      <point x="40" y="690" type="curve" smooth="yes"/>
      <point x="47" y="690" type="line" smooth="yes"/>
      <point x="98" y="690"/>
      <point x="114" y="648"/>
      <point x="114" y="595" type="curve" smooth="yes"/>
      <point x="114" y="265" type="line" smooth="yes"/>
      <point x="114" y="91"/>
      <point x="225" y="-13"/>
      <point x="423" y="-13" type="curve" smooth="yes"/>
      <point x="621" y="-13"/>
      <point x="709" y="91"/>
      <point x="709" y="275" type="curve" smooth="yes"/>
      <point x="709" y="595" type="line" smooth="yes"/>
      <point x="709" y="648"/>
      <point x="726" y="690"/>
      <point x="776" y="690" type="curve" smooth="yes"/>
      <point x="783" y="690" type="line" smooth="yes"/>
      <point x="793" y="690"/>
      <point x="798" y="695"/>
      <point x="798" y="705" type="curve" smooth="yes"/>
      <point x="798" y="735" type="line" smooth="yes"/>
      <point x="798" y="745"/>
      <point x="793" y="750"/>
    </contour>
  </outline>
</glyph>
<glyph name="V" format="2">
  <advance width="784.0"/>
  <unicode hex="0056"/>
  <note>
V
</note>
  <outline>
    <contour>
      <point x="763.9" y="752.56" type="curve" smooth="yes"/>
      <point x="515.28" y="752.56" type="line" smooth="yes"/>
      <point x="505.53" y="752.56"/>
      <point x="500.28" y="747.31"/>
      <point x="500.28" y="737.56" type="curve" smooth="yes"/>
      <point x="500.28" y="707.56" type="line" smooth="yes"/>
      <point x="500.28" y="697.81"/>
      <point x="505.53" y="692.56"/>
      <point x="515.28" y="692.56" type="curve" smooth="yes"/>
      <point x="556.21" y="692.56"/>
      <point x="593.24" y="663.09"/>
      <point x="593.24" y="622.37" type="curve" smooth="yes"/>
      <point x="593.24" y="614.45"/>
      <point x="591.84" y="606.11"/>
      <point x="588.8" y="597.48" type="curve" smooth="yes"/>
      <point x="427.88" y="140.79" type="line"/>
      <point x="254.07" y="597.48" type="line" smooth="yes"/>
      <point x="250.6" y="606.59"/>
      <point x="249.02" y="615.37"/>
      <point x="249.02" y="623.66" type="curve" smooth="yes"/>
      <point x="249.02" y="663.78"/>
      <point x="286.11" y="692.56"/>
      <point x="326.62" y="692.56" type="curve" smooth="yes"/>
      <point x="336.37" y="692.56"/>
      <point x="341.62" y="697.81"/>
      <point x="341.62" y="707.56" type="curve" smooth="yes"/>
      <point x="341.62" y="737.56" type="line" smooth="yes"/>
      <point x="341.62" y="747.31"/>
      <point x="336.37" y="752.56"/>
      <point x="326.62" y="752.56" type="curve" smooth="yes"/>
      <point x="20.0" y="752.56" type="line" smooth="yes"/>
      <point x="10.25" y="752.56"/>
      <point x="5.0" y="747.31"/>
      <point x="5.0" y="737.56" type="curve" smooth="yes"/>
      <point x="5.0" y="707.56" type="line" smooth="yes"/>
      <point x="5.0" y="697.81"/>
      <point x="10.25" y="692.56"/>
      <point x="20.0" y="692.56" type="curve" smooth="yes"/>
      <point x="61.89" y="692.56"/>
      <point x="73.85" y="648.5"/>
      <point x="93.52" y="597.48" type="curve" smooth="yes"/>
      <point x="319.19" y="11.99" type="line" smooth="yes"/>
      <point x="322.32" y="3.87"/>
      <point x="327.63" y="0.0"/>
      <point x="336.34" y="0.0" type="curve" smooth="yes"/>
      <point x="456.7" y="0.0" type="line" smooth="yes"/>
      <point x="465.44" y="0.0"/>
      <point x="470.76" y="3.93"/>
      <point x="473.78" y="12.13" type="curve" smooth="yes"/>
      <point x="689.35" y="597.48" type="line" smooth="yes"/>
      <point x="708.57" y="649.66"/>
      <point x="720.01" y="692.56"/>
      <point x="763.9" y="692.56" type="curve" smooth="yes"/>
      <point x="773.65" y="692.56"/>
      <point x="778.9" y="697.81"/>
      <point x="778.9" y="707.56" type="curve" smooth="yes"/>
      <point x="778.9" y="737.56" type="line" smooth="yes"/>
      <point x="778.9" y="747.31"/>
      <point x="773.65" y="752.56"/>
    </contour>
  </outline>
</glyph>
<glyph name="W" format="2">
  <advance width="1207.0"/>
  <unicode hex="0057"/>
  <note>
W
</note>
  <outline>
    <contour>
      <point x="1187.48" y="752.56" type="curve" smooth="yes"/>
      <point x="938.86" y="752.56" type="line" smooth="yes"/>
      <point x="929.11" y="752.56"/>
      <point x="923.86" y="747.31"/>
      <point x="923.86" y="737.56" type="curve" smooth="yes"/>
      <point x="923.86" y="707.56" type="line" smooth="yes"/>
      <point x="923.86" y="697.81"/>
      <point x="929.11" y="692.56"/>
      <point x="938.86" y="692.56" type="curve" smooth="yes"/>
      <point x="980.0" y="692.56"/>
      <point x="1016.47" y="663.04"/>
      <point x="1016.47" y="621.86" type="curve" smooth="yes"/>
      <point x="1016.47" y="614.11"/>
      <point x="1015.18" y="605.94"/>
      <point x="1012.38" y="597.48" type="curve" smooth="yes"/>
      <point x="861.46" y="140.79" type="line"/>
      <point x="695.6" y="603.19" type="line" smooth="yes"/>
      <point x="691.46" y="614.73"/>
      <point x="689.66" y="625.17"/>
      <point x="689.66" y="634.49" type="curve" smooth="yes"/>
      <point x="689.66" y="673.01"/>
      <point x="720.39" y="692.56"/>
      <point x="744.2" y="692.56" type="curve" smooth="yes"/>
      <point x="770.2" y="692.56" type="line" smooth="yes"/>
      <point x="779.95" y="692.56"/>
      <point x="785.2" y="697.81"/>
      <point x="785.2" y="707.56" type="curve" smooth="yes"/>
      <point x="785.2" y="737.56" type="line" smooth="yes"/>
      <point x="785.2" y="747.31"/>
      <point x="779.95" y="752.56"/>
      <point x="770.2" y="752.56" type="curve" smooth="yes"/>
      <point x="463.58" y="752.56" type="line" smooth="yes"/>
      <point x="453.83" y="752.56"/>
      <point x="448.58" y="747.31"/>
      <point x="448.58" y="737.56" type="curve" smooth="yes"/>
      <point x="448.58" y="707.56" type="line" smooth="yes"/>
      <point x="448.58" y="697.81"/>
      <point x="453.83" y="692.56"/>
      <point x="463.58" y="692.56" type="curve" smooth="yes"/>
      <point x="505.47" y="692.56"/>
      <point x="518.2" y="648.79"/>
      <point x="537.1" y="597.48" type="curve" smooth="yes"/>
      <point x="553.81" y="552.12" type="line"/>
      <point x="417.88" y="140.79" type="line"/>
      <point x="254.07" y="597.48" type="line" smooth="yes"/>
      <point x="250.86" y="606.44"/>
      <point x="249.38" y="615.07"/>
      <point x="249.38" y="623.22" type="curve" smooth="yes"/>
      <point x="249.38" y="663.77"/>
      <point x="285.91" y="692.56"/>
      <point x="326.62" y="692.56" type="curve" smooth="yes"/>
      <point x="336.37" y="692.56"/>
      <point x="341.62" y="697.81"/>
      <point x="341.62" y="707.56" type="curve" smooth="yes"/>
      <point x="341.62" y="737.56" type="line" smooth="yes"/>
      <point x="341.62" y="747.31"/>
      <point x="336.37" y="752.56"/>
      <point x="326.62" y="752.56" type="curve" smooth="yes"/>
      <point x="20.0" y="752.56" type="line" smooth="yes"/>
      <point x="10.25" y="752.56"/>
      <point x="5.0" y="747.31"/>
      <point x="5.0" y="737.56" type="curve" smooth="yes"/>
      <point x="5.0" y="707.56" type="line" smooth="yes"/>
      <point x="5.0" y="697.81"/>
      <point x="10.25" y="692.56"/>
      <point x="20.0" y="692.56" type="curve" smooth="yes"/>
      <point x="61.89" y="692.56"/>
      <point x="74.62" y="648.79"/>
      <point x="93.52" y="597.48" type="curve" smooth="yes"/>
      <point x="309.19" y="11.99" type="line" smooth="yes"/>
      <point x="312.32" y="3.87"/>
      <point x="317.63" y="0.0"/>
      <point x="326.34" y="0.0" type="curve" smooth="yes"/>
      <point x="446.7" y="0.0" type="line" smooth="yes"/>
      <point x="455.44" y="0.0"/>
      <point x="460.89" y="3.88"/>
      <point x="463.78" y="12.13" type="curve" smooth="yes"/>
      <point x="604.8" y="413.68" type="line"/>
      <point x="752.77" y="11.99" type="line" smooth="yes"/>
      <point x="755.9" y="3.87"/>
      <point x="761.21" y="0.0"/>
      <point x="769.92" y="0.0" type="curve" smooth="yes"/>
      <point x="890.28" y="0.0" type="line" smooth="yes"/>
      <point x="899.02" y="0.0"/>
      <point x="904.47" y="3.88"/>
      <point x="907.36" y="12.13" type="curve" smooth="yes"/>
      <point x="1112.93" y="597.48" type="line" smooth="yes"/>
      <point x="1131.35" y="649.95"/>
      <point x="1143.59" y="692.56"/>
      <point x="1187.48" y="692.56" type="curve" smooth="yes"/>
      <point x="1197.23" y="692.56"/>
      <point x="1202.48" y="697.81"/>
      <point x="1202.48" y="707.56" type="curve" smooth="yes"/>
      <point x="1202.48" y="737.56" type="line" smooth="yes"/>
      <point x="1202.48" y="747.31"/>
      <point x="1197.23" y="752.56"/>
    </contour>
  </outline>
</glyph>
<glyph name="X" format="2">
  <advance width="853.0"/>
  <unicode hex="0058"/>
  <note>
X
</note>
  <outline>
    <contour>
      <point x="826.68" y="66.93" type="curve" smooth="yes"/>
      <point x="823.95" y="66.93" type="line" smooth="yes"/>
      <point x="795.83" y="66.93"/>
      <point x="764.57" y="89.84"/>
      <point x="725.58" y="137.55" type="curve" smooth="yes"/>
      <point x="511.69" y="399.18" type="line"/>
      <point x="681.08" y="613.34" type="line" smooth="yes"/>
      <point x="719.37" y="662.49"/>
      <point x="734.59" y="683.34"/>
      <point x="780.23" y="683.34" type="curve" smooth="yes"/>
      <point x="796.22" y="683.34" type="line" smooth="yes"/>
      <point x="807.14" y="683.34"/>
      <point x="813.02" y="689.22"/>
      <point x="813.02" y="700.14" type="curve" smooth="yes"/>
      <point x="813.02" y="733.74" type="line" smooth="yes"/>
      <point x="813.02" y="744.66"/>
      <point x="807.14" y="750.54"/>
      <point x="796.22" y="750.54" type="curve" smooth="yes"/>
      <point x="560.88" y="750.54" type="line" smooth="yes"/>
      <point x="549.96" y="750.54"/>
      <point x="544.08" y="744.66"/>
      <point x="544.08" y="733.74" type="curve" smooth="yes"/>
      <point x="544.08" y="700.14" type="line" smooth="yes"/>
      <point x="544.08" y="689.22"/>
      <point x="549.96" y="683.34"/>
      <point x="560.88" y="683.34" type="curve" smooth="yes"/>
      <point x="571.76" y="683.34" type="line" smooth="yes"/>
      <point x="590.77" y="683.34"/>
      <point x="599.12" y="678.82"/>
      <point x="599.12" y="669.49" type="curve" smooth="yes"/>
      <point x="599.12" y="658.0"/>
      <point x="586.47" y="639.23"/>
      <point x="565.54" y="612.65" type="curve" smooth="yes"/>
      <point x="453.5" y="470.35" type="line"/>
      <point x="322.29" y="630.84" type="line" smooth="yes"/>
      <point x="309.45" y="646.45"/>
      <point x="302.85" y="658.04"/>
      <point x="302.85" y="666.27" type="curve" smooth="yes"/>
      <point x="302.85" y="677.9"/>
      <point x="316.06" y="682.8"/>
      <point x="343.54" y="682.8" type="curve" smooth="yes"/>
      <point x="345.78" y="682.8" type="line" smooth="yes"/>
      <point x="356.49" y="682.92"/>
      <point x="362.26" y="688.79"/>
      <point x="362.26" y="699.6" type="curve" smooth="yes"/>
      <point x="362.26" y="733.2" type="line" smooth="yes"/>
      <point x="362.26" y="744.12"/>
      <point x="356.38" y="750.0"/>
      <point x="345.46" y="750.0" type="curve" smooth="yes"/>
      <point x="54.6" y="750.0" type="line" smooth="yes"/>
      <point x="43.68" y="750.0"/>
      <point x="37.8" y="744.12"/>
      <point x="37.8" y="733.2" type="curve" smooth="yes"/>
      <point x="37.8" y="699.6" type="line" smooth="yes"/>
      <point x="37.8" y="688.68"/>
      <point x="43.68" y="682.8"/>
      <point x="54.6" y="682.8" type="curve" smooth="yes"/>
      <point x="57.33" y="682.8" type="line" smooth="yes"/>
      <point x="85.45" y="682.8"/>
      <point x="117.08" y="659.23"/>
      <point x="155.7" y="612.19" type="curve" smooth="yes"/>
      <point x="332.88" y="396.37" type="line"/>
      <point x="130.74" y="137.02" type="line" smooth="yes"/>
      <point x="92.34" y="87.96"/>
      <point x="77.22" y="67.02"/>
      <point x="31.58" y="67.02" type="curve" smooth="yes"/>
      <point x="18.14" y="67.02" type="line"/>
      <point x="18.15" y="65.36" type="line"/>
      <point x="12.81" y="62.91"/>
      <point x="10.0" y="57.77"/>
      <point x="10.0" y="50.22" type="curve" smooth="yes"/>
      <point x="10.0" y="16.62" type="line" smooth="yes"/>
      <point x="10.0" y="8.93"/>
      <point x="12.92" y="3.82"/>
      <point x="18.46" y="1.48" type="curve"/>
      <point x="18.47" y="0.0" type="line"/>
      <point x="262.13" y="0.0" type="line" smooth="yes"/>
      <point x="273.05" y="0.0"/>
      <point x="278.93" y="5.7"/>
      <point x="278.93" y="16.62" type="curve" smooth="yes"/>
      <point x="278.93" y="50.22" type="line" smooth="yes"/>
      <point x="278.93" y="61.14"/>
      <point x="273.05" y="67.02"/>
      <point x="262.13" y="67.02" type="curve" smooth="yes"/>
      <point x="240.06" y="67.02" type="line" smooth="yes"/>
      <point x="221.11" y="67.02"/>
      <point x="212.84" y="71.45"/>
      <point x="212.84" y="80.67" type="curve" smooth="yes"/>
      <point x="212.84" y="92.1"/>
      <point x="225.52" y="110.88"/>
      <point x="246.28" y="137.72" type="curve" smooth="yes"/>
      <point x="391.29" y="325.23" type="line"/>
      <point x="557.17" y="123.18" type="line" smooth="yes"/>
      <point x="568.61" y="109.36"/>
      <point x="573.03" y="98.82"/>
      <point x="573.03" y="90.82" type="curve" smooth="yes"/>
      <point x="573.03" y="71.36"/>
      <point x="546.89" y="66.93"/>
      <point x="532.14" y="66.93" type="curve" smooth="yes"/>
      <point x="529.9" y="66.93" type="line" smooth="yes"/>
      <point x="519.19" y="66.81"/>
      <point x="513.42" y="60.94"/>
      <point x="513.42" y="50.13" type="curve" smooth="yes"/>
      <point x="513.42" y="16.53" type="line" smooth="yes"/>
      <point x="513.42" y="5.61"/>
      <point x="519.3" y="0.0"/>
      <point x="530.22" y="0.0" type="curve" smooth="yes"/>
      <point x="826.68" y="0.0" type="line" smooth="yes"/>
      <point x="837.6" y="0.0"/>
      <point x="843.48" y="5.61"/>
      <point x="843.48" y="16.53" type="curve" smooth="yes"/>
      <point x="843.48" y="50.13" type="line" smooth="yes"/>
      <point x="843.48" y="61.05"/>
      <point x="837.6" y="66.93"/>
    </contour>
  </outline>
</glyph>
<glyph name="Y" format="2">
  <advance width="794"/>
  <unicode hex="0059"/>
  <anchor x="444" y="750" name="top"/>
  <outline>
    <contour>
      <point x="769" y="750" type="curve" smooth="yes"/>
      <point x="520" y="750" type="line" smooth="yes"/>
      <point x="511" y="750"/>
      <point x="505" y="744"/>
      <point x="505" y="735" type="curve" smooth="yes"/>
      <point x="505" y="705" type="line" smooth="yes"/>
      <point x="505" y="695"/>
      <point x="511" y="690"/>
      <point x="520" y="690" type="curve" smooth="yes"/>
      <point x="550" y="690"/>
      <point x="566" y="679"/>
      <point x="566" y="657" type="curve" smooth="yes"/>
      <point x="566" y="642"/>
      <point x="559" y="621"/>
      <point x="544" y="594" type="curve" smooth="yes"/>
      <point x="436" y="407" type="line"/>
      <point x="319" y="594" type="line" smooth="yes"/>
      <point x="307" y="614"/>
      <point x="302" y="630"/>
      <point x="302" y="643" type="curve" smooth="yes"/>
      <point x="302" y="677"/>
      <point x="336" y="690"/>
      <point x="372" y="690" type="curve" smooth="yes"/>
      <point x="381" y="690"/>
      <point x="387" y="695"/>
      <point x="387" y="705" type="curve" smooth="yes"/>
      <point x="387" y="735" type="line" smooth="yes"/>
      <point x="387" y="744"/>
      <point x="381" y="750"/>
      <point x="372" y="750" type="curve" smooth="yes"/>
      <point x="25" y="750" type="line" smooth="yes"/>
      <point x="15" y="750"/>
      <point x="10" y="744"/>
      <point x="10" y="735" type="curve" smooth="yes"/>
      <point x="10" y="705" type="line" smooth="yes"/>
      <point x="10" y="695"/>
      <point x="15" y="690"/>
      <point x="25" y="690" type="curve" smooth="yes"/>
      <point x="67" y="690"/>
      <point x="94" y="661"/>
      <point x="139" y="594" type="curve" smooth="yes"/>
      <point x="319" y="327" type="line" smooth="yes"/>
      <point x="323" y="321"/>
      <point x="325" y="316"/>
      <point x="325" y="309" type="curve" smooth="yes"/>
      <point x="325" y="155" type="line" smooth="yes"/>
      <point x="325" y="102"/>
      <point x="308" y="60"/>
      <point x="257" y="60" type="curve" smooth="yes"/>
      <point x="251" y="60" type="line" smooth="yes"/>
      <point x="242" y="60"/>
      <point x="236" y="55"/>
      <point x="236" y="45" type="curve" smooth="yes"/>
      <point x="236" y="15" type="line" smooth="yes"/>
      <point x="236" y="5"/>
      <point x="242" y="0"/>
      <point x="251" y="0" type="curve" smooth="yes"/>
      <point x="559" y="0" type="line" smooth="yes"/>
      <point x="568" y="0"/>
      <point x="574" y="5"/>
      <point x="574" y="15" type="curve" smooth="yes"/>
      <point x="574" y="45" type="line" smooth="yes"/>
      <point x="574" y="55"/>
      <point x="568" y="60"/>
      <point x="559" y="60" type="curve" smooth="yes"/>
      <point x="552" y="60" type="line" smooth="yes"/>
      <point x="501" y="60"/>
      <point x="485" y="102"/>
      <point x="485" y="155" type="curve" smooth="yes"/>
      <point x="485" y="314" type="line" smooth="yes"/>
      <point x="485" y="321"/>
      <point x="486" y="327"/>
      <point x="490" y="333" type="curve" smooth="yes"/>
      <point x="644" y="594" type="line" smooth="yes"/>
      <point x="683" y="660"/>
      <point x="725" y="690"/>
      <point x="769" y="690" type="curve" smooth="yes"/>
      <point x="779" y="690"/>
      <point x="784" y="695"/>
      <point x="784" y="705" type="curve" smooth="yes"/>
      <point x="784" y="735" type="line" smooth="yes"/>
      <point x="784" y="744"/>
      <point x="779" y="750"/>
    </contour>
  </outline>
</glyph>
<glyph name="Z" format="2">
  <advance width="745"/>
  <unicode hex="005A"/>
  <anchor x="341" y="0" name="bottom"/>
  <anchor x="418" y="750" name="top"/>
  <outline>
    <contour>
      <point x="718" y="172" type="curve" smooth="yes"/>
      <point x="676" y="195" type="line" smooth="yes"/>
      <point x="673" y="197"/>
      <point x="670" y="198"/>
      <point x="667" y="198" type="curve" smooth="yes"/>
      <point x="662" y="198"/>
      <point x="658" y="194"/>
      <point x="655" y="189" type="curve" smooth="yes"/>
      <point x="651" y="183" type="line" smooth="yes"/>
      <point x="610" y="121"/>
      <point x="541" y="91"/>
      <point x="355" y="91" type="curve" smooth="yes"/>
      <point x="220" y="91" type="line"/>
      <point x="713" y="731" type="line" smooth="yes"/>
      <point x="716" y="735"/>
      <point x="717" y="738"/>
      <point x="717" y="743" type="curve" smooth="yes"/>
      <point x="717" y="748"/>
      <point x="716" y="750"/>
      <point x="711" y="750" type="curve" smooth="yes"/>
      <point x="176" y="750" type="line" smooth="yes"/>
      <point x="169" y="750"/>
      <point x="162" y="750"/>
      <point x="157" y="755" type="curve" smooth="yes"/>
      <point x="149" y="763"/>
      <point x="147" y="763"/>
      <point x="143" y="763" type="curve" smooth="yes"/>
      <point x="138" y="763"/>
      <point x="133" y="761"/>
      <point x="130" y="755" type="curve" smooth="yes"/>
      <point x="51" y="599" type="line" smooth="yes"/>
      <point x="49" y="595"/>
      <point x="48" y="593"/>
      <point x="48" y="590" type="curve" smooth="yes"/>
      <point x="48" y="585"/>
      <point x="51" y="581"/>
      <point x="56" y="578" type="curve" smooth="yes"/>
      <point x="98" y="555" type="line" smooth="yes"/>
      <point x="101" y="553"/>
      <point x="104" y="552"/>
      <point x="107" y="552" type="curve" smooth="yes"/>
      <point x="111" y="552"/>
      <point x="115" y="556"/>
      <point x="119" y="561" type="curve" smooth="yes"/>
      <point x="123" y="566" type="line" smooth="yes"/>
      <point x="170" y="624"/>
      <point x="211" y="669"/>
      <point x="302" y="669" type="curve" smooth="yes"/>
      <point x="472" y="669" type="line"/>
      <point x="15" y="81" type="line"/>
      <point x="15" y="15" type="line" smooth="yes"/>
      <point x="15" y="5"/>
      <point x="20" y="0"/>
      <point x="30" y="0" type="curve" smooth="yes"/>
      <point x="598" y="0" type="line" smooth="yes"/>
      <point x="605" y="0"/>
      <point x="612" y="0"/>
      <point x="617" y="-5" type="curve" smooth="yes"/>
      <point x="622" y="-10" type="line" smooth="yes"/>
      <point x="625" y="-13"/>
      <point x="628" y="-13"/>
      <point x="631" y="-13" type="curve" smooth="yes"/>
      <point x="636" y="-13"/>
      <point x="640" y="-10"/>
      <point x="643" y="-5" type="curve" smooth="yes"/>
      <point x="723" y="151" type="line" smooth="yes"/>
      <point x="725" y="155"/>
      <point x="726" y="157"/>
      <point x="726" y="160" type="curve" smooth="yes"/>
      <point x="726" y="164"/>
      <point x="725" y="168"/>
    </contour>
  </outline>
</glyph>
<glyph name="bracketleft" format="2">
  <advance width="407.0"/>
  <unicode hex="005B"/>
  <note>
bracketleft
</note>
  <outline>
    <contour>
      <point x="311.91" y="-123.0" type="curve" smooth="yes"/>
      <point x="197.0" y="-123.0" type="line"/>
      <point x="197.0" y="691.94" type="line"/>
      <point x="311.95" y="691.94" type="line" smooth="yes"/>
      <point x="321.7" y="691.94"/>
      <point x="326.95" y="696.94"/>
      <point x="326.95" y="706.94" type="curve" smooth="yes"/>
      <point x="326.95" y="753.94" type="line" smooth="yes"/>
      <point x="326.95" y="762.94"/>
      <point x="321.7" y="768.94"/>
      <point x="311.95" y="768.94" type="curve" smooth="yes"/>
      <point x="95.0" y="768.94" type="line" smooth="yes"/>
      <point x="85.0" y="768.94"/>
      <point x="80.0" y="762.94"/>
      <point x="80.0" y="753.94" type="curve" smooth="yes"/>
      <point x="80.0" y="-185.0" type="line" smooth="yes"/>
      <point x="80.0" y="-195.0"/>
      <point x="85.25" y="-200.0"/>
      <point x="95.0" y="-200.0" type="curve" smooth="yes"/>
      <point x="311.91" y="-200.0" type="line" smooth="yes"/>
      <point x="321.66" y="-200.0"/>
      <point x="326.91" y="-195.0"/>
      <point x="326.91" y="-185.0" type="curve" smooth="yes"/>
      <point x="326.91" y="-138.0" type="line" smooth="yes"/>
      <point x="326.91" y="-129.0"/>
      <point x="321.66" y="-123.0"/>
    </contour>
  </outline>
</glyph>
<glyph name="backslash" format="2">
  <advance width="500.0"/>
  <unicode hex="005C"/>
  <note>
backslash
</note>
  <outline>
    <contour>
      <point x="138.89" y="770.37" type="curve" smooth="yes"/>
      <point x="458.68" y="-119.0" type="line" smooth="yes"/>
      <point x="462.61" y="-130.0"/>
      <point x="457.67" y="-136.0"/>
      <point x="446.57" y="-136.0" type="curve" smooth="yes"/>
      <point x="365.0" y="-136.0" type="line" smooth="yes"/>
      <point x="356.28" y="-136.0"/>
      <point x="351.08" y="-133.0"/>
      <point x="347.87" y="-124.0" type="curve" smooth="yes"/>
      <point x="28.09" y="765.2" type="line" smooth="yes"/>
      <point x="24.33" y="775.64"/>
      <point x="29.09" y="782.41"/>
      <point x="40.19" y="782.41" type="curve" smooth="yes"/>
      <point x="121.76" y="782.41" type="line" smooth="yes"/>
      <point x="130.48" y="782.41"/>
      <point x="135.94" y="778.57"/>
    </contour>
  </outline>
</glyph>
<glyph name="bracketright" format="2">
  <advance width="407.0"/>
  <unicode hex="005D"/>
  <note>
bracketright
</note>
  <outline>
    <contour>
      <point x="311.95" y="768.94" type="curve" smooth="yes"/>
      <point x="95.0" y="768.94" type="line" smooth="yes"/>
      <point x="85.25" y="768.94"/>
      <point x="80.0" y="762.94"/>
      <point x="80.0" y="753.94" type="curve" smooth="yes"/>
      <point x="80.0" y="706.94" type="line" smooth="yes"/>
      <point x="80.0" y="696.94"/>
      <point x="85.25" y="691.94"/>
      <point x="95.0" y="691.94" type="curve" smooth="yes"/>
      <point x="209.95" y="691.94" type="line"/>
      <point x="209.95" y="-123.0" type="line"/>
      <point x="95.04" y="-123.0" type="line" smooth="yes"/>
      <point x="85.29" y="-123.0"/>
      <point x="80.04" y="-129.0"/>
      <point x="80.04" y="-138.0" type="curve" smooth="yes"/>
      <point x="80.04" y="-185.0" type="line" smooth="yes"/>
      <point x="80.04" y="-195.0"/>
      <point x="85.29" y="-200.0"/>
      <point x="95.04" y="-200.0" type="curve" smooth="yes"/>
      <point x="311.95" y="-200.0" type="line" smooth="yes"/>
      <point x="321.7" y="-200.0"/>
      <point x="326.95" y="-195.0"/>
      <point x="326.95" y="-185.0" type="curve" smooth="yes"/>
      <point x="326.95" y="753.94" type="line" smooth="yes"/>
      <point x="326.95" y="762.94"/>
      <point x="321.95" y="768.94"/>
    </contour>
  </outline>
</glyph>
<glyph name="asciicircum" format="2">
  <advance width="600.0"/>
  <unicode hex="005E"/>
  <note>
asciicircum
</note>
  <outline>
    <contour>
      <point x="20.44" y="233.42" type="curve" smooth="yes"/>
      <point x="288.37" y="763.91" type="line" smooth="yes"/>
      <point x="291.21" y="769.55"/>
      <point x="294.94" y="772.35"/>
      <point x="298.66" y="772.35" type="curve" smooth="yes"/>
      <point x="302.34" y="772.35"/>
      <point x="306.02" y="769.6"/>
      <point x="308.84" y="764.13" type="curve" smooth="yes"/>
      <point x="576.77" y="233.42" type="line" smooth="yes"/>
      <point x="578.24" y="230.51"/>
      <point x="578.95" y="227.83"/>
      <point x="578.95" y="225.5" type="curve" smooth="yes"/>
      <point x="578.95" y="219.47"/>
      <point x="574.25" y="215.66"/>
      <point x="565.84" y="215.66" type="curve" smooth="yes"/>
      <point x="497.1" y="215.66" type="line" smooth="yes"/>
      <point x="488.69" y="215.66"/>
      <point x="483.22" y="219.02"/>
      <point x="479.43" y="226.53" type="curve" smooth="yes"/>
      <point x="298.61" y="584.7" type="line"/>
      <point x="117.78" y="226.53" type="line" smooth="yes"/>
      <point x="113.99" y="219.02"/>
      <point x="108.52" y="215.66"/>
      <point x="100.11" y="215.66" type="curve" smooth="yes"/>
      <point x="31.37" y="215.66" type="line" smooth="yes"/>
      <point x="22.96" y="215.66"/>
      <point x="18.26" y="219.47"/>
      <point x="18.26" y="225.5" type="curve" smooth="yes"/>
      <point x="18.26" y="227.83"/>
      <point x="18.97" y="230.51"/>
    </contour>
  </outline>
</glyph>
<glyph name="underscore" format="2">
  <advance width="600.0"/>
  <unicode hex="005F"/>
  <note>
underscore
</note>
  <outline>
    <contour>
      <point x="43.11" y="-62.0" type="curve" smooth="yes"/>
      <point x="20.71" y="-149.0" type="line" smooth="yes"/>
      <point x="18.05" y="-159.0"/>
      <point x="22.97" y="-165.0"/>
      <point x="33.67" y="-165.0" type="curve" smooth="yes"/>
      <point x="532.97" y="-165.0" type="line" smooth="yes"/>
      <point x="541.94" y="-165.0"/>
      <point x="547.38" y="-161.0"/>
      <point x="549.61" y="-153.0" type="curve" smooth="yes"/>
      <point x="572.0" y="-65.0" type="line" smooth="yes"/>
      <point x="574.66" y="-55.0"/>
      <point x="569.74" y="-49.0"/>
      <point x="559.05" y="-49.0" type="curve" smooth="yes"/>
      <point x="59.74" y="-49.0" type="line" smooth="yes"/>
      <point x="50.77" y="-49.0"/>
      <point x="45.34" y="-53.0"/>
    </contour>
  </outline>
</glyph>
<glyph name="a" format="2">
  <advance width="619"/>
  <unicode hex="0061"/>
  <anchor x="319" y="0" name="bottom"/>
  <anchor x="549" y="26" name="ogonek"/>
  <anchor x="286" y="500" name="top"/>
  <outline>
    <contour>
      <point x="533" y="185" type="curve" smooth="yes"/>
      <point x="533" y="294"/>
      <point x="533" y="402"/>
      <point x="533" y="511" type="curve" smooth="yes"/>
      <point x="533" y="513"/>
      <point x="532" y="513"/>
      <point x="531" y="513" type="curve"/>
      <point x="530" y="513" type="line"/>
      <point x="529" y="513"/>
      <point x="528" y="513"/>
      <point x="525" y="511" type="curve" smooth="yes"/>
      <point x="516" y="505"/>
      <point x="509" y="500"/>
      <point x="502" y="495" type="curve" smooth="yes"/>
      <point x="484" y="482"/>
      <point x="461" y="469"/>
      <point x="426" y="455" type="curve"/>
      <point x="384" y="492"/>
      <point x="329" y="513"/>
      <point x="264" y="513" type="curve" smooth="yes"/>
      <point x="143" y="513"/>
      <point x="30" y="436"/>
      <point x="30" y="251" type="curve" smooth="yes"/>
      <point x="30" y="57"/>
      <point x="161" y="-13"/>
      <point x="252" y="-13" type="curve" smooth="yes"/>
      <point x="354" y="-13"/>
      <point x="393" y="52"/>
      <point x="404" y="79" type="curve"/>
      <point x="400" y="51"/>
      <point x="393" y="-2"/>
      <point x="393" y="-9" type="curve" smooth="yes"/>
      <point x="393" y="-12"/>
      <point x="394" y="-13"/>
      <point x="395" y="-13" type="curve"/>
      <point x="398" y="-13" type="line"/>
      <point x="401" y="-13"/>
      <point x="403" y="-12"/>
      <point x="405" y="-11" type="curve" smooth="yes"/>
      <point x="450" y="9"/>
      <point x="491" y="27"/>
      <point x="589" y="27" type="curve" smooth="yes"/>
      <point x="599" y="27"/>
      <point x="604" y="32"/>
      <point x="604" y="41" type="curve" smooth="yes"/>
      <point x="604" y="74" type="line" smooth="yes"/>
      <point x="604" y="81"/>
      <point x="602" y="86"/>
      <point x="592" y="87" type="curve" smooth="yes"/>
      <point x="543" y="93"/>
      <point x="533" y="137"/>
    </contour>
    <contour>
      <point x="393" y="342" type="curve"/>
      <point x="393" y="141" type="line"/>
      <point x="391" y="135"/>
      <point x="368" y="75"/>
      <point x="297" y="75" type="curve" smooth="yes"/>
      <point x="215" y="75"/>
      <point x="159" y="155"/>
      <point x="159" y="283" type="curve" smooth="yes"/>
      <point x="159" y="366"/>
      <point x="185" y="446"/>
      <point x="282" y="446" type="curve" smooth="yes"/>
      <point x="360" y="446"/>
      <point x="386" y="382"/>
    </contour>
  </outline>
</glyph>
<glyph name="b" format="2">
  <advance width="609"/>
  <unicode hex="0062"/>
  <outline>
    <contour>
      <point x="76" y="530" type="curve" smooth="yes"/>
      <point x="76" y="215" type="line" smooth="yes"/>
      <point x="76" y="50"/>
      <point x="184" y="-13"/>
      <point x="317" y="-13" type="curve" smooth="yes"/>
      <point x="479" y="-13"/>
      <point x="579" y="96"/>
      <point x="579" y="249" type="curve" smooth="yes"/>
      <point x="579" y="443"/>
      <point x="444" y="513"/>
      <point x="336" y="513" type="curve" smooth="yes"/>
      <point x="280" y="513"/>
      <point x="233" y="491"/>
      <point x="215" y="464" type="curve"/>
      <point x="215" y="798" type="line" smooth="yes"/>
      <point x="215" y="800"/>
      <point x="214" y="800"/>
      <point x="213" y="800" type="curve" smooth="yes"/>
      <point x="212" y="800" type="line" smooth="yes"/>
      <point x="211" y="800"/>
      <point x="210" y="800"/>
      <point x="207" y="798" type="curve" smooth="yes"/>
      <point x="180" y="778"/>
      <point x="125" y="740"/>
      <point x="19" y="705" type="curve" smooth="yes"/>
      <point x="10" y="702"/>
      <point x="5" y="700"/>
      <point x="5" y="692" type="curve" smooth="yes"/>
      <point x="5" y="658" type="line" smooth="yes"/>
      <point x="5" y="651"/>
      <point x="7" y="646"/>
      <point x="17" y="645" type="curve" smooth="yes"/>
      <point x="72" y="639"/>
      <point x="76" y="584"/>
    </contour>
    <contour>
      <point x="215" y="194" type="curve" smooth="yes"/>
      <point x="215" y="399" type="line"/>
      <point x="239" y="417"/>
      <point x="265" y="425"/>
      <point x="292" y="425" type="curve" smooth="yes"/>
      <point x="394" y="425"/>
      <point x="450" y="345"/>
      <point x="450" y="217" type="curve" smooth="yes"/>
      <point x="450" y="134"/>
      <point x="424" y="53"/>
      <point x="327" y="53" type="curve" smooth="yes"/>
      <point x="270" y="53"/>
      <point x="215" y="96"/>
    </contour>
  </outline>
</glyph>
<glyph name="c" format="2">
  <advance width="514.0"/>
  <unicode hex="0063"/>
  <note>
c
</note>
  <outline>
    <contour>
      <point x="472.35" y="134.59" type="curve" smooth="yes"/>
      <point x="446.0" y="153.09" type="line" smooth="yes"/>
      <point x="442.81" y="155.33"/>
      <point x="439.79" y="156.43"/>
      <point x="436.96" y="156.43" type="curve" smooth="yes"/>
      <point x="432.55" y="156.43"/>
      <point x="428.6" y="153.76"/>
      <point x="425.18" y="148.57" type="curve" smooth="yes"/>
      <point x="395.5" y="104.23"/>
      <point x="352.27" y="81.23"/>
      <point x="313.91" y="77.23" type="curve" smooth="yes"/>
      <point x="307.38" y="76.54"/>
      <point x="301.1" y="76.21"/>
      <point x="295.05" y="76.21" type="curve" smooth="yes"/>
      <point x="194.22" y="76.21"/>
      <point x="158.79" y="168.92"/>
      <point x="158.79" y="268.11" type="curve" smooth="yes"/>
      <point x="158.79" y="280.61"/>
      <point x="159.35" y="293.22"/>
      <point x="160.42" y="305.76" type="curve" smooth="yes"/>
      <point x="166.27" y="374.46"/>
      <point x="196.79" y="432.17"/>
      <point x="260.29" y="432.17" type="curve" smooth="yes"/>
      <point x="319.07" y="432.17"/>
      <point x="345.98" y="398.51"/>
      <point x="341.99" y="341.52" type="curve"/>
      <point x="340.79" y="331.11" type="line"/>
      <point x="340.1" y="326.78"/>
      <point x="343.04" y="324.44"/>
      <point x="348.67" y="324.44" type="curve" smooth="yes"/>
      <point x="351.07" y="324.44"/>
      <point x="353.96" y="324.86"/>
      <point x="357.26" y="325.74" type="curve" smooth="yes"/>
      <point x="472.04" y="356.26" type="line" smooth="yes"/>
      <point x="479.7" y="358.3"/>
      <point x="483.89" y="362.87"/>
      <point x="483.89" y="369.67" type="curve"/>
      <point x="483.39" y="373.96" type="line"/>
      <point x="469.5" y="436.9"/>
      <point x="423.7" y="502.39"/>
      <point x="301.83" y="510.91" type="curve"/>
      <point x="283.36" y="511.55" type="line" smooth="yes"/>
      <point x="170.21" y="511.55"/>
      <point x="44.64" y="439.83"/>
      <point x="30.94" y="273.8" type="curve" smooth="yes"/>
      <point x="19.19" y="131.37"/>
      <point x="118.62" y="-9.44"/>
      <point x="268.74" y="-9.44" type="curve" smooth="yes"/>
      <point x="277.54" y="-9.44"/>
      <point x="286.53" y="-8.96"/>
      <point x="295.67" y="-7.96" type="curve" smooth="yes"/>
      <point x="390.56" y="1.71"/>
      <point x="446.85" y="48.11"/>
      <point x="478.03" y="114.32" type="curve" smooth="yes"/>
      <point x="481.91" y="122.64"/>
      <point x="479.81" y="129.35"/>
    </contour>
  </outline>
</glyph>
<glyph name="d" format="2">
  <advance width="619"/>
  <unicode hex="0064"/>
  <anchor x="337" y="0" name="bottom"/>
  <outline>
    <contour>
      <point x="533" y="185" type="curve" smooth="yes"/>
      <point x="533" y="798" type="line" smooth="yes"/>
      <point x="533" y="800"/>
      <point x="532" y="800"/>
      <point x="531" y="800" type="curve" smooth="yes"/>
      <point x="530" y="800" type="line" smooth="yes"/>
      <point x="529" y="800"/>
      <point x="528" y="800"/>
      <point x="525" y="798" type="curve" smooth="yes"/>
      <point x="498" y="778"/>
      <point x="442" y="740"/>
      <point x="337" y="705" type="curve" smooth="yes"/>
      <point x="328" y="702"/>
      <point x="322" y="700"/>
      <point x="322" y="692" type="curve" smooth="yes"/>
      <point x="322" y="658" type="line" smooth="yes"/>
      <point x="322" y="651"/>
      <point x="324" y="646"/>
      <point x="334" y="645" type="curve" smooth="yes"/>
      <point x="389" y="639"/>
      <point x="393" y="584"/>
      <point x="393" y="530" type="curve" smooth="yes"/>
      <point x="393" y="466" type="line"/>
      <point x="358" y="497"/>
      <point x="314" y="513"/>
      <point x="264" y="513" type="curve" smooth="yes"/>
      <point x="143" y="513"/>
      <point x="30" y="436"/>
      <point x="30" y="251" type="curve" smooth="yes"/>
      <point x="30" y="57"/>
      <point x="161" y="-13"/>
      <point x="252" y="-13" type="curve" smooth="yes"/>
      <point x="354" y="-13"/>
      <point x="393" y="52"/>
      <point x="404" y="79" type="curve"/>
      <point x="399" y="49"/>
      <point x="396" y="20"/>
      <point x="393" y="-10" type="curve" smooth="yes"/>
      <point x="393" y="-12"/>
      <point x="394" y="-13"/>
      <point x="396" y="-13" type="curve" smooth="yes"/>
      <point x="398" y="-13" type="line" smooth="yes"/>
      <point x="401" y="-13"/>
      <point x="403" y="-12"/>
      <point x="405" y="-11" type="curve" smooth="yes"/>
      <point x="450" y="9"/>
      <point x="491" y="27"/>
      <point x="589" y="27" type="curve" smooth="yes"/>
      <point x="599" y="27"/>
      <point x="604" y="32"/>
      <point x="604" y="41" type="curve" smooth="yes"/>
      <point x="604" y="74" type="line" smooth="yes"/>
      <point x="604" y="81"/>
      <point x="602" y="86"/>
      <point x="592" y="87" type="curve" smooth="yes"/>
      <point x="543" y="93"/>
      <point x="533" y="137"/>
    </contour>
    <contour>
      <point x="393" y="324" type="curve" smooth="yes"/>
      <point x="393" y="160" type="line"/>
      <point x="384" y="123"/>
      <point x="351" y="75"/>
      <point x="297" y="75" type="curve" smooth="yes"/>
      <point x="215" y="75"/>
      <point x="159" y="155"/>
      <point x="159" y="283" type="curve" smooth="yes"/>
      <point x="159" y="366"/>
      <point x="185" y="437"/>
      <point x="282" y="437" type="curve" smooth="yes"/>
      <point x="348" y="437"/>
      <point x="393" y="386"/>
    </contour>
  </outline>
</glyph>
<glyph name="e" format="2">
  <advance width="515"/>
  <unicode hex="0065"/>
  <anchor x="295" y="0" name="bottom"/>
  <anchor x="411" y="27" name="ogonek"/>
  <anchor x="256" y="500" name="top"/>
  <outline>
    <contour>
      <point x="175" y="179" type="curve"/>
      <point x="465" y="306" type="line" smooth="yes"/>
      <point x="472" y="309"/>
      <point x="474" y="313"/>
      <point x="474" y="318" type="curve" smooth="yes"/>
      <point x="474" y="394"/>
      <point x="400" y="513"/>
      <point x="268" y="513" type="curve" smooth="yes"/>
      <point x="150" y="513"/>
      <point x="30" y="440"/>
      <point x="30" y="255" type="curve" smooth="yes"/>
      <point x="30" y="110"/>
      <point x="132" y="-13"/>
      <point x="298" y="-13" type="curve" smooth="yes"/>
      <point x="400" y="-13"/>
      <point x="461" y="36"/>
      <point x="499" y="105" type="curve" smooth="yes"/>
      <point x="502" y="110"/>
      <point x="505" y="117"/>
      <point x="505" y="122" type="curve" smooth="yes"/>
      <point x="505" y="125"/>
      <point x="504" y="128"/>
      <point x="501" y="130" type="curve" smooth="yes"/>
      <point x="469" y="149"/>
      <point x="467" y="150"/>
      <point x="461" y="150" type="curve" smooth="yes"/>
      <point x="458" y="150"/>
      <point x="455" y="148"/>
      <point x="453" y="145" type="curve" smooth="yes"/>
      <point x="418" y="94"/>
      <point x="368" y="71"/>
      <point x="325" y="71" type="curve" smooth="yes"/>
      <point x="248" y="71"/>
      <point x="198" y="123"/>
    </contour>
    <contour>
      <point x="324" y="322" type="curve"/>
      <point x="163" y="241" type="line"/>
      <point x="155" y="265"/>
      <point x="154" y="298"/>
      <point x="154" y="318" type="curve" smooth="yes"/>
      <point x="154" y="383"/>
      <point x="188" y="432"/>
      <point x="243" y="432" type="curve" smooth="yes"/>
      <point x="289" y="432"/>
      <point x="324" y="386"/>
    </contour>
  </outline>
</glyph>
